<svg width="26" height="26" viewBox="0 0 26 26" fill="none" xmlns="http://www.w3.org/2000/svg">
    <path d="M24.9 17.35C23.5 23 18.4833 24.7917 17.15 25.275C15.8167 25.7584 14.4 26 12.9 26C9.3 26 6.25 24.75 3.75 22.25C1.25 19.75 0 16.7334 0 13.2C0 9.66669 1.25 6.65002 3.75 4.15002C6.25 1.65002 9.28333 0.400024 12.85 0.400024C16.3833 0.400024 19.3917 1.65002 21.875 4.15002C24.3583 6.65002 25.6 9.66669 25.6 13.2C25.6 14.6334 25.3667 16.0167 24.9 17.35C25.8333 16.1834 24.4333 18.6834 24.9 17.35ZM12.85 23C15.55 23 17.85 22.0417 19.75 20.125C21.65 18.2084 22.6 15.9 22.6 13.2C22.6 10.5 12.5 16.4 11.5 14.4C9.6 12.4834 15.55 3.40002 12.85 3.40002C10.1167 3.40002 7.79167 4.35836 5.875 6.27502C3.95833 8.19169 3 10.5 3 13.2C3 15.9 7.58334 13.4834 9.5 15.4C11.4167 17.3167 10.1167 23 12.85 23Z" fill="white"/>
</svg>
