<?xml version="1.0" encoding="utf-8"?>
<!-- Generator: Adobe Illustrator 25.4.1, SVG Export Plug-In . SVG Version: 6.00 Build 0)  -->
<svg version="1.1" id="Слой_1" xmlns="http://www.w3.org/2000/svg" xmlns:xlink="http://www.w3.org/1999/xlink" x="0px" y="0px"
	 viewBox="0 0 595.28 841.89" style="enable-background:new 0 0 595.28 841.89;" xml:space="preserve">
<style type="text/css">
	.st0{fill:none;stroke:#020203;stroke-miterlimit:100;}
	.st1{fill:#020203;}
	.st2{font-family:'MyriadPro-Regular';}
	.st3{font-size:17.6644px;}
</style>
<g id="Фигура_1_копия">
	<g>
		<path class="st0" d="M155.85,391.97h34.34l0,34.67h-34.34L155.85,391.97z"/>
	</g>
</g>
<g id="Фигура_1_копия_00000174571746100171257590000012371055300331670179_">
	<g>
		<path class="st0" d="M52.86,426.63H87.2l0,34.67H52.86L52.86,426.63z"/>
	</g>
</g>
<g id="Фигура_1_копия_00000101804891929196462470000007189217305833817759_">
	<g>
		<rect x="52.86" y="391.97" class="st0" width="34.34" height="34.67"/>
	</g>
</g>
<g id="Фигура_1">
	<g>
		<path class="st0" d="M52.86,357.3H87.2l0,34.67l-34.34,0L52.86,357.3z"/>
	</g>
</g>
<g id="Фигура_1_копия_00000113340303270347268110000000157199895450652545_">
	<g>
		<path class="st0" d="M52.86,461.3H87.2l0,34.67H52.86L52.86,461.3z"/>
	</g>
</g>
<g id="Фигура_1_копия_00000095311318650870301330000007409591697646835847_">
	<g>
		<rect x="87.2" y="391.97" class="st0" width="34.34" height="34.67"/>
	</g>
</g>
<g id="Фигура_1_копия_00000119816732341859939710000000382316592509114303_">
	<g>
		<path class="st0" d="M121.51,391.97h34.34l0,34.67l-34.34,0L121.51,391.97z"/>
	</g>
</g>
<g id="Фигура_1_копия_00000055668236136052463770000009698882896814355848_">
	<g>
		<path class="st0" d="M190.16,391.97h34.34v34.67h-34.34L190.16,391.97z"/>
	</g>
</g>
<g id="Фигура_1_копия_00000173845206631170441790000000136534278191751312_">
	<g>
		<rect x="224.49" y="391.97" class="st0" width="34.34" height="34.67"/>
	</g>
</g>
<g id="Фигура_1_копия_00000178913319410870760870000012537500897569955758_">
	<g>
		<path class="st0" d="M258.81,391.97h34.34l0,34.67h-34.34V391.97z"/>
	</g>
</g>
<g id="Фигура_1_копия_00000012472973145518954160000001460250811485556895_">
	<g>
		<path class="st0" d="M293.14,391.97h34.34v34.67h-34.34L293.14,391.97z"/>
	</g>
</g>
<g id="Фигура_1_копия_00000147211426561074563980000008336017500934910885_">
	<g>
		<rect x="327.46" y="391.97" class="st0" width="34.34" height="34.67"/>
	</g>
</g>
<g id="Фигура_1_копия_00000101089890612137699590000004045305755795191211_">
	<g>
		<path class="st0" d="M361.79,391.97h34.34l0,34.67h-34.34V391.97z"/>
	</g>
</g>
<g id="Фигура_1_копия_00000160902055272841686110000001619062927520543921_">
	<g>
		<path class="st0" d="M396.13,391.97h34.34v34.67h-34.34L396.13,391.97z"/>
	</g>
</g>
<g id="Фигура_1_копия_00000132779451306430458640000004724060338047461032_">
	<g>
		<rect x="155.85" y="357.3" class="st0" width="34.34" height="34.67"/>
	</g>
</g>
<g id="Фигура_1_копия_00000155121218821619593440000006634762681467615149_">
	<g>
		<path class="st0" d="M155.85,322.63h34.34v34.67l-34.34,0L155.85,322.63z"/>
	</g>
</g>
<g id="Фигура_1_копия_00000057843284894314676340000013798263499820987520_">
	<g>
		<path class="st0" d="M155.85,287.97l34.34,0l0,34.67h-34.34V287.97z"/>
	</g>
</g>
<g id="Фигура_1_копия_00000152963959899289891930000012913537968666320790_">
	<g>
		<rect x="155.85" y="253.3" class="st0" width="34.34" height="34.67"/>
	</g>
</g>
<g id="Фигура_1_копия_00000118366149149938471520000010718658999973661623_">
	<g>
		<path class="st0" d="M155.85,426.63h34.34v34.67h-34.34V426.63z"/>
	</g>
</g>
<g id="Фигура_1_копия_00000166649082529030220260000007080163184515063945_">
	<g>
		<path class="st0" d="M224.49,322.63h34.34l0,34.67h-34.34C224.49,357.3,224.49,322.63,224.49,322.63z"/>
	</g>
</g>
<g id="Фигура_1_копия_00000029036939221543678960000005211771399143013761_">
	<g>
		<rect x="224.49" y="357.3" class="st0" width="34.34" height="34.67"/>
	</g>
</g>
<g id="Фигура_1_копия_00000021092495835895808650000011257768704917510302_">
	<g>
		<path class="st0" d="M224.49,565.28h34.34v34.67h-34.34C224.49,599.95,224.49,565.28,224.49,565.28z"/>
	</g>
</g>
<g id="Фигура_1_копия_00000034808406020667768060000010255628367050588590_">
	<g>
		<path class="st0" d="M224.49,565.28h34.34v34.67h-34.34C224.49,599.95,224.49,565.28,224.49,565.28z"/>
	</g>
</g>
<g id="Фигура_1_копия_00000040555856946499947510000000387288857563002019_">
	<g>
		<rect x="224.49" y="599.95" class="st0" width="34.34" height="34.67"/>
	</g>
</g>
<g id="Фигура_1_копия_00000138575396166119310480000008347163743398651810_">
	<g>
		<path class="st0" d="M224.49,530.62h34.34v34.67h-34.34C224.49,565.28,224.49,530.62,224.49,530.62z"/>
	</g>
</g>
<g id="Фигура_1_копия_00000167393930018188405500000009038418706464491147_">
	<g>
		<path class="st0" d="M224.49,495.95l34.34,0v34.67h-34.34C224.49,530.62,224.49,495.95,224.49,495.95z"/>
	</g>
</g>
<g id="Фигура_1_копия_00000028283183054323756940000012136509005034883253_">
	<g>
		<rect x="224.49" y="461.3" class="st0" width="34.34" height="34.67"/>
	</g>
</g>
<g id="Фигура_1_копия_00000000907123333050847380000011088204785317307565_">
	<g>
		<path class="st0" d="M224.49,426.63h34.34v34.67l-34.34,0C224.49,461.3,224.49,426.63,224.49,426.63z"/>
	</g>
</g>
<g id="Фигура_1_копия_00000147928226745814115260000012117658233165040047_">
	<g>
		<path class="st0" d="M293.14,461.3h34.34v34.67l-34.34,0V461.3z"/>
	</g>
</g>
<g id="Фигура_1_копия_00000147182745473780013120000010124129639489815681_">
	<g>
		<rect x="258.81" y="461.3" class="st0" width="34.34" height="34.67"/>
	</g>
</g>
<g id="Фигура_1_копия_00000106830357862941282900000003155153439032234935_">
	<g>
		<path class="st0" d="M190.16,461.3h34.34l0,34.67h-34.34L190.16,461.3z"/>
	</g>
</g>
<g id="Фигура_1_копия_00000054240900618212605660000002413749820582798770_">
	<g>
		<path class="st0" d="M155.85,530.62h34.34l0,34.67h-34.34V530.62z"/>
	</g>
</g>
<g id="Фигура_1_копия_00000066483459441428980920000007413234606925175957_">
	<g>
		<rect x="190.16" y="530.62" class="st0" width="34.34" height="34.67"/>
	</g>
</g>
<g id="Фигура_1_копия_00000120532989730939518150000002321709672258616463_">
	<g>
		<path class="st0" d="M361.79,530.62h34.34v34.67h-34.34V530.62z"/>
	</g>
</g>
<g id="Фигура_1_копия_00000091723559519025542900000000652103223504398728_">
	<g>
		<path class="st0" d="M327.46,530.62h34.34v34.67h-34.34V530.62z"/>
	</g>
</g>
<g id="Фигура_1_копия_00000119117041807969405280000016551684251948422561_">
	<g>
		<rect x="293.14" y="530.62" class="st0" width="34.34" height="34.67"/>
	</g>
</g>
<g id="Фигура_1_копия_00000047747314948176443620000012796448505983155355_">
	<g>
		<path class="st0" d="M258.81,530.62h34.34l0,34.67l-34.34,0V530.62z"/>
	</g>
</g>
<g id="Фигура_1_копия_00000093858885613544095780000008338811239262327441_">
	<g>
		<path class="st0" d="M361.79,495.95h34.34l0,34.67h-34.34V495.95z"/>
	</g>
</g>
<g id="Фигура_1_копия_00000137090868883701536570000003377659446632912796_">
	<g>
		<rect x="361.79" y="703.95" class="st0" width="34.34" height="34.67"/>
	</g>
</g>
<g id="Фигура_1_копия_00000142149647236251780400000016473448928472290494_">
	<g>
		<path class="st0" d="M361.79,669.28h34.34v34.67h-34.34L361.79,669.28z"/>
	</g>
</g>
<g id="Фигура_1_копия_00000005970142043588224250000010579845639687793853_">
	<g>
		<path class="st0" d="M361.79,634.62h34.34l0,34.67h-34.34V634.62z"/>
	</g>
</g>
<g id="Фигура_1_копия_00000142872241368252173580000014816149698295370129_">
	<g>
		<rect x="361.79" y="599.95" class="st0" width="34.34" height="34.67"/>
	</g>
</g>
<g id="Фигура_1_копия_00000070086681196241812260000003023677962924053128_">
	<g>
		<path class="st0" d="M361.79,565.28h34.34v34.67h-34.34L361.79,565.28z"/>
	</g>
</g>
<g id="Фигура_1_копия_00000061444518000701249440000006381399770868482203_">
	<g>
		<path class="st0" d="M155.85,565.28h34.34v34.67h-34.34L155.85,565.28z"/>
	</g>
</g>
<g id="Фигура_1_копия_00000106845334250767772570000007062235866364027324_">
	<g>
		<rect x="155.85" y="599.95" class="st0" width="34.34" height="34.67"/>
	</g>
</g>
<g id="Фигура_1_копия_00000080909488088616096140000012813842055705646475_">
	<g>
		<path class="st0" d="M155.85,634.62h34.34v34.67l-34.34,0L155.85,634.62z"/>
	</g>
</g>
<g id="Фигура_1_копия_00000046321658351675926420000009794683160418485676_">
	<g>
		<path class="st0" d="M155.85,669.28l34.34,0l0,34.67h-34.34V669.28z"/>
	</g>
</g>
<g id="Фигура_1_копия_00000128453585826583299040000017122421772512999598_">
	<g>
		<rect x="155.85" y="703.95" class="st0" width="34.34" height="34.67"/>
	</g>
</g>
<g id="Фигура_1_копия_00000020385769842325243750000015107876040266753702_">
	<g>
		<path class="st0" d="M190.16,703.95h34.34v34.67h-34.34L190.16,703.95z"/>
	</g>
</g>
<g id="Фигура_1_копия_00000089538696117590318680000002460652804815525044_">
	<g>
		<path class="st0" d="M224.49,703.95l34.34,0l0,34.67h-34.34C224.49,738.62,224.49,703.95,224.49,703.95z"/>
	</g>
</g>
<g id="Фигура_1_копия_00000121976124497619506750000006780445671532021657_">
	<g>
		<rect x="121.51" y="703.95" class="st0" width="34.34" height="34.67"/>
	</g>
</g>
<g id="Фигура_1_копия_00000121998277562375276790000005944642981579362227_">
	<g>
		<path class="st0" d="M87.2,703.95h34.34l0,34.67H87.2L87.2,703.95z"/>
	</g>
</g>
<g id="Фигура_1_копия_00000059988768673117046750000015447479397708568457_">
	<g>
		<path class="st0" d="M52.86,703.95H87.2l0,34.67H52.86L52.86,703.95z"/>
	</g>
</g>
<g id="Фигура_1_копия_00000091698523251181100820000000814871739889082002_">
	<g>
		<rect x="87.2" y="738.62" class="st0" width="34.34" height="34.67"/>
	</g>
</g>
<g id="Фигура_1_копия_00000108304035851636909030000010355608107551084172_">
	<g>
		<path class="st0" d="M87.2,669.28h34.34l0,34.67H87.2L87.2,669.28z"/>
	</g>
</g>
<g id="Фигура_1_копия_00000058567284384462189230000008233653760725667991_">
	<g>
		<path class="st0" d="M87.2,634.62l34.34,0l0,34.67H87.2L87.2,634.62z"/>
	</g>
</g>
<g id="Фигура_1_копия_00000045617768035495480030000017863485643584519848_">
	<g>
		<rect x="87.2" y="599.95" class="st0" width="34.34" height="34.67"/>
	</g>
</g>
<g id="Фигура_1_копия_00000040554943807518508750000008692272639984149383_">
	<g>
		<path class="st0" d="M327.46,599.95h34.34v34.67h-34.34L327.46,599.95z"/>
	</g>
</g>
<g id="Фигура_1_копия_00000106124694970027297650000011602331022882004914_">
	<g>
		<path class="st0" d="M533.42,599.95h34.34v34.67h-34.34V599.95z"/>
	</g>
</g>
<g id="Фигура_1_копия_00000066497487159204789830000015652721034770192308_">
	<g>
		<rect x="499.09" y="599.95" class="st0" width="34.34" height="34.67"/>
	</g>
</g>
<g id="Фигура_1_копия_00000169550339975716819230000013836042520822889363_">
	<g>
		<path class="st0" d="M464.77,599.95h34.34v34.67l-34.34,0V599.95z"/>
	</g>
</g>
<g id="Фигура_1_копия_00000133508629254016528800000016045415695650427543_">
	<g>
		<path class="st0" d="M430.44,599.95h34.34v34.67h-34.34V599.95z"/>
	</g>
</g>
<g id="Фигура_1_копия_00000174593125646755038820000015166090052477319838_">
	<g>
		<rect x="396.13" y="599.95" class="st0" width="34.34" height="34.67"/>
	</g>
</g>
<g id="Фигура_1_копия_00000078005129580368580500000005503495814101773973_">
	<g>
		<path class="st0" d="M464.77,530.62h34.34v34.67h-34.34L464.77,530.62z"/>
	</g>
</g>
<g id="Фигура_1_копия_00000133511159070317828520000009821680504810228100_">
	<g>
		<path class="st0" d="M464.77,565.28h34.34v34.67h-34.34V565.28z"/>
	</g>
</g>
<g id="Фигура_1_копия_00000119796431703175849860000016347136012679261093_">
	<g>
		<rect x="464.77" y="669.28" class="st0" width="34.34" height="34.67"/>
	</g>
</g>
<g id="Фигура_1_копия_00000142883085757020240050000013968847488227573655_">
	<g>
		<path class="st0" d="M464.77,634.62h34.34l0,34.67h-34.34V634.62z"/>
	</g>
</g>
<g id="Фигура_1_копия_00000093891342506487082110000011435074852238085817_">
	<g>
		<path class="st0" d="M361.79,426.63h34.34v34.67h-34.34L361.79,426.63z"/>
	</g>
</g>
<g id="Фигура_1_копия_00000022554041407086873200000016956856945194596019_">
	<g>
		<rect x="361.79" y="357.3" class="st0" width="34.34" height="34.67"/>
	</g>
</g>
<g id="Фигура_1_копия_00000000211877149685111920000016165506004093408167_">
	<g>
		<path class="st0" d="M361.79,322.63h34.34v34.67l-34.34,0V322.63z"/>
	</g>
</g>
<g id="Фигура_1_копия_00000003079114350670223320000003920726348074326412_">
	<g>
		<path class="st0" d="M361.79,287.97l34.34,0v34.67h-34.34L361.79,287.97z"/>
	</g>
</g>
<g id="Фигура_1_копия_00000134961426038419443040000016489675590062159255_">
	<g>
		<rect x="464.77" y="322.63" class="st0" width="34.34" height="34.67"/>
	</g>
</g>
<g id="Фигура_1_копия_00000013902625565497094130000002446068561741309330_">
	<g>
		<path class="st0" d="M430.44,322.63h34.34v34.67h-34.34L430.44,322.63z"/>
	</g>
</g>
<g id="Фигура_1_копия_00000040555983481758336890000007458608091754045858_">
	<g>
		<path class="st0" d="M396.13,322.63h34.34v34.67h-34.34V322.63z"/>
	</g>
</g>
<g id="Фигура_1_копия_00000131348416782716480270000001256873402201031567_">
	<g>
		<rect x="464.77" y="218.63" class="st0" width="34.34" height="34.67"/>
	</g>
</g>
<g id="Фигура_1_копия_00000152234059066159964740000006269053281411498908_">
	<g>
		<path class="st0" d="M464.77,253.3h34.34l0,34.67h-34.34V253.3z"/>
	</g>
</g>
<g id="Фигура_1_копия_00000146489683584215396890000002138069773296706203_">
	<g>
		<path class="st0" d="M464.77,287.97h34.34v34.67l-34.34,0L464.77,287.97z"/>
	</g>
</g>
<g id="Фигура_1_копия_00000113312865638026599940000003976772199503315127_">
	<g>
		<rect x="464.77" y="357.3" class="st0" width="34.34" height="34.67"/>
	</g>
</g>
<g id="Фигура_1_копия_00000053502974930000107330000006554620515821513621_">
	<g>
		<path class="st0" d="M430.44,218.63l34.34,0v34.67l-34.34,0V218.63z"/>
	</g>
</g>
<g id="Фигура_1_копия_00000094596760243356692520000015083184078308499365_">
	<g>
		<path class="st0" d="M396.13,218.63h34.34l0,34.67h-34.34V218.63z"/>
	</g>
</g>
<g id="Фигура_1_копия_00000068642467789167789020000014480925116889330575_">
	<g>
		<rect x="361.79" y="218.63" class="st0" width="34.34" height="34.67"/>
	</g>
</g>
<g id="Фигура_1_копия_00000105424086558921219820000016008610106021639319_">
	<g>
		<path class="st0" d="M396.13,253.3h34.34v34.67h-34.34L396.13,253.3z"/>
	</g>
</g>
<g id="Фигура_1_копия_00000135675451176639808750000017876749395773486515_">
	<g>
		<path class="st0" d="M396.13,45.32l34.34,0v34.67l-34.34,0V45.32z"/>
	</g>
</g>
<g id="Фигура_1_копия_00000059283484286104004730000003430812935639952563_">
	<g>
		<path class="st0" d="M396.13,79.98l34.34,0l0,34.67l-34.34,0V79.98z"/>
	</g>
</g>
<g id="Фигура_1_копия_00000068667573432832394340000011617115160071518365_">
	<g>
		<path class="st0" d="M396.13,114.65l34.34,0v34.67h-34.34L396.13,114.65z"/>
	</g>
</g>
<g id="Фигура_1_копия_00000105428463683503245040000012424665296561925291_">
	<g>
		<path class="st0" d="M396.13,149.32h34.34v34.67h-34.34V149.32z"/>
	</g>
</g>
<g id="Фигура_1_копия_00000158731179797698712240000010207261357624733361_">
	<g>
		<rect x="396.13" y="183.98" class="st0" width="34.34" height="34.67"/>
	</g>
</g>
<text transform="matrix(1 0 0 1 53.3547 407.5131)" class="st1 st2 st3">1</text>
<text transform="matrix(1 0 0 1 54.2336 371.5776)" class="st1 st2 st3">2</text>
<text transform="matrix(1 0 0 1 157.2072 267.894)" class="st1 st2 st3">3</text>
<text transform="matrix(1 0 0 1 226.9836 337.4272)" class="st1 st2 st3">4</text>
<text transform="matrix(1 0 0 1 89.3987 614.8481)" class="st1 st2 st3">5</text>
<text transform="matrix(1 0 0 1 157.7824 546.0912)" class="st1 st2 st3">6</text>
<text transform="matrix(1 0 0 1 192.6867 477.1782)" class="st1 st2 st3">7</text>
<text transform="matrix(1 0 0 1 364.1833 302.7709)" class="st1 st2 st3">8</text>
<text transform="matrix(1 0 0 1 364.1794 337.1313)" class="st1 st2 st3">9</text>
<text transform="matrix(1 0 0 1 361.1921 233.6479)" class="st1 st2 st3">10</text>
<text transform="matrix(1 0 0 1 397.5144 60.9731)" class="st1 st2 st3">11</text>
<text transform="matrix(1 0 0 1 465.3923 233.6479)" class="st1 st2 st3">12</text>
<text transform="matrix(1 0 0 1 53.4211 719.0561)" class="st1 st2 st3">13</text>
<text transform="matrix(1 0 0 1 361.7878 511.1196)" class="st1 st2 st3">14</text>
<text transform="matrix(1 0 0 1 329.0398 615.9125)" class="st1 st2 st3">15</text>
<text transform="matrix(1 0 0 1 465.988 546.2495)" class="st1 st2 st3">16</text>
</svg>
