<svg width="600" height="850" viewBox="0 0 600 850" fill="none" xmlns="http://www.w3.org/2000/svg">
	<path d="M142 443H177V478H142V443Z" stroke="#020203" stroke-miterlimit="100"/>
	<path d="M72 408H37V443H72V408Z" stroke="#020203" stroke-miterlimit="100"/>
	<path d="M107 408H72V443H107V408Z" stroke="#020203" stroke-miterlimit="100"/>
	<path d="M107 408H142V443H107V408Z" stroke="#020203" stroke-miterlimit="100"/>
	<path d="M177 408H212V443H177V408Z" stroke="#020203" stroke-miterlimit="100"/>
	<path d="M247 408H282V443H247V408Z" stroke="#020203" stroke-miterlimit="100"/>
	<path d="M282 408H317V443H282V408Z" stroke="#020203" stroke-miterlimit="100"/>
	<path d="M352 408H317V443H352V408Z" stroke="#020203" stroke-miterlimit="100"/>
	<path d="M352 408H387V443H352V408Z" stroke="#020203" stroke-miterlimit="100"/>
	<path d="M387 408H422V443H387V408Z" stroke="#020203" stroke-miterlimit="100"/>
	<path d="M177 338H142V373H177V338Z" stroke="#020203" stroke-miterlimit="100"/>
	<path d="M142 303H177V338H142V303Z" stroke="#020203" stroke-miterlimit="100"/>
	<path d="M142 268H177V303H142V268Z" stroke="#020203" stroke-miterlimit="100"/>
	<path d="M142 373H177V408H142V373Z" stroke="#020203" stroke-miterlimit="100"/>
	<path d="M212 338H247V373H212V338Z" stroke="#020203" stroke-miterlimit="100"/>
	<path d="M247 373H212V408H247V373Z" stroke="#020203" stroke-miterlimit="100"/>
	<path d="M212 583H247V618H212V583Z" stroke="#020203" stroke-miterlimit="100"/>
	<path d="M247 618H212V653H247V618Z" stroke="#020203" stroke-miterlimit="100"/>
	<path d="M212 548H247V583H212C212 582.99 212 548 212 548Z" stroke="#020203" stroke-miterlimit="100"/>
	<path d="M212 513H247V548H212V513Z" stroke="#020203" stroke-miterlimit="100"/>
	<path d="M247 478H212V513H247V478Z" stroke="#020203" stroke-miterlimit="100"/>
	<path d="M212 443H247V478H212V443Z" stroke="#020203" stroke-miterlimit="100"/>
	<path d="M282 478H317V513H282V478Z" stroke="#020203" stroke-miterlimit="100"/>
	<path d="M282 478H247V513H282V478Z" stroke="#020203" stroke-miterlimit="100"/>
	<path d="M177 478H212V513H177V478Z" stroke="#020203" stroke-miterlimit="100"/>
	<path d="M142 548H177V583H142V548Z" stroke="#020203" stroke-miterlimit="100"/>
	<path d="M212 548H177V583H212V548Z" stroke="#020203" stroke-miterlimit="100"/>
	<path d="M352 548H387V583H352V548Z" stroke="#020203" stroke-miterlimit="100"/>
	<path d="M317 548H352V583H317V548Z" stroke="#020203" stroke-miterlimit="100"/>
	<path d="M317 548H282V583H317V548Z" stroke="#020203" stroke-miterlimit="100"/>
	<path d="M247 548H282V583H247V548Z" stroke="#020203" stroke-miterlimit="100"/>
	<path d="M352 513H387V548H352V513Z" stroke="#020203" stroke-miterlimit="100"/>
	<path d="M387 723H352V758H387V723Z" stroke="#020203" stroke-miterlimit="100"/>
	<path d="M352 688H387V723H352V688Z" stroke="#020203" stroke-miterlimit="100"/>
	<path d="M352 653H387V688H352V653Z" stroke="#020203" stroke-miterlimit="100"/>
	<path d="M387 618H352V653H387V618Z" stroke="#020203" stroke-miterlimit="100"/>
	<path d="M352 583H387V618H352V583Z" stroke="#020203" stroke-miterlimit="100"/>
	<path d="M142 583H177V618H142V583Z" stroke="#020203" stroke-miterlimit="100"/>
	<path d="M177 618H142V653H177V618Z" stroke="#020203" stroke-miterlimit="100"/>
	<path d="M142 653H177V688H142V653Z" stroke="#020203" stroke-miterlimit="100"/>
	<path d="M142 688H177V723H142V688Z" stroke="#020203" stroke-miterlimit="100"/>
	<path d="M177 723H142V758H177V723Z" stroke="#020203" stroke-miterlimit="100"/>
	<path d="M177 723H212V758H177V723Z" stroke="#020203" stroke-miterlimit="100"/>
	<path d="M212 723H247V758H212V723Z" stroke="#020203" stroke-miterlimit="100"/>
	<path d="M142 723H107V758H142V723Z" stroke="#020203" stroke-miterlimit="100"/>
	<path d="M72 723H107V758H72V723Z" stroke="#020203" stroke-miterlimit="100"/>
	<path d="M37 723H72V758H37V723Z" stroke="#020203" stroke-miterlimit="100"/>
	<path d="M107 758H72V793H107V758Z" stroke="#020203" stroke-miterlimit="100"/>
	<path d="M72 688H107V723H72V688Z" stroke="#020203" stroke-miterlimit="100"/>
	<path d="M72 653H107V688H72V653Z" stroke="#020203" stroke-miterlimit="100"/>
	<path d="M107 618H72V653H107V618Z" stroke="#020203" stroke-miterlimit="100"/>
	<path d="M317 618H352V653H317V618Z" stroke="#020203" stroke-miterlimit="100"/>
	<path d="M527 618H562V653H527V618Z" stroke="#020203" stroke-miterlimit="100"/>
	<path d="M527 618H492V653H527V618Z" stroke="#020203" stroke-miterlimit="100"/>
	<path d="M457 618H492V653H457V618Z" stroke="#020203" stroke-miterlimit="100"/>
	<path d="M422 618H457V653H422V618Z" stroke="#020203" stroke-miterlimit="100"/>
	<path d="M422 618H387V653H422V618Z" stroke="#020203" stroke-miterlimit="100"/>
	<path d="M457 548H492V583H457V548Z" stroke="#020203" stroke-miterlimit="100"/>
	<path d="M457 583H492V618H457V583Z" stroke="#020203" stroke-miterlimit="100"/>
	<path d="M492 688H457V723H492V688Z" stroke="#020203" stroke-miterlimit="100"/>
	<path d="M457 653H492V688H457V653Z" stroke="#020203" stroke-miterlimit="100"/>
	<path d="M352 443H387V478H352V443Z" stroke="#020203" stroke-miterlimit="100"/>
	<path d="M387 373H352V408H387V373Z" stroke="#020203" stroke-miterlimit="100"/>
	<path d="M352 338H387V373H352V338Z" stroke="#020203" stroke-miterlimit="100"/>
	<path d="M352 303H387V338H352V303Z" stroke="#020203" stroke-miterlimit="100"/>
	<path d="M492 338H457V373H492V338Z" stroke="#020203" stroke-miterlimit="100"/>
	<path d="M422 338H457V373H422V338Z" stroke="#020203" stroke-miterlimit="100"/>
	<path d="M387 338H422V373H387V338Z" stroke="#020203" stroke-miterlimit="100"/>
	<path d="M492 233H457V268H492V233Z" stroke="#020203" stroke-miterlimit="100"/>
	<path d="M457 268H492V303H457V268Z" stroke="#020203" stroke-miterlimit="100"/>
	<path d="M457 303H492V338H457V303Z" stroke="#020203" stroke-miterlimit="100"/>
	<path d="M492 373H457V408H492V373Z" stroke="#020203" stroke-miterlimit="100"/>
	<path d="M422 233H457V268H422V233Z" stroke="#020203" stroke-miterlimit="100"/>
	<path d="M387 233H422V268H387V233Z" stroke="#020203" stroke-miterlimit="100"/>
	<path d="M387 233H352V268H387V233Z" stroke="#020203" stroke-miterlimit="100"/>
	<path d="M387 268H422V303H387V268Z" stroke="#020203" stroke-miterlimit="100"/>
	<path d="M387 58H422V93H387V58Z" stroke="#020203" stroke-miterlimit="100"/>
	<path d="M387 93H422V128H387V93Z" stroke="#020203" stroke-miterlimit="100"/>
	<path d="M387 128H422V163H387V128Z" stroke="#020203" stroke-miterlimit="100"/>
	<path d="M387 163H422V198H387V163Z" stroke="#020203" stroke-miterlimit="100"/>
	<path d="M422 198H387V233H422V198Z" stroke="#020203" stroke-miterlimit="100"/>
	<path d="M39.44 421V419.688H42.608V410.52L39.44 412.888V411.288L42.08 409.32H44.048V419.688H46.64V421H39.44Z" fill="#020203"/>
	<path d="M147.624 282.16C146.92 282.16 146.301 282.021 145.768 281.744C145.245 281.456 144.84 281.061 144.552 280.56C144.264 280.059 144.12 279.472 144.12 278.8H145.56C145.56 279.451 145.741 279.963 146.104 280.336C146.477 280.699 146.989 280.88 147.64 280.88C148.301 280.88 148.813 280.688 149.176 280.304C149.539 279.92 149.72 279.419 149.72 278.8V277.968C149.72 277.307 149.539 276.795 149.176 276.432C148.813 276.069 148.301 275.888 147.64 275.888H146.44V274.448L149.336 271.632H144.6V270.32H150.792V271.76L147.672 274.784V274.608C148.739 274.608 149.587 274.912 150.216 275.52C150.845 276.128 151.16 276.944 151.16 277.968V278.8C151.16 279.472 151.011 280.059 150.712 280.56C150.424 281.061 150.013 281.456 149.48 281.744C148.947 282.021 148.328 282.16 147.624 282.16Z" fill="#020203"/>
	<path d="M219.07 351V348.44H213.79V346.184L218.414 339.32H219.982L215.23 346.488V347.128H219.07V344.28H220.51V351H219.07Z" fill="#020203"/>
	<path d="M77.768 632.16C76.8187 632.16 76.04 631.915 75.432 631.424C74.824 630.933 74.4667 630.272 74.36 629.44H75.8C75.8533 629.899 76.0507 630.256 76.392 630.512C76.7333 630.757 77.1973 630.88 77.784 630.88C78.456 630.88 78.9573 630.699 79.288 630.336C79.6293 629.973 79.8 629.461 79.8 628.8V627.664C79.8 627.003 79.6293 626.491 79.288 626.128C78.9573 625.765 78.4613 625.584 77.8 625.584C77.384 625.584 77.0213 625.696 76.712 625.92C76.4027 626.133 76.1787 626.421 76.04 626.784H74.6L74.68 620.32H80.824V621.632H76.072L76.024 625.52H76.472L76.024 625.936C76.024 625.435 76.2213 625.04 76.616 624.752C77.0213 624.464 77.56 624.32 78.232 624.32C79.1813 624.309 79.9173 624.603 80.44 625.2C80.9733 625.787 81.24 626.608 81.24 627.664V628.8C81.24 629.835 80.936 630.656 80.328 631.264C79.72 631.861 78.8667 632.16 77.768 632.16Z" fill="#020203"/>
	<path d="M147.816 562.16C147.069 562.16 146.413 562.005 145.848 561.696C145.293 561.376 144.861 560.933 144.552 560.368C144.243 559.803 144.088 559.147 144.088 558.4C144.088 557.813 144.168 557.237 144.328 556.672C144.499 556.107 144.749 555.563 145.08 555.04L148.008 550.32H149.608L146.296 555.632L146.36 555.68C146.563 555.381 146.84 555.152 147.192 554.992C147.544 554.832 147.939 554.752 148.376 554.752C149.016 554.752 149.571 554.901 150.04 555.2C150.509 555.499 150.872 555.92 151.128 556.464C151.384 557.008 151.512 557.653 151.512 558.4C151.512 559.147 151.357 559.803 151.048 560.368C150.739 560.933 150.307 561.376 149.752 561.696C149.208 562.005 148.563 562.16 147.816 562.16ZM147.8 560.88C148.483 560.88 149.032 560.656 149.448 560.208C149.864 559.749 150.072 559.147 150.072 558.4C150.072 557.653 149.864 557.056 149.448 556.608C149.032 556.149 148.483 555.92 147.8 555.92C147.117 555.92 146.568 556.149 146.152 556.608C145.736 557.056 145.528 557.653 145.528 558.4C145.528 559.147 145.736 559.749 146.152 560.208C146.568 560.656 147.117 560.88 147.8 560.88Z" fill="#020203"/>
	<path d="M180.96 492L185.136 481.632H180.72V483.36H179.28V480.32H186.56V481.728L182.512 492H180.96Z" fill="#020203"/>
	<path d="M357.8 317.16C357.085 317.16 356.461 317.037 355.928 316.792C355.405 316.536 355 316.173 354.712 315.704C354.424 315.235 354.28 314.685 354.28 314.056C354.28 313.363 354.467 312.765 354.84 312.264C355.224 311.763 355.827 311.315 356.648 310.92L358.2 310.168C358.669 309.944 359.032 309.651 359.288 309.288C359.544 308.925 359.672 308.525 359.672 308.088C359.672 307.576 359.501 307.171 359.16 306.872C358.829 306.573 358.376 306.424 357.8 306.424C357.224 306.424 356.765 306.579 356.424 306.888C356.093 307.187 355.928 307.592 355.928 308.104C355.928 308.531 356.051 308.925 356.296 309.288C356.552 309.651 356.899 309.939 357.336 310.152L358.888 310.888C359.741 311.283 360.36 311.736 360.744 312.248C361.128 312.749 361.32 313.352 361.32 314.056C361.32 315.005 361 315.763 360.36 316.328C359.731 316.883 358.877 317.16 357.8 317.16ZM357.8 315.88C358.451 315.88 358.963 315.715 359.336 315.384C359.72 315.043 359.912 314.589 359.912 314.024C359.912 313.565 359.789 313.149 359.544 312.776C359.299 312.403 358.947 312.104 358.488 311.88L356.952 311.128C356.099 310.712 355.48 310.264 355.096 309.784C354.712 309.304 354.52 308.728 354.52 308.056C354.52 307.459 354.653 306.941 354.92 306.504C355.187 306.067 355.565 305.731 356.056 305.496C356.547 305.261 357.128 305.144 357.8 305.144C358.472 305.144 359.053 305.261 359.544 305.496C360.035 305.731 360.413 306.067 360.68 306.504C360.947 306.941 361.08 307.459 361.08 308.056C361.08 308.728 360.888 309.304 360.504 309.784C360.12 310.253 359.485 310.707 358.6 311.144L357.064 311.896C356.627 312.109 356.285 312.403 356.04 312.776C355.805 313.139 355.688 313.544 355.688 313.992C355.688 314.568 355.875 315.027 356.248 315.368C356.632 315.709 357.149 315.88 357.8 315.88Z" fill="#020203"/>
	<path d="M355.992 352L359.304 346.688L359.24 346.64C359.037 346.939 358.76 347.168 358.408 347.328C358.056 347.488 357.661 347.568 357.224 347.568C356.595 347.568 356.04 347.419 355.56 347.12C355.091 346.821 354.728 346.4 354.472 345.856C354.216 345.301 354.088 344.656 354.088 343.92C354.088 343.163 354.243 342.507 354.552 341.952C354.861 341.387 355.293 340.949 355.848 340.64C356.403 340.32 357.048 340.16 357.784 340.16C358.531 340.16 359.181 340.32 359.736 340.64C360.301 340.949 360.739 341.387 361.048 341.952C361.357 342.507 361.512 343.163 361.512 343.92C361.512 344.507 361.427 345.083 361.256 345.648C361.096 346.213 360.851 346.757 360.52 347.28L357.592 352H355.992ZM357.8 346.4C358.483 346.4 359.032 346.176 359.448 345.728C359.864 345.269 360.072 344.667 360.072 343.92C360.072 343.173 359.864 342.576 359.448 342.128C359.032 341.669 358.483 341.44 357.8 341.44C357.117 341.44 356.568 341.669 356.152 342.128C355.736 342.576 355.528 343.173 355.528 343.92C355.528 344.667 355.736 345.269 356.152 345.728C356.568 346.176 357.117 346.4 357.8 346.4Z" fill="#020203"/>
	<path d="M353.98 247.68V246.368H357.148V237.2L353.98 239.568V237.968L356.62 236H358.588V246.368H361.18V247.68H353.98ZM366.934 247.84C366.219 247.84 365.595 247.701 365.062 247.424C364.539 247.136 364.134 246.736 363.846 246.224C363.558 245.701 363.414 245.093 363.414 244.4V239.28C363.414 238.576 363.558 237.968 363.846 237.456C364.134 236.944 364.539 236.549 365.062 236.272C365.595 235.984 366.219 235.84 366.934 235.84C367.659 235.84 368.283 235.984 368.806 236.272C369.328 236.549 369.734 236.944 370.022 237.456C370.31 237.968 370.454 238.576 370.454 239.28V244.4C370.454 245.093 370.31 245.701 370.022 246.224C369.734 246.736 369.323 247.136 368.79 247.424C368.267 247.701 367.648 247.84 366.934 247.84ZM366.934 246.608C367.574 246.608 368.086 246.405 368.47 246C368.864 245.584 369.062 245.051 369.062 244.4V239.28C369.062 238.629 368.864 238.101 368.47 237.696C368.086 237.28 367.574 237.072 366.934 237.072C366.294 237.072 365.776 237.28 365.382 237.696C364.998 238.101 364.806 238.629 364.806 239.28V244.4C364.806 245.051 364.998 245.584 365.382 246C365.776 246.405 366.294 246.608 366.934 246.608ZM366.934 242.784C366.646 242.784 366.411 242.693 366.23 242.512C366.059 242.331 365.974 242.091 365.974 241.792C365.974 241.504 366.059 241.275 366.23 241.104C366.411 240.923 366.646 240.832 366.934 240.832C367.222 240.832 367.451 240.923 367.622 241.104C367.803 241.275 367.894 241.504 367.894 241.792C367.894 242.091 367.803 242.331 367.622 242.512C367.451 242.693 367.222 242.784 366.934 242.784Z" fill="black"/>
	<path d="M389.44 72V70.688H392.608V61.52L389.44 63.888V62.288L392.08 60.32H394.048V70.688H396.64V72H389.44ZM399.034 72V70.688H402.202V61.52L399.034 63.888V62.288L401.674 60.32H403.642V70.688H406.234V72H399.034Z" fill="#020203"/>
	<path d="M459.44 247V245.688H462.608V236.52L459.44 238.888V237.288L462.08 235.32H464.048V245.688H466.64V247H459.44ZM469.066 247V245.528L472.634 241.736C473.242 241.085 473.684 240.509 473.962 240.008C474.239 239.496 474.378 239.005 474.378 238.536C474.378 237.885 474.196 237.373 473.834 237C473.482 236.627 472.996 236.44 472.378 236.44C471.695 236.44 471.156 236.632 470.762 237.016C470.378 237.4 470.186 237.928 470.186 238.6H468.746C468.767 237.896 468.927 237.288 469.226 236.776C469.535 236.253 469.956 235.853 470.49 235.576C471.034 235.299 471.663 235.16 472.378 235.16C473.082 235.16 473.69 235.299 474.202 235.576C474.724 235.843 475.124 236.227 475.402 236.728C475.679 237.229 475.818 237.827 475.818 238.52C475.818 239.181 475.642 239.837 475.29 240.488C474.938 241.139 474.362 241.88 473.562 242.712L470.682 245.688H476.01V247H469.066Z" fill="#020203"/>
	<path d="M39.44 737V735.688H42.608V726.52L39.44 728.888V727.288L42.08 725.32H44.048V735.688H46.64V737H39.44ZM52.2178 737.16C51.5138 737.16 50.8951 737.021 50.3618 736.744C49.8391 736.456 49.4338 736.061 49.1458 735.56C48.8578 735.059 48.7138 734.472 48.7138 733.8H50.1538C50.1538 734.451 50.3351 734.963 50.6978 735.336C51.0711 735.699 51.5831 735.88 52.2338 735.88C52.8951 735.88 53.4071 735.688 53.7698 735.304C54.1324 734.92 54.3138 734.419 54.3138 733.8V732.968C54.3138 732.307 54.1324 731.795 53.7698 731.432C53.4071 731.069 52.8951 730.888 52.2338 730.888H51.0338V729.448L53.9298 726.632H49.1938V725.32H55.3858V726.76L52.2658 729.784V729.608C53.3324 729.608 54.1804 729.912 54.8098 730.52C55.4391 731.128 55.7538 731.944 55.7538 732.968V733.8C55.7538 734.472 55.6044 735.059 55.3058 735.56C55.0178 736.061 54.6071 736.456 54.0738 736.744C53.5404 737.021 52.9218 737.16 52.2178 737.16Z" fill="#020203"/>
	<path d="M354.44 527V525.688H357.608V516.52L354.44 518.888V517.288L357.08 515.32H359.048V525.688H361.64V527H354.44ZM369.154 527V524.44H363.874V522.184L368.498 515.32H370.066L365.314 522.488V523.128H369.154V520.28H370.594V527H369.154Z" fill="#020203"/>
	<path d="M319.44 632V630.688H322.608V621.52L319.44 623.888V622.288L322.08 620.32H324.048V630.688H326.64V632H319.44ZM332.362 632.16C331.412 632.16 330.634 631.915 330.026 631.424C329.418 630.933 329.06 630.272 328.954 629.44H330.394C330.447 629.899 330.644 630.256 330.986 630.512C331.327 630.757 331.791 630.88 332.378 630.88C333.05 630.88 333.551 630.699 333.882 630.336C334.223 629.973 334.394 629.461 334.394 628.8V627.664C334.394 627.003 334.223 626.491 333.882 626.128C333.551 625.765 333.055 625.584 332.394 625.584C331.978 625.584 331.615 625.696 331.306 625.92C330.996 626.133 330.772 626.421 330.634 626.784H329.194L329.274 620.32H335.418V621.632H330.666L330.618 625.52H331.066L330.618 625.936C330.618 625.435 330.815 625.04 331.21 624.752C331.615 624.464 332.154 624.32 332.826 624.32C333.775 624.309 334.511 624.603 335.034 625.2C335.567 625.787 335.834 626.608 335.834 627.664V628.8C335.834 629.835 335.53 630.656 334.922 631.264C334.314 631.861 333.46 632.16 332.362 632.16Z" fill="#020203"/>
	<path d="M458.968 561.276V559.964H462.136V550.796L458.968 553.164V551.564L461.608 549.596H463.576V559.964H466.168V561.276H458.968ZM471.938 561.436C471.191 561.436 470.535 561.282 469.97 560.972C469.415 560.652 468.983 560.21 468.674 559.644C468.364 559.079 468.21 558.423 468.21 557.676C468.21 557.09 468.29 556.514 468.45 555.948C468.62 555.383 468.871 554.839 469.202 554.316L472.13 549.596H473.73L470.418 554.908L470.482 554.956C470.684 554.658 470.962 554.428 471.314 554.268C471.666 554.108 472.06 554.028 472.498 554.028C473.138 554.028 473.692 554.178 474.162 554.476C474.631 554.775 474.994 555.196 475.25 555.74C475.506 556.284 475.634 556.93 475.634 557.676C475.634 558.423 475.479 559.079 475.17 559.644C474.86 560.21 474.428 560.652 473.874 560.972C473.33 561.282 472.684 561.436 471.938 561.436ZM471.922 560.156C472.604 560.156 473.154 559.932 473.57 559.484C473.986 559.026 474.194 558.423 474.194 557.676C474.194 556.93 473.986 556.332 473.57 555.884C473.154 555.426 472.604 555.196 471.922 555.196C471.239 555.196 470.69 555.426 470.274 555.884C469.858 556.332 469.65 556.93 469.65 557.676C469.65 558.423 469.858 559.026 470.274 559.484C470.69 559.932 471.239 560.156 471.922 560.156Z" fill="#020203"/>
	<path d="M37 373H72V408H37V373Z" stroke="#020203" stroke-miterlimit="100"/>
	<path d="M37 443H72V478H37V443Z" stroke="#020203" stroke-miterlimit="100"/>
	<path d="M39.472 387V385.528L43.04 381.736C43.648 381.085 44.0907 380.509 44.368 380.008C44.6453 379.496 44.784 379.005 44.784 378.536C44.784 377.885 44.6027 377.373 44.24 377C43.888 376.627 43.4027 376.44 42.784 376.44C42.1013 376.44 41.5627 376.632 41.168 377.016C40.784 377.4 40.592 377.928 40.592 378.6H39.152C39.1733 377.896 39.3333 377.288 39.632 376.776C39.9413 376.253 40.3627 375.853 40.896 375.576C41.44 375.299 42.0693 375.16 42.784 375.16C43.488 375.16 44.096 375.299 44.608 375.576C45.1307 375.843 45.5307 376.227 45.808 376.728C46.0853 377.229 46.224 377.827 46.224 378.52C46.224 379.181 46.048 379.837 45.696 380.488C45.344 381.139 44.768 381.88 43.968 382.712L41.088 385.688H46.416V387H39.472Z" fill="#020203"/>
	<path d="M37 478H72V513H37V478Z" stroke="#020203" stroke-miterlimit="100"/>
	<path d="M37 513H72V548H37V513Z" stroke="#020203" stroke-miterlimit="100"/>
</svg>
