<?xml version="1.0" encoding="utf-8"?>
<!-- Generator: Adobe Illustrator 25.4.1, SVG Export Plug-In . SVG Version: 6.00 Build 0)  -->
<svg version="1.1" id="клетки_00000160887596765945213960000004127051180381490821_"
	 xmlns="http://www.w3.org/2000/svg" xmlns:xlink="http://www.w3.org/1999/xlink" x="0px" y="0px" viewBox="0 0 471 333"
	 style="enable-background:new 0 0 471 333;" xml:space="preserve">
<style type="text/css">
	.st0{fill:none;stroke:#000000;stroke-miterlimit:100;}
	.st1{font-family:'MyriadPro-Regular';}
	.st2{font-size:8px;}
</style>
<g id="Фигура_1_копия">
	<g>
		<path class="st0" d="M216.15,90.4v15.55h20.33V90.4H216.15z"/>
	</g>
</g>
<g id="Фигура_1_копия_00000174571746100171257590000012371055300331670179_">
	<g>
		<path class="st0" d="M236.48,43.76v15.55h20.33V43.76H236.48z"/>
	</g>
</g>
<g id="Фигура_1_копия_00000101804891929196462470000007189217305833817759_">
	<g>
		<rect x="216.15" y="43.76" class="st0" width="20.33" height="15.55"/>
	</g>
</g>
<g id="Фигура_1">
	<g>
		<path class="st0" d="M195.82,43.76v15.55h20.33V43.76H195.82z"/>
	</g>
</g>
<g id="Фигура_1_копия_00000113340303270347268110000000157199895450652545_">
	<g>
		<path class="st0" d="M256.81,43.76v15.55h20.33V43.76H256.81z"/>
	</g>
</g>
<g id="Фигура_1_копия_00000095311318650870301330000007409591697646835847_">
	<g>
		<rect x="216.15" y="59.31" class="st0" width="20.33" height="15.55"/>
	</g>
</g>
<g id="Фигура_1_копия_00000119816732341859939710000000382316592509114303_">
	<g>
		<path class="st0" d="M216.15,74.85V90.4h20.33V74.85H216.15z"/>
	</g>
</g>
<g id="Фигура_1_копия_00000055668236136052463770000009698882896814355848_">
	<g>
		<path class="st0" d="M216.15,105.94v15.55h20.33v-15.55H216.15z"/>
	</g>
</g>
<g id="Фигура_1_копия_00000173845206631170441790000000136534278191751312_">
	<g>
		<rect x="216.15" y="121.49" class="st0" width="20.33" height="15.55"/>
	</g>
</g>
<g id="Фигура_1_копия_00000178913319410870760870000012537500897569955758_">
	<g>
		<path class="st0" d="M216.15,137.03v15.55h20.33v-15.55H216.15z"/>
	</g>
</g>
<g id="Фигура_1_копия_00000012472973145518954160000001460250811485556895_">
	<g>
		<path class="st0" d="M216.15,152.58v15.55h20.33v-15.55H216.15z"/>
	</g>
</g>
<g id="Фигура_1_копия_00000147211426561074563980000008336017500934910885_">
	<g>
		<rect x="216.15" y="168.12" class="st0" width="20.33" height="15.55"/>
	</g>
</g>
<g id="Фигура_1_копия_00000101089890612137699590000004045305755795191211_">
	<g>
		<path class="st0" d="M216.15,183.67v15.55h20.33v-15.55H216.15z"/>
	</g>
</g>
<g id="Фигура_1_копия_00000160902055272841686110000001619062927520543921_">
	<g>
		<path class="st0" d="M216.15,199.22v15.55h20.33v-15.55H216.15z"/>
	</g>
</g>
<g id="Фигура_1_копия_00000132779451306430458640000004724060338047461032_">
	<g>
		<rect x="195.82" y="90.4" class="st0" width="20.33" height="15.55"/>
	</g>
</g>
<g id="Фигура_1_копия_00000155121218821619593440000006634762681467615149_">
	<g>
		<path class="st0" d="M175.49,90.4v15.55h20.33V90.4H175.49z"/>
	</g>
</g>
<g id="Фигура_1_копия_00000057843284894314676340000013798263499820987520_">
	<g>
		<path class="st0" d="M155.16,90.4v15.55h20.33V90.4H155.16z"/>
	</g>
</g>
<g id="Фигура_1_копия_00000152963959899289891930000012913537968666320790_">
	<g>
		<rect x="134.83" y="90.4" class="st0" width="20.33" height="15.55"/>
	</g>
</g>
<g id="Фигура_1_копия_00000118366149149938471520000010718658999973661623_">
	<g>
		<path class="st0" d="M236.48,90.4v15.55h20.33V90.4H236.48z"/>
	</g>
</g>
<g id="Фигура_1_копия_00000166649082529030220260000007080163184515063945_">
	<g>
		<path class="st0" d="M175.49,121.49v15.55h20.33v-15.55H175.49z"/>
	</g>
</g>
<g id="Фигура_1_копия_00000029036939221543678960000005211771399143013761_">
	<g>
		<rect x="195.82" y="121.49" class="st0" width="20.33" height="15.55"/>
	</g>
</g>
<g id="Фигура_1_копия_00000021092495835895808650000011257768704917510302_">
	<g>
		<path class="st0" d="M317.79,121.49v15.55h20.33v-15.55H317.79z"/>
	</g>
</g>
<g id="Фигура_1_копия_00000034808406020667768060000010255628367050588590_">
	<g>
		<path class="st0" d="M317.79,121.49v15.55h20.33v-15.55H317.79z"/>
	</g>
</g>
<g id="Фигура_1_копия_00000040555856946499947510000000387288857563002019_">
	<g>
		<rect x="338.12" y="121.49" class="st0" width="20.33" height="15.55"/>
	</g>
</g>
<g id="Фигура_1_копия_00000138575396166119310480000008347163743398651810_">
	<g>
		<path class="st0" d="M297.46,121.49v15.55h20.33v-15.55H297.46z"/>
	</g>
</g>
<g id="Фигура_1_копия_00000167393930018188405500000009038418706464491147_">
	<g>
		<path class="st0" d="M277.13,121.49v15.55h20.33v-15.55H277.13z"/>
	</g>
</g>
<g id="Фигура_1_копия_00000028283183054323756940000012136509005034883253_">
	<g>
		<rect x="256.81" y="121.49" class="st0" width="20.33" height="15.55"/>
	</g>
</g>
<g id="Фигура_1_копия_00000000907123333050847380000011088204785317307565_">
	<g>
		<path class="st0" d="M236.48,121.49v15.55h20.33v-15.55H236.48z"/>
	</g>
</g>
<g id="Фигура_1_копия_00000147928226745814115260000012117658233165040047_">
	<g>
		<path class="st0" d="M256.81,152.58v15.55h20.33v-15.55H256.81z"/>
	</g>
</g>
<g id="Фигура_1_копия_00000147182745473780013120000010124129639489815681_">
	<g>
		<rect x="256.81" y="137.03" class="st0" width="20.33" height="15.55"/>
	</g>
</g>
<g id="Фигура_1_копия_00000106830357862941282900000003155153439032234935_">
	<g>
		<path class="st0" d="M256.81,105.94v15.55h20.33v-15.55H256.81z"/>
	</g>
</g>
<g id="Фигура_1_копия_00000054240900618212605660000002413749820582798770_">
	<g>
		<path class="st0" d="M297.46,90.4v15.55h20.33V90.4H297.46z"/>
	</g>
</g>
<g id="Фигура_1_копия_00000066483459441428980920000007413234606925175957_">
	<g>
		<rect x="297.46" y="105.94" class="st0" width="20.33" height="15.55"/>
	</g>
</g>
<g id="Фигура_1_копия_00000120532989730939518150000002321709672258616463_">
	<g>
		<path class="st0" d="M297.46,183.67v15.55h20.33v-15.55H297.46z"/>
	</g>
</g>
<g id="Фигура_1_копия_00000091723559519025542900000000652103223504398728_">
	<g>
		<path class="st0" d="M297.46,168.12v15.55h20.33v-15.55H297.46z"/>
	</g>
</g>
<g id="Фигура_1_копия_00000119117041807969405280000016551684251948422561_">
	<g>
		<rect x="297.46" y="152.58" class="st0" width="20.33" height="15.55"/>
	</g>
</g>
<g id="Фигура_1_копия_00000047747314948176443620000012796448505983155355_">
	<g>
		<path class="st0" d="M297.46,137.03v15.55h20.33v-15.55H297.46z"/>
	</g>
</g>
<g id="Фигура_1_копия_00000093858885613544095780000008338811239262327441_">
	<g>
		<path class="st0" d="M277.13,183.67v15.55h20.33v-15.55H277.13z"/>
	</g>
</g>
<g id="Фигура_1_копия_00000137090868883701536570000003377659446632912796_">
	<g>
		<rect x="399.11" y="183.67" class="st0" width="20.33" height="15.55"/>
	</g>
</g>
<g id="Фигура_1_копия_00000142149647236251780400000016473448928472290494_">
	<g>
		<path class="st0" d="M378.78,183.67v15.55h20.33v-15.55H378.78z"/>
	</g>
</g>
<g id="Фигура_1_копия_00000005970142043588224250000010579845639687793853_">
	<g>
		<path class="st0" d="M358.45,183.67v15.55h20.33v-15.55H358.45z"/>
	</g>
</g>
<g id="Фигура_1_копия_00000142872241368252173580000014816149698295370129_">
	<g>
		<rect x="338.12" y="183.67" class="st0" width="20.33" height="15.55"/>
	</g>
</g>
<g id="Фигура_1_копия_00000070086681196241812260000003023677962924053128_">
	<g>
		<path class="st0" d="M317.79,183.67v15.55h20.33v-15.55H317.79z"/>
	</g>
</g>
<g id="Фигура_1_копия_00000061444518000701249440000006381399770868482203_">
	<g>
		<path class="st0" d="M317.79,90.4v15.55h20.33V90.4H317.79z"/>
	</g>
</g>
<g id="Фигура_1_копия_00000106845334250767772570000007062235866364027324_">
	<g>
		<rect x="338.12" y="90.4" class="st0" width="20.33" height="15.55"/>
	</g>
</g>
<g id="Фигура_1_копия_00000080909488088616096140000012813842055705646475_">
	<g>
		<path class="st0" d="M358.45,90.4v15.55h20.33V90.4H358.45z"/>
	</g>
</g>
<g id="Фигура_1_копия_00000046321658351675926420000009794683160418485676_">
	<g>
		<path class="st0" d="M378.78,90.4v15.55h20.33V90.4H378.78z"/>
	</g>
</g>
<g id="Фигура_1_копия_00000128453585826583299040000017122421772512999598_">
	<g>
		<rect x="399.11" y="90.4" class="st0" width="20.33" height="15.55"/>
	</g>
</g>
<g id="Фигура_1_копия_00000020385769842325243750000015107876040266753702_">
	<g>
		<path class="st0" d="M399.11,105.94v15.55h20.33v-15.55H399.11z"/>
	</g>
</g>
<g id="Фигура_1_копия_00000089538696117590318680000002460652804815525044_">
	<g>
		<path class="st0" d="M399.11,121.49v15.55h20.33v-15.55H399.11z"/>
	</g>
</g>
<g id="Фигура_1_копия_00000121976124497619506750000006780445671532021657_">
	<g>
		<rect x="399.11" y="74.85" class="st0" width="20.33" height="15.55"/>
	</g>
</g>
<g id="Фигура_1_копия_00000121998277562375276790000005944642981579362227_">
	<g>
		<path class="st0" d="M399.11,59.31v15.55h20.33V59.31H399.11z"/>
	</g>
</g>
<g id="Фигура_1_копия_00000059988768673117046750000015447479397708568457_">
	<g>
		<path class="st0" d="M399.11,43.76v15.55h20.33V43.76H399.11z"/>
	</g>
</g>
<g id="Фигура_1_копия_00000091698523251181100820000000814871739889082002_">
	<g>
		<rect x="419.44" y="59.31" class="st0" width="20.33" height="15.55"/>
	</g>
</g>
<g id="Фигура_1_копия_00000108304035851636909030000010355608107551084172_">
	<g>
		<path class="st0" d="M378.78,59.31v15.55h20.33V59.31H378.78z"/>
	</g>
</g>
<g id="Фигура_1_копия_00000058567284384462189230000008233653760725667991_">
	<g>
		<path class="st0" d="M358.45,59.31v15.55h20.33V59.31H358.45z"/>
	</g>
</g>
<g id="Фигура_1_копия_00000045617768035495480030000017863485643584519848_">
	<g>
		<rect x="338.12" y="59.31" class="st0" width="20.33" height="15.55"/>
	</g>
</g>
<g id="Фигура_1_копия_00000040554943807518508750000008692272639984149383_">
	<g>
		<path class="st0" d="M338.12,168.12v15.55h20.33v-15.55H338.12z"/>
	</g>
</g>
<g id="Фигура_1_копия_00000106124694970027297650000011602331022882004914_">
	<g>
		<path class="st0" d="M338.12,261.4v15.55h20.33V261.4H338.12z"/>
	</g>
</g>
<g id="Фигура_1_копия_00000066497487159204789830000015652721034770192308_">
	<g>
		<rect x="338.12" y="245.85" class="st0" width="20.33" height="15.55"/>
	</g>
</g>
<g id="Фигура_1_копия_00000169550339975716819230000013836042520822889363_">
	<g>
		<path class="st0" d="M338.12,230.31v15.55h20.33v-15.55H338.12z"/>
	</g>
</g>
<g id="Фигура_1_копия_00000133508629254016528800000016045415695650427543_">
	<g>
		<path class="st0" d="M338.12,214.76v15.55h20.33v-15.55H338.12z"/>
	</g>
</g>
<g id="Фигура_1_копия_00000174593125646755038820000015166090052477319838_">
	<g>
		<rect x="338.12" y="199.22" class="st0" width="20.33" height="15.55"/>
	</g>
</g>
<g id="Фигура_1_копия_00000078005129580368580500000005503495814101773973_">
	<g>
		<path class="st0" d="M297.46,230.31v15.55h20.33v-15.55H297.46z"/>
	</g>
</g>
<g id="Фигура_1_копия_00000133511159070317828520000009821680504810228100_">
	<g>
		<path class="st0" d="M317.79,230.31v15.55h20.33v-15.55H317.79z"/>
	</g>
</g>
<g id="Фигура_1_копия_00000119796431703175849860000016347136012679261093_">
	<g>
		<rect x="378.78" y="230.31" class="st0" width="20.33" height="15.55"/>
	</g>
</g>
<g id="Фигура_1_копия_00000142883085757020240050000013968847488227573655_">
	<g>
		<path class="st0" d="M358.45,230.31v15.55h20.33v-15.55H358.45z"/>
	</g>
</g>
<g id="Фигура_1_копия_00000093891342506487082110000011435074852238085817_">
	<g>
		<path class="st0" d="M236.48,183.67v15.55h20.33v-15.55H236.48z"/>
	</g>
</g>
<g id="Фигура_1_копия_00000022554041407086873200000016956856945194596019_">
	<g>
		<rect x="195.82" y="183.67" class="st0" width="20.33" height="15.55"/>
	</g>
</g>
<g id="Фигура_1_копия_00000000211877149685111920000016165506004093408167_">
	<g>
		<path class="st0" d="M175.49,183.67v15.55h20.33v-15.55H175.49z"/>
	</g>
</g>
<g id="Фигура_1_копия_00000003079114350670223320000003920726348074326412_">
	<g>
		<path class="st0" d="M155.16,183.67v15.55h20.33v-15.55H155.16z"/>
	</g>
</g>
<g id="Фигура_1_копия_00000134961426038419443040000016489675590062159255_">
	<g>
		<rect x="175.49" y="230.31" class="st0" width="20.33" height="15.55"/>
	</g>
</g>
<g id="Фигура_1_копия_00000013902625565497094130000002446068561741309330_">
	<g>
		<path class="st0" d="M175.49,214.76v15.55h20.33v-15.55H175.49z"/>
	</g>
</g>
<g id="Фигура_1_копия_00000040555983481758336890000007458608091754045858_">
	<g>
		<path class="st0" d="M175.49,199.22v15.55h20.33v-15.55H175.49z"/>
	</g>
</g>
<g id="Фигура_1_копия_00000131348416782716480270000001256873402201031567_">
	<g>
		<rect x="114.5" y="230.31" class="st0" width="20.33" height="15.55"/>
	</g>
</g>
<g id="Фигура_1_копия_00000152234059066159964740000006269053281411498908_">
	<g>
		<path class="st0" d="M134.83,230.31v15.55h20.33v-15.55H134.83z"/>
	</g>
</g>
<g id="Фигура_1_копия_00000146489683584215396890000002138069773296706203_">
	<g>
		<path class="st0" d="M155.16,230.31v15.55h20.33v-15.55H155.16z"/>
	</g>
</g>
<g id="Фигура_1_копия_00000113312865638026599940000003976772199503315127_">
	<g>
		<rect x="195.82" y="230.31" class="st0" width="20.33" height="15.55"/>
	</g>
</g>
<g id="Фигура_1_копия_00000053502974930000107330000006554620515821513621_">
	<g>
		<path class="st0" d="M114.5,214.76v15.55h20.33v-15.55H114.5z"/>
	</g>
</g>
<g id="Фигура_1_копия_00000094596760243356692520000015083184078308499365_">
	<g>
		<path class="st0" d="M114.5,199.22v15.55h20.33v-15.55H114.5z"/>
	</g>
</g>
<g id="Фигура_1_копия_00000068642467789167789020000014480925116889330575_">
	<g>
		<rect x="114.5" y="183.67" class="st0" width="20.33" height="15.55"/>
	</g>
</g>
<g id="Фигура_1_копия_00000105424086558921219820000016008610106021639319_">
	<g>
		<path class="st0" d="M134.83,199.22v15.55h20.33v-15.55H134.83z"/>
	</g>
</g>
<g id="Фигура_1_копия_00000135675451176639808750000017876749395773486515_">
	<g>
		<path class="st0" d="M12.86,199.22v15.55h20.33v-15.55H12.86z"/>
	</g>
</g>
<g id="Фигура_1_копия_00000059283484286104004730000003430812935639952563_">
	<g>
		<path class="st0" d="M33.19,199.22v15.55h20.33v-15.55H33.19z"/>
	</g>
</g>
<g id="Фигура_1_копия_00000068667573432832394340000011617115160071518365_">
	<g>
		<path class="st0" d="M53.52,199.22v15.55h20.33v-15.55H53.52z"/>
	</g>
</g>
<g id="Фигура_1_копия_00000105428463683503245040000012424665296561925291_">
	<g>
		<path class="st0" d="M73.85,199.22v15.55h20.33v-15.55H73.85z"/>
	</g>
</g>
<g id="Фигура_1_копия_00000158731179797698712240000010207261357624733361_">
	<g>
		<rect x="94.18" y="199.22" class="st0" width="20.33" height="15.55"/>
	</g>
</g>
<text transform="matrix(1 0 0 1 197.1541 50.1304)" class="st1 st2">2</text>
<text transform="matrix(1 0 0 1 217.6148 50.2987)" class="st1 st2">1</text>
<text transform="matrix(1 0 0 1 136.7158 97.5571)" class="st1 st2">3</text>
<text transform="matrix(1 0 0 1 176.8959 128.6025)" class="st1 st2">4</text>
<text transform="matrix(1 0 0 1 339.9161 66.4675)" class="st1 st2">5</text>
<text transform="matrix(1 0 0 1 299.6393 98.1478)" class="st1 st2">6</text>
<text transform="matrix(1 0 0 1 258.6035 113.6024)" class="st1 st2">7</text>
<text transform="matrix(1 0 0 1 156.6079 190.7858)" class="st1 st2">8</text>
<text transform="matrix(1 0 0 1 177.1695 190.9404)" class="st1 st2">9</text>
<text transform="matrix(1 0 0 1 115.4123 191.265)" class="st1 st2">10</text>
<text transform="matrix(1 0 0 1 14.0193 206.6361)" class="st1 st2">11</text>
<text transform="matrix(1 0 0 1 115.4125 237.9174)" class="st1 st2">12</text>
<text transform="matrix(1 0 0 1 400.145 50.5891)" class="st1 st2">13</text>
<text transform="matrix(1 0 0 1 277.5476 191.1308)" class="st1 st2">14</text>
<text transform="matrix(1 0 0 1 338.4234 175.3553)" class="st1 st2">15</text>
<text transform="matrix(1 0 0 1 297.9743 237.6472)" class="st1 st2">16</text>
</svg>
