<svg width="596" height="842" viewBox="0 0 596 842" fill="none" xmlns="http://www.w3.org/2000/svg">
    <path d="M67.2 417V402.4H75.7V404.04H69V417H67.2ZM101.092 417V402.4H102.832V410.6C102.832 411.08 102.819 411.593 102.792 412.14C102.779 412.673 102.759 413.187 102.732 413.68C102.706 414.16 102.679 414.567 102.652 414.9L107.092 402.4H109.492V417H107.752V408.8C107.752 408.307 107.759 407.793 107.772 407.26C107.799 406.713 107.826 406.2 107.852 405.72C107.892 405.227 107.926 404.82 107.952 404.5L103.492 417H101.092ZM135.104 417V402.4H137.464L138.984 407.12C139.131 407.547 139.264 407.973 139.384 408.4C139.504 408.813 139.591 409.133 139.644 409.36C139.711 409.133 139.798 408.813 139.904 408.4C140.011 407.973 140.131 407.54 140.264 407.1L141.704 402.4H144.064V417H142.304V411.7C142.304 411.113 142.324 410.447 142.364 409.7C142.404 408.953 142.458 408.193 142.524 407.42C142.591 406.633 142.658 405.887 142.724 405.18C142.804 404.46 142.871 403.833 142.924 403.3L140.564 410.6H138.664L136.284 403.3C136.351 403.82 136.418 404.427 136.484 405.12C136.551 405.8 136.611 406.527 136.664 407.3C136.718 408.06 136.764 408.82 136.804 409.58C136.844 410.34 136.864 411.047 136.864 411.7V417H135.104ZM169.737 417V402.4H171.537V408.64H176.217V402.4H178.017V417H176.217V410.28H171.537V417H169.737ZM203.169 417L206.969 402.4H209.389L213.169 417H211.349L210.389 413.12H205.969L205.009 417H203.169ZM206.329 411.6H210.009L208.889 407.1C208.675 406.247 208.509 405.533 208.389 404.96C208.269 404.387 208.195 404.013 208.169 403.84C208.142 404.013 208.069 404.387 207.949 404.96C207.829 405.533 207.662 406.24 207.449 407.08L206.329 411.6ZM242.541 417.2C241.661 417.2 240.894 417.033 240.241 416.7C239.601 416.367 239.101 415.887 238.741 415.26C238.394 414.62 238.221 413.867 238.221 413V406.4C238.221 405.52 238.394 404.767 238.741 404.14C239.101 403.513 239.601 403.033 240.241 402.7C240.894 402.367 241.661 402.2 242.541 402.2C243.421 402.2 244.181 402.373 244.821 402.72C245.461 403.053 245.954 403.533 246.301 404.16C246.648 404.787 246.821 405.533 246.821 406.4H245.021C245.021 405.573 244.801 404.94 244.361 404.5C243.934 404.047 243.328 403.82 242.541 403.82C241.754 403.82 241.134 404.04 240.681 404.48C240.241 404.92 240.021 405.553 240.021 406.38V413C240.021 413.827 240.241 414.467 240.681 414.92C241.134 415.36 241.754 415.58 242.541 415.58C243.328 415.58 243.934 415.36 244.361 414.92C244.801 414.467 245.021 413.827 245.021 413H246.821C246.821 413.853 246.648 414.6 246.301 415.24C245.954 415.867 245.461 416.353 244.821 416.7C244.181 417.033 243.421 417.2 242.541 417.2ZM275.853 417V404.02H271.853V402.38H281.653V404.02H277.653V417H275.853ZM307.045 417V402.4H315.445V404.04H308.825V408.56H314.745V410.18H308.825V415.36H315.445V417H307.045ZM341.177 417V402.4H345.877C346.784 402.4 347.571 402.58 348.237 402.94C348.904 403.287 349.417 403.78 349.777 404.42C350.151 405.06 350.337 405.82 350.337 406.7C350.337 407.567 350.151 408.327 349.777 408.98C349.417 409.62 348.904 410.12 348.237 410.48C347.571 410.827 346.784 411 345.877 411H342.977V417H341.177ZM342.977 409.38H345.877C346.664 409.38 347.291 409.14 347.757 408.66C348.237 408.167 348.477 407.513 348.477 406.7C348.477 405.873 348.237 405.22 347.757 404.74C347.291 404.26 346.664 404.02 345.877 404.02H342.977V409.38ZM375.47 417V402.4H377.27V408.66H379.43L382.67 402.4H384.63L381.01 409.42L384.83 417H382.77L379.37 410.24H377.27V417H375.47ZM408.922 417L412.722 402.4H415.142L418.922 417H417.102L416.142 413.12H411.722L410.762 417H408.922ZM412.082 411.6H415.762L414.642 407.1C414.429 406.247 414.262 405.533 414.142 404.96C414.022 404.387 413.949 404.013 413.922 403.84C413.895 404.013 413.822 404.387 413.702 404.96C413.582 405.533 413.415 406.24 413.202 407.08L412.082 411.6Z" fill="black"/>
</svg>
