<svg width="600" height="850" viewBox="0 0 600 850" fill="none" xmlns="http://www.w3.org/2000/svg">
    <path d="M50.76 431V419.32H57.56V420.632H52.2V431H50.76ZM85.4738 431V419.32H86.8658V425.88C86.8658 426.264 86.8551 426.675 86.8338 427.112C86.8231 427.539 86.8071 427.949 86.7858 428.344C86.7644 428.728 86.7431 429.053 86.7218 429.32L90.2738 419.32H92.1938V431H90.8018V424.44C90.8018 424.045 90.8071 423.635 90.8178 423.208C90.8391 422.771 90.8604 422.36 90.8818 421.976C90.9138 421.581 90.9404 421.256 90.9618 421L87.3938 431H85.4738ZM120.284 431V419.32H122.172L123.388 423.096C123.505 423.437 123.612 423.779 123.708 424.12C123.804 424.451 123.873 424.707 123.916 424.888C123.969 424.707 124.038 424.451 124.124 424.12C124.209 423.779 124.305 423.432 124.412 423.08L125.564 419.32H127.452V431H126.044V426.76C126.044 426.291 126.06 425.757 126.092 425.16C126.124 424.563 126.166 423.955 126.22 423.336C126.273 422.707 126.326 422.109 126.38 421.544C126.444 420.968 126.497 420.467 126.54 420.04L124.652 425.88H123.132L121.228 420.04C121.281 420.456 121.334 420.941 121.388 421.496C121.441 422.04 121.489 422.621 121.532 423.24C121.574 423.848 121.612 424.456 121.644 425.064C121.676 425.672 121.692 426.237 121.692 426.76V431H120.284ZM155.589 431V419.32H157.029V424.312H160.773V419.32H162.213V431H160.773V425.624H157.029V431H155.589ZM189.935 431L192.975 419.32H194.911L197.935 431H196.479L195.711 427.896H192.175L191.407 431H189.935ZM192.463 426.68H195.407L194.511 423.08C194.34 422.397 194.207 421.827 194.111 421.368C194.015 420.909 193.956 420.611 193.935 420.472C193.914 420.611 193.855 420.909 193.759 421.368C193.663 421.827 193.53 422.392 193.359 423.064L192.463 426.68ZM229.033 431.16C228.329 431.16 227.715 431.027 227.193 430.76C226.681 430.493 226.281 430.109 225.993 429.608C225.715 429.096 225.577 428.493 225.577 427.8V422.52C225.577 421.816 225.715 421.213 225.993 420.712C226.281 420.211 226.681 419.827 227.193 419.56C227.715 419.293 228.329 419.16 229.033 419.16C229.737 419.16 230.345 419.299 230.857 419.576C231.369 419.843 231.763 420.227 232.041 420.728C232.318 421.229 232.457 421.827 232.457 422.52H231.017C231.017 421.859 230.841 421.352 230.489 421C230.147 420.637 229.662 420.456 229.033 420.456C228.403 420.456 227.907 420.632 227.545 420.984C227.193 421.336 227.017 421.843 227.017 422.504V427.8C227.017 428.461 227.193 428.973 227.545 429.336C227.907 429.688 228.403 429.864 229.033 429.864C229.662 429.864 230.147 429.688 230.489 429.336C230.841 428.973 231.017 428.461 231.017 427.8H232.457C232.457 428.483 232.318 429.08 232.041 429.592C231.763 430.093 231.369 430.483 230.857 430.76C230.345 431.027 229.737 431.16 229.033 431.16ZM263.282 431V420.616H260.082V419.304H267.922V420.616H264.722V431H263.282ZM295.836 431V419.32H302.556V420.632H297.26V424.248H301.996V425.544H297.26V429.688H302.556V431H295.836ZM330.742 431V419.32H334.502C335.227 419.32 335.857 419.464 336.39 419.752C336.923 420.029 337.334 420.424 337.622 420.936C337.921 421.448 338.07 422.056 338.07 422.76C338.07 423.453 337.921 424.061 337.622 424.584C337.334 425.096 336.923 425.496 336.39 425.784C335.857 426.061 335.227 426.2 334.502 426.2H332.182V431H330.742ZM332.182 424.904H334.502C335.131 424.904 335.633 424.712 336.006 424.328C336.39 423.933 336.582 423.411 336.582 422.76C336.582 422.099 336.39 421.576 336.006 421.192C335.633 420.808 335.131 420.616 334.502 420.616H332.182V424.904ZM365.776 431V419.32H367.216V424.328H368.944L371.536 419.32H373.104L370.208 424.936L373.264 431H371.616L368.896 425.592H367.216V431H365.776ZM400.137 431L403.177 419.32H405.113L408.137 431H406.681L405.913 427.896H402.377L401.609 431H400.137ZM402.665 426.68H405.609L404.713 423.08C404.543 422.397 404.409 421.827 404.313 421.368C404.217 420.909 404.159 420.611 404.137 420.472C404.116 420.611 404.057 420.909 403.961 421.368C403.865 421.827 403.732 422.392 403.561 423.064L402.665 426.68Z" fill="black"/>
</svg>
