<svg width="600" height="850" viewBox="0 0 600 850" fill="none" xmlns="http://www.w3.org/2000/svg">
    <path d="M50.222 435V418.94H59.836V421.492H52.972V435H50.222ZM84.7754 435V418.94H87.2834V426.794C87.2834 427.307 87.2687 427.879 87.2394 428.51C87.2101 429.141 87.1734 429.757 87.1294 430.358C87.0854 430.959 87.0487 431.48 87.0194 431.92L91.4414 418.94H94.8074V435H92.2994V427.388C92.2994 426.875 92.3141 426.288 92.3434 425.628C92.3727 424.968 92.4094 424.315 92.4534 423.67C92.5121 423.025 92.5634 422.475 92.6074 422.02L88.1414 435H84.7754ZM119.615 435V418.94H122.871L124.433 424.044C124.594 424.557 124.726 425.027 124.829 425.452C124.931 425.877 124.997 426.185 125.027 426.376C125.056 426.185 125.122 425.877 125.225 425.452C125.327 425.027 125.452 424.557 125.599 424.044L127.095 418.94H130.351V435H127.777V430.006C127.777 429.273 127.799 428.473 127.843 427.608C127.887 426.743 127.938 425.877 127.997 425.012C128.055 424.147 128.121 423.325 128.195 422.548C128.283 421.771 128.356 421.089 128.415 420.502L126.259 428.092H123.751L121.529 420.502C121.602 421.059 121.675 421.719 121.749 422.482C121.822 423.23 121.888 424.037 121.947 424.902C122.02 425.753 122.079 426.618 122.123 427.498C122.167 428.378 122.189 429.214 122.189 430.006V435H119.615ZM155.268 435V418.94H158.018V425.386H162.33V418.94H165.08V435H162.33V427.938H158.018V435H155.268ZM189.536 435L193.584 418.94H197.126L201.196 435H198.38L197.5 431.106H193.232L192.352 435H189.536ZM193.738 428.862H196.994L196.026 424.55C195.864 423.831 195.725 423.186 195.608 422.614C195.49 422.027 195.41 421.602 195.366 421.338C195.322 421.602 195.241 422.027 195.124 422.614C195.021 423.186 194.882 423.824 194.706 424.528L193.738 428.862ZM230.645 435.22C229.618 435.22 228.716 435.029 227.939 434.648C227.176 434.252 226.582 433.702 226.157 432.998C225.746 432.279 225.541 431.436 225.541 430.468V423.472C225.541 422.489 225.746 421.646 226.157 420.942C226.582 420.238 227.176 419.695 227.939 419.314C228.716 418.918 229.618 418.72 230.645 418.72C231.686 418.72 232.581 418.918 233.329 419.314C234.092 419.695 234.686 420.238 235.111 420.942C235.536 421.646 235.749 422.489 235.749 423.472H232.977C232.977 422.709 232.772 422.13 232.361 421.734C231.965 421.338 231.393 421.14 230.645 421.14C229.897 421.14 229.318 421.338 228.907 421.734C228.496 422.13 228.291 422.702 228.291 423.45V430.468C228.291 431.216 228.496 431.795 228.907 432.206C229.318 432.602 229.897 432.8 230.645 432.8C231.393 432.8 231.965 432.602 232.361 432.206C232.772 431.795 232.977 431.216 232.977 430.468H235.749C235.749 431.421 235.536 432.257 235.111 432.976C234.686 433.695 234.092 434.252 233.329 434.648C232.581 435.029 231.686 435.22 230.645 435.22ZM264.362 435V421.492H260.16V418.94H271.336V421.492H267.134V435H264.362ZM296.276 435V418.94H305.912V421.338H298.982V425.518H305.142V427.894H298.982V432.602H305.912V435H296.276ZM331.225 435V418.94H336.571C337.642 418.94 338.573 419.145 339.365 419.556C340.172 419.967 340.795 420.546 341.235 421.294C341.675 422.027 341.895 422.893 341.895 423.89C341.895 424.873 341.668 425.738 341.213 426.486C340.773 427.234 340.157 427.813 339.365 428.224C338.573 428.635 337.642 428.84 336.571 428.84H333.975V435H331.225ZM333.975 426.354H336.571C337.334 426.354 337.943 426.134 338.397 425.694C338.867 425.239 339.101 424.638 339.101 423.89C339.101 423.127 338.867 422.526 338.397 422.086C337.943 421.646 337.334 421.426 336.571 421.426H333.975V426.354ZM366.395 435V418.94H369.145V425.43H371.059L374.073 418.94H377.065L373.479 426.64L377.241 435H374.183L371.015 427.938H369.145V435H366.395ZM400.684 435L404.732 418.94H408.274L412.344 435H409.528L408.648 431.106H404.38L403.5 435H400.684ZM404.886 428.862H408.142L407.174 424.55C407.013 423.831 406.873 423.186 406.756 422.614C406.639 422.027 406.558 421.602 406.514 421.338C406.47 421.602 406.389 422.027 406.272 422.614C406.169 423.186 406.03 423.824 405.854 424.528L404.886 428.862Z"
          fill="black"/>
</svg>
