<svg width="600" height="850" viewBox="0 0 600 850" fill="none" xmlns="http://www.w3.org/2000/svg">
    <path d="M368.8 256.16C368.096 256.16 367.488 256.027 366.976 255.76C366.475 255.493 366.085 255.109 365.808 254.608C365.541 254.096 365.408 253.493 365.408 252.8V247.52C365.408 246.816 365.541 246.213 365.808 245.712C366.085 245.211 366.475 244.827 366.976 244.56C367.488 244.293 368.096 244.16 368.8 244.16C369.504 244.16 370.107 244.293 370.608 244.56C371.12 244.827 371.509 245.211 371.776 245.712C372.053 246.213 372.192 246.811 372.192 247.504V252.8C372.192 253.493 372.053 254.096 371.776 254.608C371.509 255.109 371.12 255.493 370.608 255.76C370.107 256.027 369.504 256.16 368.8 256.16ZM368.8 254.864C369.429 254.864 369.909 254.688 370.24 254.336C370.581 253.973 370.752 253.461 370.752 252.8V247.52C370.752 246.859 370.581 246.352 370.24 246C369.909 245.637 369.429 245.456 368.8 245.456C368.181 245.456 367.701 245.637 367.36 246C367.019 246.352 366.848 246.859 366.848 247.52V252.8C366.848 253.461 367.019 253.973 367.36 254.336C367.701 254.688 368.181 254.864 368.8 254.864ZM400.506 256V244.32H401.946V249.328H403.674L406.266 244.32H407.834L404.938 249.936L407.994 256H406.346L403.626 250.592H401.946V256H400.506ZM438.868 256.16C438.164 256.16 437.556 256.027 437.044 255.76C436.542 255.493 436.153 255.109 435.876 254.608C435.609 254.096 435.476 253.493 435.476 252.8V247.52C435.476 246.816 435.609 246.213 435.876 245.712C436.153 245.211 436.542 244.827 437.044 244.56C437.556 244.293 438.164 244.16 438.868 244.16C439.572 244.16 440.174 244.293 440.676 244.56C441.188 244.827 441.577 245.211 441.844 245.712C442.121 246.213 442.26 246.811 442.26 247.504V252.8C442.26 253.493 442.121 254.096 441.844 254.608C441.577 255.109 441.188 255.493 440.676 255.76C440.174 256.027 439.572 256.16 438.868 256.16ZM438.868 254.864C439.497 254.864 439.977 254.688 440.308 254.336C440.649 253.973 440.82 253.461 440.82 252.8V247.52C440.82 246.859 440.649 246.352 440.308 246C439.977 245.637 439.497 245.456 438.868 245.456C438.249 245.456 437.769 245.637 437.428 246C437.086 246.352 436.916 246.859 436.916 247.52V252.8C436.916 253.461 437.086 253.973 437.428 254.336C437.769 254.688 438.249 254.864 438.868 254.864ZM470.605 256V244.32H477.197V256H475.757V245.632H472.045V256H470.605Z" fill="black"/>
</svg>
