<svg width="596" height="842" viewBox="0 0 596 842" fill="none" xmlns="http://www.w3.org/2000/svg">
    <path d="M377 246.2C376.12 246.2 375.36 246.033 374.72 245.7C374.093 245.367 373.607 244.887 373.26 244.26C372.927 243.62 372.76 242.867 372.76 242V235.4C372.76 234.52 372.927 233.767 373.26 233.14C373.607 232.513 374.093 232.033 374.72 231.7C375.36 231.367 376.12 231.2 377 231.2C377.88 231.2 378.633 231.367 379.26 231.7C379.9 232.033 380.387 232.513 380.72 233.14C381.067 233.767 381.24 234.513 381.24 235.38V242C381.24 242.867 381.067 243.62 380.72 244.26C380.387 244.887 379.9 245.367 379.26 245.7C378.633 246.033 377.88 246.2 377 246.2ZM377 244.58C377.787 244.58 378.387 244.36 378.8 243.92C379.227 243.467 379.44 242.827 379.44 242V235.4C379.44 234.573 379.227 233.94 378.8 233.5C378.387 233.047 377.787 232.82 377 232.82C376.227 232.82 375.627 233.047 375.2 233.5C374.773 233.94 374.56 234.573 374.56 235.4V242C374.56 242.827 374.773 243.467 375.2 243.92C375.627 244.36 376.227 244.58 377 244.58ZM407.132 246V231.4H408.932V237.66H411.092L414.332 231.4H416.292L412.672 238.42L416.492 246H414.432L411.032 239.24H408.932V246H407.132ZM445.584 246.2C444.704 246.2 443.944 246.033 443.304 245.7C442.678 245.367 442.191 244.887 441.844 244.26C441.511 243.62 441.344 242.867 441.344 242V235.4C441.344 234.52 441.511 233.767 441.844 233.14C442.191 232.513 442.678 232.033 443.304 231.7C443.944 231.367 444.704 231.2 445.584 231.2C446.464 231.2 447.218 231.367 447.844 231.7C448.484 232.033 448.971 232.513 449.304 233.14C449.651 233.767 449.824 234.513 449.824 235.38V242C449.824 242.867 449.651 243.62 449.304 244.26C448.971 244.887 448.484 245.367 447.844 245.7C447.218 246.033 446.464 246.2 445.584 246.2ZM445.584 244.58C446.371 244.58 446.971 244.36 447.384 243.92C447.811 243.467 448.024 242.827 448.024 242V235.4C448.024 234.573 447.811 233.94 447.384 233.5C446.971 233.047 446.371 232.82 445.584 232.82C444.811 232.82 444.211 233.047 443.784 233.5C443.358 233.94 443.144 234.573 443.144 235.4V242C443.144 242.827 443.358 243.467 443.784 243.92C444.211 244.36 444.811 244.58 445.584 244.58ZM475.757 246V231.4H483.997V246H482.197V233.04H477.557V246H475.757Z" fill="black"/>
</svg>
