<svg width="600" height="850" viewBox="0 0 600 850" fill="none" xmlns="http://www.w3.org/2000/svg">
    <path d="M370.6 260.22C369.573 260.22 368.679 260.029 367.916 259.648C367.168 259.252 366.589 258.702 366.178 257.998C365.782 257.279 365.584 256.436 365.584 255.468V248.472C365.584 247.504 365.782 246.668 366.178 245.964C366.589 245.245 367.168 244.695 367.916 244.314C368.679 243.918 369.573 243.72 370.6 243.72C371.641 243.72 372.536 243.918 373.284 244.314C374.032 244.695 374.604 245.245 375 245.964C375.411 246.668 375.616 247.497 375.616 248.45V255.468C375.616 256.436 375.411 257.279 375 257.998C374.604 258.702 374.032 259.252 373.284 259.648C372.536 260.029 371.641 260.22 370.6 260.22ZM370.6 257.8C371.348 257.8 371.913 257.602 372.294 257.206C372.675 256.795 372.866 256.216 372.866 255.468V248.472C372.866 247.709 372.675 247.13 372.294 246.734C371.913 246.338 371.348 246.14 370.6 246.14C369.852 246.14 369.287 246.338 368.906 246.734C368.525 247.13 368.334 247.709 368.334 248.472V255.468C368.334 256.216 368.525 256.795 368.906 257.206C369.302 257.602 369.867 257.8 370.6 257.8ZM400.863 260V243.94H403.613V250.43H405.527L408.541 243.94H411.533L407.947 251.64L411.709 260H408.651L405.483 252.938H403.613V260H400.863ZM440.983 260.22C439.956 260.22 439.061 260.029 438.299 259.648C437.551 259.252 436.971 258.702 436.561 257.998C436.165 257.279 435.967 256.436 435.967 255.468V248.472C435.967 247.504 436.165 246.668 436.561 245.964C436.971 245.245 437.551 244.695 438.299 244.314C439.061 243.918 439.956 243.72 440.983 243.72C442.024 243.72 442.919 243.918 443.667 244.314C444.415 244.695 444.987 245.245 445.383 245.964C445.793 246.668 445.999 247.497 445.999 248.45V255.468C445.999 256.436 445.793 257.279 445.383 257.998C444.987 258.702 444.415 259.252 443.667 259.648C442.919 260.029 442.024 260.22 440.983 260.22ZM440.983 257.8C441.731 257.8 442.295 257.602 442.677 257.206C443.058 256.795 443.249 256.216 443.249 255.468V248.472C443.249 247.709 443.058 247.13 442.677 246.734C442.295 246.338 441.731 246.14 440.983 246.14C440.235 246.14 439.67 246.338 439.289 246.734C438.907 247.13 438.717 247.709 438.717 248.472V255.468C438.717 256.216 438.907 256.795 439.289 257.206C439.685 257.602 440.249 257.8 440.983 257.8ZM471.29 260V243.94H481.058V260H478.308V246.492H474.04V260H471.29Z"
          fill="black"/>
</svg>
