<svg width="600" height="850" viewBox="0 0 600 850" fill="none" xmlns="http://www.w3.org/2000/svg">
    <path d="M403.331 81.4V80.28C402.68 80.28 402.11 80.1413 401.619 79.864C401.128 79.5867 400.744 79.2027 400.467 78.712C400.2 78.2107 400.067 77.624 400.067 76.952V73.208C400.067 72.5147 400.2 71.9173 400.467 71.416C400.734 70.904 401.112 70.5093 401.603 70.232C402.094 69.944 402.67 69.8 403.331 69.8V68.68H404.675V69.8C405.336 69.8 405.912 69.944 406.403 70.232C406.894 70.5093 407.272 70.904 407.539 71.416C407.806 71.9173 407.939 72.5147 407.939 73.208V76.952C407.939 77.624 407.8 78.2107 407.523 78.712C407.256 79.2027 406.878 79.5867 406.387 79.864C405.907 80.1413 405.336 80.28 404.675 80.28V81.4H403.331ZM403.331 79.064V71.016C402.936 71.016 402.595 71.1067 402.307 71.288C402.019 71.4587 401.795 71.7093 401.635 72.04C401.486 72.36 401.411 72.7493 401.411 73.208V76.952C401.411 77.3893 401.486 77.768 401.635 78.088C401.795 78.3973 402.019 78.6373 402.307 78.808C402.595 78.9787 402.936 79.064 403.331 79.064ZM404.675 79.064C405.08 79.064 405.422 78.9787 405.699 78.808C405.987 78.6373 406.206 78.3973 406.355 78.088C406.515 77.768 406.595 77.3893 406.595 76.952V73.208C406.595 72.7493 406.515 72.36 406.355 72.04C406.206 71.7093 405.987 71.4587 405.699 71.288C405.422 71.1067 405.08 71.016 404.675 71.016V79.064ZM402.259 116L403.443 112.976L400.003 104.32H401.571L403.667 110.032C403.806 110.395 403.918 110.741 404.003 111.072C404.088 111.392 404.142 111.632 404.163 111.792C404.184 111.632 404.232 111.392 404.307 111.072C404.382 110.741 404.478 110.395 404.595 110.032L406.435 104.32H408.003L403.795 116H402.259ZM400.675 151V139.32H404.435C405.16 139.32 405.79 139.464 406.323 139.752C406.856 140.029 407.267 140.424 407.555 140.936C407.854 141.448 408.003 142.056 408.003 142.76C408.003 143.453 407.854 144.061 407.555 144.584C407.267 145.096 406.856 145.496 406.323 145.784C405.79 146.061 405.16 146.2 404.435 146.2H402.115V151H400.675ZM402.115 144.904H404.435C405.064 144.904 405.566 144.712 405.939 144.328C406.323 143.933 406.515 143.411 406.515 142.76C406.515 142.099 406.323 141.576 405.939 141.192C405.566 140.808 405.064 140.616 404.435 140.616H402.115V144.904ZM400.003 186L403.043 174.32H404.979L408.003 186H406.547L405.779 182.896H402.243L401.475 186H400.003ZM402.531 181.68H405.475L404.579 178.08C404.408 177.397 404.275 176.827 404.179 176.368C404.083 175.909 404.024 175.611 404.003 175.472C403.982 175.611 403.923 175.909 403.827 176.368C403.731 176.827 403.598 177.392 403.427 178.064L402.531 181.68ZM399.395 221L401.507 214.984L399.555 209.32H401.059L402.723 214.504H403.395V209.32H404.611V214.504H405.299L406.947 209.32H408.451L406.531 215L408.611 221H407.123L405.331 215.528H404.611V221H403.395V215.528H402.675L400.867 221H399.395ZM400.675 256V244.32H402.115V249.328H403.843L406.435 244.32H408.003L405.107 249.936L408.163 256H406.515L403.795 250.592H402.115V256H400.675ZM400.003 291L403.043 279.32H404.979L408.003 291H406.547L405.779 287.896H402.243L401.475 291H400.003ZM402.531 286.68H405.475L404.579 283.08C404.408 282.397 404.275 281.827 404.179 281.368C404.083 280.909 404.024 280.611 404.003 280.472C403.982 280.611 403.923 280.909 403.827 281.368C403.731 281.827 403.598 282.392 403.427 283.064L402.531 286.68Z" fill="black"/>
</svg>
