<svg width="596" height="842" viewBox="0 0 596 842" fill="none" xmlns="http://www.w3.org/2000/svg">
    <path d="M411.164 71.5V70.1C410.351 70.1 409.637 69.9267 409.024 69.58C408.411 69.2333 407.931 68.7533 407.584 68.14C407.251 67.5133 407.084 66.78 407.084 65.94V61.26C407.084 60.3933 407.251 59.6467 407.584 59.02C407.917 58.38 408.391 57.8867 409.004 57.54C409.617 57.18 410.337 57 411.164 57V55.6H412.844V57C413.671 57 414.391 57.18 415.004 57.54C415.617 57.8867 416.091 58.38 416.424 59.02C416.757 59.6467 416.924 60.3933 416.924 61.26V65.94C416.924 66.78 416.751 67.5133 416.404 68.14C416.071 68.7533 415.597 69.2333 414.984 69.58C414.384 69.9267 413.671 70.1 412.844 70.1V71.5H411.164ZM411.164 68.58V58.52C410.671 58.52 410.244 58.6333 409.884 58.86C409.524 59.0733 409.244 59.3867 409.044 59.8C408.857 60.2 408.764 60.6867 408.764 61.26V65.94C408.764 66.4867 408.857 66.96 409.044 67.36C409.244 67.7467 409.524 68.0467 409.884 68.26C410.244 68.4733 410.671 68.58 411.164 68.58ZM412.844 68.58C413.351 68.58 413.777 68.4733 414.124 68.26C414.484 68.0467 414.757 67.7467 414.944 67.36C415.144 66.96 415.244 66.4867 415.244 65.94V61.26C415.244 60.6867 415.144 60.2 414.944 59.8C414.757 59.3867 414.484 59.0733 414.124 58.86C413.777 58.6333 413.351 58.52 412.844 58.52V68.58ZM409.824 105L411.304 101.22L407.004 90.4H408.964L411.584 97.54C411.757 97.9933 411.897 98.4267 412.004 98.84C412.111 99.24 412.177 99.54 412.204 99.74C412.231 99.54 412.291 99.24 412.384 98.84C412.477 98.4267 412.597 97.9933 412.744 97.54L415.044 90.4H417.004L411.744 105H409.824ZM407.844 139V124.4H412.544C413.451 124.4 414.237 124.58 414.904 124.94C415.571 125.287 416.084 125.78 416.444 126.42C416.817 127.06 417.004 127.82 417.004 128.7C417.004 129.567 416.817 130.327 416.444 130.98C416.084 131.62 415.571 132.12 414.904 132.48C414.237 132.827 413.451 133 412.544 133H409.644V139H407.844ZM409.644 131.38H412.544C413.331 131.38 413.957 131.14 414.424 130.66C414.904 130.167 415.144 129.513 415.144 128.7C415.144 127.873 414.904 127.22 414.424 126.74C413.957 126.26 413.331 126.02 412.544 126.02H409.644V131.38ZM407.004 173L410.804 158.4H413.224L417.004 173H415.184L414.224 169.12H409.804L408.844 173H407.004ZM410.164 167.6H413.844L412.724 163.1C412.511 162.247 412.344 161.533 412.224 160.96C412.104 160.387 412.031 160.013 412.004 159.84C411.977 160.013 411.904 160.387 411.784 160.96C411.664 161.533 411.497 162.24 411.284 163.08L410.164 167.6ZM406.244 207L408.884 199.48L406.444 192.4H408.324L410.404 198.88H411.244V192.4H412.764V198.88H413.624L415.684 192.4H417.564L415.164 199.5L417.764 207H415.904L413.664 200.16H412.764V207H411.244V200.16H410.344L408.084 207H406.244ZM407.844 241V226.4H409.644V232.66H411.804L415.044 226.4H417.004L413.384 233.42L417.204 241H415.144L411.744 234.24H409.644V241H407.844ZM407.004 275L410.804 260.4H413.224L417.004 275H415.184L414.224 271.12H409.804L408.844 275H407.004ZM410.164 269.6H413.844L412.724 265.1C412.511 264.247 412.344 263.533 412.224 262.96C412.104 262.387 412.031 262.013 412.004 261.84C411.977 262.013 411.904 262.387 411.784 262.96C411.664 263.533 411.497 264.24 411.284 265.08L410.164 269.6Z" fill="black"/>
</svg>
