<svg width="600" height="850" viewBox="0 0 600 850" fill="none" xmlns="http://www.w3.org/2000/svg">
    <path d="M404.838 85.55V84.01C403.944 84.01 403.152 83.812 402.462 83.416C401.773 83.02 401.238 82.47 400.856 81.766C400.475 81.062 400.284 80.2407 400.284 79.302V74.374C400.284 73.406 400.475 72.57 400.856 71.866C401.238 71.1473 401.766 70.59 402.44 70.194C403.13 69.798 403.929 69.6 404.838 69.6V68.06H407.17V69.6C408.08 69.6 408.872 69.798 409.546 70.194C410.236 70.59 410.771 71.1473 411.152 71.866C411.534 72.57 411.724 73.406 411.724 74.374V79.302C411.724 80.2407 411.534 81.062 411.152 81.766C410.771 82.47 410.236 83.02 409.546 83.416C408.872 83.812 408.08 84.01 407.17 84.01V85.55H404.838ZM404.926 81.832V71.778C404.472 71.778 404.076 71.888 403.738 72.108C403.401 72.3133 403.137 72.614 402.946 73.01C402.77 73.3913 402.682 73.846 402.682 74.374V79.302C402.682 79.8153 402.77 80.2627 402.946 80.644C403.137 81.0107 403.401 81.304 403.738 81.524C404.076 81.7293 404.472 81.832 404.926 81.832ZM407.082 81.832C407.552 81.832 407.948 81.7293 408.27 81.524C408.608 81.304 408.864 81.0107 409.04 80.644C409.231 80.2627 409.326 79.8153 409.326 79.302V74.374C409.326 73.846 409.231 73.3913 409.04 73.01C408.864 72.614 408.608 72.3133 408.27 72.108C407.948 71.888 407.552 71.778 407.082 71.778V81.832ZM403.21 120L404.86 115.886L400.174 103.94H403.166L405.586 111.024C405.733 111.435 405.858 111.867 405.96 112.322C406.078 112.777 406.151 113.136 406.18 113.4C406.21 113.136 406.268 112.777 406.356 112.322C406.444 111.853 406.554 111.42 406.686 111.024L408.908 103.94H411.834L406.114 120H403.21ZM401.098 155V138.94H406.444C407.515 138.94 408.446 139.145 409.238 139.556C410.045 139.967 410.668 140.546 411.108 141.294C411.548 142.027 411.768 142.893 411.768 143.89C411.768 144.873 411.541 145.738 411.086 146.486C410.646 147.234 410.03 147.813 409.238 148.224C408.446 148.635 407.515 148.84 406.444 148.84H403.848V155H401.098ZM403.848 146.354H406.444C407.207 146.354 407.816 146.134 408.27 145.694C408.74 145.239 408.974 144.638 408.974 143.89C408.974 143.127 408.74 142.526 408.27 142.086C407.816 141.646 407.207 141.426 406.444 141.426H403.848V146.354ZM400.174 190L404.222 173.94H407.764L411.834 190H409.018L408.138 186.106H403.87L402.99 190H400.174ZM404.376 183.862H407.632L406.664 179.55C406.503 178.831 406.364 178.186 406.246 177.614C406.129 177.027 406.048 176.602 406.004 176.338C405.96 176.602 405.88 177.027 405.762 177.614C405.66 178.186 405.52 178.824 405.344 179.528L404.376 183.862ZM399.646 225L402.066 216.816L399.8 208.94H402.22L404.178 216.178H404.97V208.94H406.972V216.178H407.808L409.766 208.94H412.142L409.92 216.794L412.362 225H409.964L407.852 217.454H406.972L407.038 225H405.036L404.97 217.454H404.134L402.044 225H399.646ZM401.076 260V243.94H403.826V250.43H405.74L408.754 243.94H411.746L408.16 251.64L411.922 260H408.864L405.696 252.938H403.826V260H401.076ZM400.174 295L404.222 278.94H407.764L411.834 295H409.018L408.138 291.106H403.87L402.99 295H400.174ZM404.376 288.862H407.632L406.664 284.55C406.503 283.831 406.364 283.186 406.246 282.614C406.129 282.027 406.048 281.602 406.004 281.338C405.96 281.602 405.88 282.027 405.762 282.614C405.66 283.186 405.52 283.824 405.344 284.528L404.376 288.862Z" fill="black"/>
</svg>
