<svg width="596" height="842" viewBox="0 0 596 842" fill="none" xmlns="http://www.w3.org/2000/svg">
    <path d="M477.884 246V231.4H486.124V246H484.324V233.04H479.684V246H477.884ZM479.824 280L481.304 276.22L477.004 265.4H478.964L481.584 272.54C481.757 272.993 481.897 273.427 482.004 273.84C482.111 274.24 482.177 274.54 482.204 274.74C482.231 274.54 482.291 274.24 482.384 273.84C482.477 273.427 482.597 272.993 482.744 272.54L485.044 265.4H487.004L481.744 280H479.824ZM477.324 314L477.284 299.4H478.964V312.64H481.304V299.4H482.744V312.64H485.064V299.4H486.724V314H477.324ZM477.844 348V333.4H479.644V339.66H481.804L485.044 333.4H487.004L483.384 340.42L487.204 348H485.144L481.744 341.24H479.644V348H477.844ZM477.004 382L480.804 367.4H483.224L487.004 382H485.184L484.224 378.12H479.804L478.844 382H477.004ZM480.164 376.6H483.844L482.724 372.1C482.511 371.247 482.344 370.533 482.224 369.96C482.104 369.387 482.031 369.013 482.004 368.84C481.977 369.013 481.904 369.387 481.784 369.96C481.664 370.533 481.497 371.24 481.284 372.08L480.164 376.6Z" fill="black"/>
</svg>
