<svg width="600" height="850" viewBox="0 0 600 850" fill="none" xmlns="http://www.w3.org/2000/svg">
    <path d="M470.707 256V244.32H477.299V256H475.859V245.632H472.147V256H470.707ZM472.259 291L473.443 287.976L470.003 279.32H471.571L473.667 285.032C473.806 285.395 473.918 285.741 474.003 286.072C474.088 286.392 474.142 286.632 474.163 286.792C474.184 286.632 474.232 286.392 474.307 286.072C474.382 285.741 474.478 285.395 474.595 285.032L476.435 279.32H478.003L473.795 291H472.259ZM470.259 326L470.227 314.32H471.571V324.912H473.443V314.32H474.595V324.912H476.451V314.32H477.779V326H470.259ZM470.675 361V349.32H472.115V354.328H473.843L476.435 349.32H478.003L475.107 354.936L478.163 361H476.515L473.795 355.592H472.115V361H470.675ZM470.003 396L473.043 384.32H474.979L478.003 396H476.547L475.779 392.896H472.243L471.475 396H470.003ZM472.531 391.68H475.475L474.579 388.08C474.408 387.397 474.275 386.827 474.179 386.368C474.083 385.909 474.024 385.611 474.003 385.472C473.982 385.611 473.923 385.909 473.827 386.368C473.731 386.827 473.598 387.392 473.427 388.064L472.531 391.68Z" fill="black"/>
</svg>
