<svg width="600" height="850" viewBox="0 0 600 850" fill="none" xmlns="http://www.w3.org/2000/svg">
    <path d="M471.12 260V243.94H480.888V260H478.138V246.492H473.87V260H471.12ZM473.21 295L474.86 290.886L470.174 278.94H473.166L475.586 286.024C475.733 286.435 475.858 286.867 475.96 287.322C476.078 287.777 476.151 288.136 476.18 288.4C476.21 288.136 476.268 287.777 476.356 287.322C476.444 286.853 476.554 286.42 476.686 286.024L478.908 278.94H481.834L476.114 295H473.21ZM470.526 330L470.504 313.94H472.858V328.086H475.014V313.94H477.016V328.086H479.172V313.94H481.504V330H470.526ZM471.076 365V348.94H473.826V355.43H475.74L478.754 348.94H481.746L478.16 356.64L481.922 365H478.864L475.696 357.938H473.826V365H471.076ZM470.174 400L474.222 383.94H477.764L481.834 400H479.018L478.138 396.106H473.87L472.99 400H470.174ZM474.376 393.862H477.632L476.664 389.55C476.503 388.831 476.364 388.186 476.246 387.614C476.129 387.027 476.048 386.602 476.004 386.338C475.96 386.602 475.88 387.027 475.762 387.614C475.66 388.186 475.52 388.824 475.344 389.528L474.376 393.862Z" fill="black"/>
</svg>
