<svg width="600" height="850" viewBox="0 0 600 850" fill="none" xmlns="http://www.w3.org/2000/svg">
    <path d="M50.216 746V734.32H52.104L53.32 738.096C53.4373 738.437 53.544 738.779 53.64 739.12C53.736 739.451 53.8053 739.707 53.848 739.888C53.9013 739.707 53.9707 739.451 54.056 739.12C54.1413 738.779 54.2373 738.432 54.344 738.08L55.496 734.32H57.384V746H55.976V741.76C55.976 741.291 55.992 740.757 56.024 740.16C56.056 739.563 56.0987 738.955 56.152 738.336C56.2053 737.707 56.2587 737.109 56.312 736.544C56.376 735.968 56.4293 735.467 56.472 735.04L54.584 740.88H53.064L51.16 735.04C51.2133 735.456 51.2667 735.941 51.32 736.496C51.3733 737.04 51.4213 737.621 51.464 738.24C51.5067 738.848 51.544 739.456 51.576 740.064C51.608 740.672 51.624 741.237 51.624 741.76V746H50.216ZM85.6338 746V734.32H92.3538V735.632H87.0578V739.248H91.7938V740.544H87.0578V744.688H92.3538V746H85.6338ZM119.468 748.24V744.768H120.188C120.305 744.555 120.428 744.267 120.556 743.904C120.684 743.541 120.796 743.131 120.892 742.672C120.988 742.213 121.041 741.733 121.052 741.232L121.164 734.32H127.148V744.768H128.268V748.24H126.988V746H120.748V748.24H119.468ZM121.692 744.768H125.708V735.6H122.54L122.46 741.232C122.449 742.053 122.358 742.779 122.188 743.408C122.017 744.037 121.852 744.491 121.692 744.768ZM154.901 746L157.941 734.32H159.877L162.901 746H161.445L160.677 742.896H157.141L156.373 746H154.901ZM157.429 741.68H160.373L159.477 738.08C159.307 737.397 159.173 736.827 159.077 736.368C158.981 735.909 158.923 735.611 158.901 735.472C158.88 735.611 158.821 735.909 158.725 736.368C158.629 736.827 158.496 737.392 158.325 738.064L157.429 741.68ZM189.455 746.08V744.736H189.743C190.212 744.736 190.548 744.528 190.751 744.112C190.964 743.685 191.076 742.96 191.087 741.936L191.215 734.32H197.231V746H195.791V735.632H192.639L192.527 741.936C192.506 743.365 192.276 744.416 191.839 745.088C191.412 745.749 190.74 746.08 189.823 746.08H189.455ZM225.673 746V734.32H227.113V739.12H229.449C230.153 739.12 230.766 739.264 231.289 739.552C231.822 739.84 232.233 740.24 232.521 740.752C232.819 741.264 232.969 741.867 232.969 742.56C232.969 743.243 232.819 743.845 232.521 744.368C232.233 744.88 231.822 745.28 231.289 745.568C230.766 745.856 230.153 746 229.449 746H225.673ZM227.113 744.688H229.369C229.998 744.688 230.505 744.496 230.889 744.112C231.283 743.717 231.481 743.2 231.481 742.56C231.481 741.92 231.283 741.408 230.889 741.024C230.505 740.629 229.998 740.432 229.369 740.432H227.113V744.688Z" fill="black"/>
</svg>
