<svg width="596" height="842" viewBox="0 0 596 842" fill="none" xmlns="http://www.w3.org/2000/svg">
    <path d="M64.52 728V713.4H66.88L68.4 718.12C68.5467 718.547 68.68 718.973 68.8 719.4C68.92 719.813 69.0067 720.133 69.06 720.36C69.1267 720.133 69.2133 719.813 69.32 719.4C69.4267 718.973 69.5467 718.54 69.68 718.1L71.12 713.4H73.48V728H71.72V722.7C71.72 722.113 71.74 721.447 71.78 720.7C71.82 719.953 71.8733 719.193 71.94 718.42C72.0067 717.633 72.0733 716.887 72.14 716.18C72.22 715.46 72.2867 714.833 72.34 714.3L69.98 721.6H68.08L65.7 714.3C65.7667 714.82 65.8333 715.427 65.9 716.12C65.9667 716.8 66.0267 717.527 66.08 718.3C66.1333 719.06 66.18 719.82 66.22 720.58C66.26 721.34 66.28 722.047 66.28 722.7V728H64.52ZM99.2922 728V713.4H107.692V715.04H101.072V719.56H106.992V721.18H101.072V726.36H107.692V728H99.2922ZM132.084 730.8V726.46H132.984C133.131 726.193 133.284 725.833 133.444 725.38C133.604 724.927 133.744 724.413 133.864 723.84C133.984 723.267 134.051 722.667 134.064 722.04L134.204 713.4H141.684V726.46H143.084V730.8H141.484V728H133.684V730.8H132.084ZM134.864 726.46H139.884V715H135.924L135.824 722.04C135.811 723.067 135.698 723.973 135.484 724.76C135.271 725.547 135.064 726.113 134.864 726.46ZM166.877 728L170.677 713.4H173.097L176.877 728H175.057L174.097 724.12H169.677L168.717 728H166.877ZM170.037 722.6H173.717L172.597 718.1C172.383 717.247 172.217 716.533 172.097 715.96C171.977 715.387 171.903 715.013 171.877 714.84C171.85 715.013 171.777 715.387 171.657 715.96C171.537 716.533 171.37 717.24 171.157 718.08L170.037 722.6ZM200.569 728.1V726.42H200.929C201.515 726.42 201.935 726.16 202.189 725.64C202.455 725.107 202.595 724.2 202.609 722.92L202.769 713.4H210.289V728H208.489V715.04H204.549L204.409 722.92C204.382 724.707 204.095 726.02 203.549 726.86C203.015 727.687 202.175 728.1 201.029 728.1H200.569ZM236.341 728V713.4H238.141V719.4H241.061C241.941 719.4 242.708 719.58 243.361 719.94C244.028 720.3 244.541 720.8 244.901 721.44C245.274 722.08 245.461 722.833 245.461 723.7C245.461 724.553 245.274 725.307 244.901 725.96C244.541 726.6 244.028 727.1 243.361 727.46C242.708 727.82 241.941 728 241.061 728H236.341ZM238.141 726.36H240.961C241.748 726.36 242.381 726.12 242.861 725.64C243.354 725.147 243.601 724.5 243.601 723.7C243.601 722.9 243.354 722.26 242.861 721.78C242.381 721.287 241.748 721.04 240.961 721.04H238.141V726.36Z" fill="black"/>
</svg>
