<svg width="600" height="850" viewBox="0 0 600 850" fill="none" xmlns="http://www.w3.org/2000/svg">
    <path d="M50.232 750V733.94H53.488L55.05 739.044C55.2113 739.557 55.3433 740.027 55.446 740.452C55.5487 740.877 55.6147 741.185 55.644 741.376C55.6733 741.185 55.7393 740.877 55.842 740.452C55.9447 740.027 56.0693 739.557 56.216 739.044L57.712 733.94H60.968V750H58.394V745.006C58.394 744.273 58.416 743.473 58.46 742.608C58.504 741.743 58.5553 740.877 58.614 740.012C58.6727 739.147 58.7387 738.325 58.812 737.548C58.9 736.771 58.9733 736.089 59.032 735.502L56.876 743.092H54.368L52.146 735.502C52.2193 736.059 52.2927 736.719 52.366 737.482C52.4393 738.23 52.5053 739.037 52.564 739.902C52.6373 740.753 52.696 741.618 52.74 742.498C52.784 743.378 52.806 744.214 52.806 745.006V750H50.232ZM86.1274 750V733.94H95.7634V736.338H88.8334V740.518H94.9934V742.894H88.8334V747.602H95.7634V750H86.1274ZM119.889 753.08V747.646H120.703C120.864 747.367 121.033 746.993 121.209 746.524C121.399 746.04 121.561 745.49 121.693 744.874C121.825 744.258 121.891 743.598 121.891 742.894L122.023 733.94H130.669V747.646H132.077V753.08H129.547V750H122.419V753.08H119.889ZM123.453 747.646H128.029V736.316H124.597L124.487 742.894C124.472 743.965 124.347 744.925 124.113 745.776C123.878 746.627 123.658 747.25 123.453 747.646ZM155.344 750L159.392 733.94H162.934L167.004 750H164.188L163.308 746.106H159.04L158.16 750H155.344ZM159.546 743.862H162.802L161.834 739.55C161.673 738.831 161.534 738.186 161.416 737.614C161.299 737.027 161.218 736.602 161.174 736.338C161.13 736.602 161.05 737.027 160.932 737.614C160.83 738.186 160.69 738.824 160.514 739.528L159.546 743.862ZM190.14 750.11V747.602H190.69C191.188 747.602 191.57 747.367 191.834 746.898C192.098 746.414 192.237 745.688 192.252 744.72L192.428 733.94H201.25V750H198.5V736.492H195.134L194.98 744.72C194.965 746.465 194.598 747.8 193.88 748.724C193.161 749.648 192.156 750.11 190.866 750.11H190.14ZM226.673 750V733.94H229.423V740.342H231.953C233.038 740.342 233.977 740.547 234.769 740.958C235.576 741.354 236.199 741.911 236.639 742.63C237.094 743.349 237.321 744.192 237.321 745.16C237.321 746.128 237.094 746.979 236.639 747.712C236.199 748.431 235.576 748.995 234.769 749.406C233.977 749.802 233.038 750 231.953 750H226.673ZM229.423 747.58H231.909C232.701 747.58 233.332 747.36 233.801 746.92C234.285 746.48 234.527 745.901 234.527 745.182C234.527 744.449 234.285 743.862 233.801 743.422C233.332 742.982 232.701 742.762 231.909 742.762H229.423V747.58Z"
          fill="black"/>
</svg>
