<svg width="596" height="842" viewBox="0 0 596 842" fill="none" xmlns="http://www.w3.org/2000/svg">
    <path d="M374.884 523V508.4H383.124V523H381.324V510.04H376.684V523H374.884ZM374.004 557L377.804 542.4H380.224L384.004 557H382.184L381.224 553.12H376.804L375.844 557H374.004ZM377.164 551.6H380.844L379.724 547.1C379.511 546.247 379.344 545.533 379.224 544.96C379.104 544.387 379.031 544.013 379.004 543.84C378.977 544.013 378.904 544.387 378.784 544.96C378.664 545.533 378.497 546.24 378.284 547.08L377.164 551.6ZM374.844 591V576.4H379.544C380.451 576.4 381.237 576.58 381.904 576.94C382.571 577.287 383.084 577.78 383.444 578.42C383.817 579.06 384.004 579.82 384.004 580.7C384.004 581.567 383.817 582.327 383.444 582.98C383.084 583.62 382.571 584.12 381.904 584.48C381.237 584.827 380.451 585 379.544 585H376.644V591H374.844ZM376.644 583.38H379.544C380.331 583.38 380.957 583.14 381.424 582.66C381.904 582.167 382.144 581.513 382.144 580.7C382.144 579.873 381.904 579.22 381.424 578.74C380.957 578.26 380.331 578.02 379.544 578.02H376.644V583.38ZM374.004 625L377.804 610.4H380.224L384.004 625H382.184L381.224 621.12H376.804L375.844 625H374.004ZM377.164 619.6H380.844L379.724 615.1C379.511 614.247 379.344 613.533 379.224 612.96C379.104 612.387 379.031 612.013 379.004 611.84C378.977 612.013 378.904 612.387 378.784 612.96C378.664 613.533 378.497 614.24 378.284 615.08L377.164 619.6ZM374.324 659L374.284 644.4H375.964V657.64H378.304V644.4H379.744V657.64H382.064V644.4H383.724V659H374.324ZM380.784 693.2C379.757 693.2 378.944 692.86 378.344 692.18C377.744 691.5 377.444 690.573 377.444 689.4V686.3H375.864V693H374.204V678.4H375.864V684.7H377.444V682C377.444 680.813 377.737 679.887 378.324 679.22C378.924 678.54 379.744 678.2 380.784 678.2C381.851 678.2 382.684 678.54 383.284 679.22C383.897 679.9 384.204 680.827 384.204 682V689.4C384.204 690.573 383.897 691.5 383.284 692.18C382.684 692.86 381.851 693.2 380.784 693.2ZM380.784 691.64C381.357 691.64 381.791 691.447 382.084 691.06C382.391 690.673 382.544 690.12 382.544 689.4V682C382.544 681.28 382.391 680.727 382.084 680.34C381.791 679.953 381.357 679.76 380.784 679.76C380.211 679.76 379.771 679.953 379.464 680.34C379.171 680.727 379.024 681.28 379.024 682V689.4C379.024 690.12 379.171 690.673 379.464 691.06C379.771 691.447 380.211 691.64 380.784 691.64ZM378.104 727V714.02H374.104V712.38H383.904V714.02H379.904V727H378.104Z" fill="black"/>
</svg>
