<svg width="600" height="850" viewBox="0 0 600 850" fill="none" xmlns="http://www.w3.org/2000/svg">
    <path d="M367.12 540V523.94H376.888V540H374.138V526.492H369.87V540H367.12ZM366.174 575L370.222 558.94H373.764L377.834 575H375.018L374.138 571.106H369.87L368.99 575H366.174ZM370.376 568.862H373.632L372.664 564.55C372.503 563.831 372.364 563.186 372.246 562.614C372.129 562.027 372.048 561.602 372.004 561.338C371.96 561.602 371.88 562.027 371.762 562.614C371.66 563.186 371.52 563.824 371.344 564.528L370.376 568.862ZM367.098 610V593.94H372.444C373.515 593.94 374.446 594.145 375.238 594.556C376.045 594.967 376.668 595.546 377.108 596.294C377.548 597.027 377.768 597.893 377.768 598.89C377.768 599.873 377.541 600.738 377.086 601.486C376.646 602.234 376.03 602.813 375.238 603.224C374.446 603.635 373.515 603.84 372.444 603.84H369.848V610H367.098ZM369.848 601.354H372.444C373.207 601.354 373.816 601.134 374.27 600.694C374.74 600.239 374.974 599.638 374.974 598.89C374.974 598.127 374.74 597.526 374.27 597.086C373.816 596.646 373.207 596.426 372.444 596.426H369.848V601.354ZM366.174 645L370.222 628.94H373.764L377.834 645H375.018L374.138 641.106H369.87L368.99 645H366.174ZM370.376 638.862H373.632L372.664 634.55C372.503 633.831 372.364 633.186 372.246 632.614C372.129 632.027 372.048 631.602 372.004 631.338C371.96 631.602 371.88 632.027 371.762 632.614C371.66 633.186 371.52 633.824 371.344 634.528L370.376 638.862ZM366.526 680L366.504 663.94H368.858V678.086H371.014V663.94H373.016V678.086H375.172V663.94H377.504V680H366.526ZM374.006 715.22C372.921 715.22 372.056 714.853 371.41 714.12C370.765 713.387 370.442 712.404 370.442 711.172V707.806H368.814V715H366.46V698.94H368.814V705.716H370.442V702.768C370.442 701.521 370.758 700.539 371.388 699.82C372.034 699.087 372.906 698.72 374.006 698.72C375.194 698.72 376.133 699.079 376.822 699.798C377.512 700.517 377.856 701.507 377.856 702.768V711.172C377.856 712.404 377.512 713.387 376.822 714.12C376.133 714.853 375.194 715.22 374.006 715.22ZM374.006 713.086C374.49 713.086 374.857 712.932 375.106 712.624C375.37 712.301 375.502 711.861 375.502 711.304V702.636C375.502 702.079 375.37 701.646 375.106 701.338C374.842 701.015 374.476 700.854 374.006 700.854C373.522 700.854 373.148 701.015 372.884 701.338C372.635 701.646 372.51 702.079 372.51 702.636V711.304C372.51 711.861 372.635 712.301 372.884 712.624C373.148 712.932 373.522 713.086 374.006 713.086ZM370.618 750V736.492H366.416V733.94H377.592V736.492H373.39V750H370.618Z" fill="black"/>
</svg>
