<svg width="600" height="850" viewBox="0 0 600 850" fill="none" xmlns="http://www.w3.org/2000/svg">
    <path d="M365.707 536V524.32H372.299V536H370.859V525.632H367.147V536H365.707ZM365.003 571L368.043 559.32H369.979L373.003 571H371.547L370.779 567.896H367.243L366.475 571H365.003ZM367.531 566.68H370.475L369.579 563.08C369.408 562.397 369.275 561.827 369.179 561.368C369.083 560.909 369.024 560.611 369.003 560.472C368.982 560.611 368.923 560.909 368.827 561.368C368.731 561.827 368.598 562.392 368.427 563.064L367.531 566.68ZM365.675 606V594.32H369.435C370.16 594.32 370.79 594.464 371.323 594.752C371.856 595.029 372.267 595.424 372.555 595.936C372.854 596.448 373.003 597.056 373.003 597.76C373.003 598.453 372.854 599.061 372.555 599.584C372.267 600.096 371.856 600.496 371.323 600.784C370.79 601.061 370.16 601.2 369.435 601.2H367.115V606H365.675ZM367.115 599.904H369.435C370.064 599.904 370.566 599.712 370.939 599.328C371.323 598.933 371.515 598.411 371.515 597.76C371.515 597.099 371.323 596.576 370.939 596.192C370.566 595.808 370.064 595.616 369.435 595.616H367.115V599.904ZM365.003 641L368.043 629.32H369.979L373.003 641H371.547L370.779 637.896H367.243L366.475 641H365.003ZM367.531 636.68H370.475L369.579 633.08C369.408 632.397 369.275 631.827 369.179 631.368C369.083 630.909 369.024 630.611 369.003 630.472C368.982 630.611 368.923 630.909 368.827 631.368C368.731 631.827 368.598 632.392 368.427 633.064L367.531 636.68ZM365.259 676L365.227 664.32H366.571V674.912H368.443V664.32H369.595V674.912H371.451V664.32H372.779V676H365.259ZM370.427 711.16C369.606 711.16 368.955 710.888 368.475 710.344C367.995 709.8 367.755 709.059 367.755 708.12V705.64H366.491V711H365.163V699.32H366.491V704.36H367.755V702.2C367.755 701.251 367.99 700.509 368.459 699.976C368.939 699.432 369.595 699.16 370.427 699.16C371.28 699.16 371.947 699.432 372.427 699.976C372.918 700.52 373.163 701.261 373.163 702.2V708.12C373.163 709.059 372.918 709.8 372.427 710.344C371.947 710.888 371.28 711.16 370.427 711.16ZM370.427 709.912C370.886 709.912 371.232 709.757 371.467 709.448C371.712 709.139 371.835 708.696 371.835 708.12V702.2C371.835 701.624 371.712 701.181 371.467 700.872C371.232 700.563 370.886 700.408 370.427 700.408C369.968 700.408 369.616 700.563 369.371 700.872C369.136 701.181 369.019 701.624 369.019 702.2V708.12C369.019 708.696 369.136 709.139 369.371 709.448C369.616 709.757 369.968 709.912 370.427 709.912ZM368.283 746V735.616H365.083V734.304H372.923V735.616H369.723V746H368.283Z" fill="black"/>
</svg>
