<svg width="600" height="850" viewBox="0 0 600 850" fill="none" xmlns="http://www.w3.org/2000/svg">
    <path d="M336.688 645.22C335.661 645.22 334.759 645.029 333.982 644.648C333.219 644.252 332.625 643.702 332.2 642.998C331.789 642.279 331.584 641.436 331.584 640.468V633.472C331.584 632.489 331.789 631.646 332.2 630.942C332.625 630.238 333.219 629.695 333.982 629.314C334.759 628.918 335.661 628.72 336.688 628.72C337.729 628.72 338.624 628.918 339.372 629.314C340.135 629.695 340.729 630.238 341.154 630.942C341.579 631.646 341.792 632.489 341.792 633.472H339.02C339.02 632.709 338.815 632.13 338.404 631.734C338.008 631.338 337.436 631.14 336.688 631.14C335.94 631.14 335.361 631.338 334.95 631.734C334.539 632.13 334.334 632.702 334.334 633.45V640.468C334.334 641.216 334.539 641.795 334.95 642.206C335.361 642.602 335.94 642.8 336.688 642.8C337.436 642.8 338.008 642.602 338.404 642.206C338.815 641.795 339.02 641.216 339.02 640.468H341.792C341.792 641.421 341.579 642.257 341.154 642.976C340.729 643.695 340.135 644.252 339.372 644.648C338.624 645.029 337.729 645.22 336.688 645.22ZM365.961 645L370.009 628.94H373.551L377.621 645H374.805L373.925 641.106H369.657L368.777 645H365.961ZM370.163 638.862H373.419L372.451 634.55C372.29 633.831 372.151 633.186 372.033 632.614C371.916 632.027 371.835 631.602 371.791 631.338C371.747 631.602 371.667 632.027 371.549 632.614C371.447 633.186 371.307 633.824 371.131 634.528L370.163 638.862ZM401.615 645V628.94H404.871L406.433 634.044C406.594 634.557 406.726 635.027 406.829 635.452C406.931 635.877 406.997 636.185 407.027 636.376C407.056 636.185 407.122 635.877 407.225 635.452C407.327 635.027 407.452 634.557 407.599 634.044L409.095 628.94H412.351V645H409.777V640.006C409.777 639.273 409.799 638.473 409.843 637.608C409.887 636.743 409.938 635.877 409.997 635.012C410.055 634.147 410.121 633.325 410.195 632.548C410.283 631.771 410.356 631.089 410.415 630.502L408.259 638.092H405.751L403.529 630.502C403.602 631.059 403.675 631.719 403.749 632.482C403.822 633.23 403.888 634.037 403.947 634.902C404.02 635.753 404.079 636.618 404.123 637.498C404.167 638.378 404.189 639.214 404.189 640.006V645H401.615ZM442.174 645.22C441.148 645.22 440.253 645.029 439.49 644.648C438.742 644.252 438.163 643.702 437.752 642.998C437.356 642.279 437.158 641.436 437.158 640.468V633.472C437.158 632.504 437.356 631.668 437.752 630.964C438.163 630.245 438.742 629.695 439.49 629.314C440.253 628.918 441.148 628.72 442.174 628.72C443.216 628.72 444.11 628.918 444.858 629.314C445.606 629.695 446.178 630.245 446.574 630.964C446.985 631.668 447.19 632.497 447.19 633.45V640.468C447.19 641.436 446.985 642.279 446.574 642.998C446.178 643.702 445.606 644.252 444.858 644.648C444.11 645.029 443.216 645.22 442.174 645.22ZM442.174 642.8C442.922 642.8 443.487 642.602 443.868 642.206C444.25 641.795 444.44 641.216 444.44 640.468V633.472C444.44 632.709 444.25 632.13 443.868 631.734C443.487 631.338 442.922 631.14 442.174 631.14C441.426 631.14 440.862 631.338 440.48 631.734C440.099 632.13 439.908 632.709 439.908 633.472V640.468C439.908 641.216 440.099 641.795 440.48 642.206C440.876 642.602 441.441 642.8 442.174 642.8ZM471.14 645.11V642.602H471.69C472.188 642.602 472.57 642.367 472.834 641.898C473.098 641.414 473.237 640.688 473.252 639.72L473.428 628.94H482.25V645H479.5V631.492H476.134L475.98 639.72C475.965 641.465 475.598 642.8 474.88 643.724C474.161 644.648 473.156 645.11 471.866 645.11H471.14ZM507.893 645V628.94H517.529V631.338H510.599V635.518H516.759V637.894H510.599V642.602H517.529V645H507.893ZM546.362 645V631.492H542.16V628.94H553.336V631.492H549.134V645H546.362Z" fill="black"/>
</svg>
