<svg width="600" height="850" viewBox="0 0 600 850" fill="none" xmlns="http://www.w3.org/2000/svg">
    <path d="M333.864 641.16C333.16 641.16 332.547 641.027 332.024 640.76C331.512 640.493 331.112 640.109 330.824 639.608C330.547 639.096 330.408 638.493 330.408 637.8V632.52C330.408 631.816 330.547 631.213 330.824 630.712C331.112 630.211 331.512 629.827 332.024 629.56C332.547 629.293 333.16 629.16 333.864 629.16C334.568 629.16 335.176 629.299 335.688 629.576C336.2 629.843 336.595 630.227 336.872 630.728C337.149 631.229 337.288 631.827 337.288 632.52H335.848C335.848 631.859 335.672 631.352 335.32 631C334.979 630.637 334.493 630.456 333.864 630.456C333.235 630.456 332.739 630.632 332.376 630.984C332.024 631.336 331.848 631.843 331.848 632.504V637.8C331.848 638.461 332.024 638.973 332.376 639.336C332.739 639.688 333.235 639.864 333.864 639.864C334.493 639.864 334.979 639.688 335.32 639.336C335.672 638.973 335.848 638.461 335.848 637.8H337.288C337.288 638.483 337.149 639.08 336.872 639.592C336.595 640.093 336.2 640.483 335.688 640.76C335.176 641.027 334.568 641.16 333.864 641.16ZM364.834 641L367.874 629.32H369.81L372.834 641H371.378L370.61 637.896H367.074L366.306 641H364.834ZM367.362 636.68H370.306L369.41 633.08C369.239 632.397 369.106 631.827 369.01 631.368C368.914 630.909 368.855 630.611 368.834 630.472C368.812 630.611 368.754 630.909 368.658 631.368C368.562 631.827 368.428 632.392 368.258 633.064L367.362 636.68ZM400.284 641V629.32H402.172L403.388 633.096C403.505 633.437 403.612 633.779 403.708 634.12C403.804 634.451 403.873 634.707 403.916 634.888C403.969 634.707 404.038 634.451 404.124 634.12C404.209 633.779 404.305 633.432 404.412 633.08L405.564 629.32H407.452V641H406.044V636.76C406.044 636.291 406.06 635.757 406.092 635.16C406.124 634.563 406.166 633.955 406.22 633.336C406.273 632.707 406.326 632.109 406.38 631.544C406.444 630.968 406.497 630.467 406.54 630.04L404.652 635.88H403.132L401.228 630.04C401.281 630.456 401.334 630.941 401.388 631.496C401.441 632.04 401.489 632.621 401.532 633.24C401.574 633.848 401.612 634.456 401.644 635.064C401.676 635.672 401.692 636.237 401.692 636.76V641H400.284ZM438.901 641.16C438.197 641.16 437.589 641.027 437.077 640.76C436.576 640.493 436.187 640.109 435.909 639.608C435.643 639.096 435.509 638.493 435.509 637.8V632.52C435.509 631.816 435.643 631.213 435.909 630.712C436.187 630.211 436.576 629.827 437.077 629.56C437.589 629.293 438.197 629.16 438.901 629.16C439.605 629.16 440.208 629.293 440.709 629.56C441.221 629.827 441.611 630.211 441.877 630.712C442.155 631.213 442.293 631.811 442.293 632.504V637.8C442.293 638.493 442.155 639.096 441.877 639.608C441.611 640.109 441.221 640.493 440.709 640.76C440.208 641.027 439.605 641.16 438.901 641.16ZM438.901 639.864C439.531 639.864 440.011 639.688 440.341 639.336C440.683 638.973 440.853 638.461 440.853 637.8V632.52C440.853 631.859 440.683 631.352 440.341 631C440.011 630.637 439.531 630.456 438.901 630.456C438.283 630.456 437.803 630.637 437.461 631C437.12 631.352 436.949 631.859 436.949 632.52V637.8C436.949 638.461 437.12 638.973 437.461 639.336C437.803 639.688 438.283 639.864 438.901 639.864ZM469.455 641.08V639.736H469.743C470.212 639.736 470.548 639.528 470.751 639.112C470.964 638.685 471.076 637.96 471.087 636.936L471.215 629.32H477.231V641H475.791V630.632H472.639L472.527 636.936C472.506 638.365 472.276 639.416 471.839 640.088C471.412 640.749 470.74 641.08 469.823 641.08H469.455ZM505.769 641V629.32H512.489V630.632H507.193V634.248H511.929V635.544H507.193V639.688H512.489V641H505.769ZM543.282 641V630.616H540.082V629.304H547.922V630.616H544.722V641H543.282Z" fill="black"/>
</svg>
