<svg width="596" height="842" viewBox="0 0 596 842" fill="none" xmlns="http://www.w3.org/2000/svg">
    <path d="M345.08 625.2C344.2 625.2 343.433 625.033 342.78 624.7C342.14 624.367 341.64 623.887 341.28 623.26C340.933 622.62 340.76 621.867 340.76 621V614.4C340.76 613.52 340.933 612.767 341.28 612.14C341.64 611.513 342.14 611.033 342.78 610.7C343.433 610.367 344.2 610.2 345.08 610.2C345.96 610.2 346.72 610.373 347.36 610.72C348 611.053 348.493 611.533 348.84 612.16C349.187 612.787 349.36 613.533 349.36 614.4H347.56C347.56 613.573 347.34 612.94 346.9 612.5C346.473 612.047 345.867 611.82 345.08 611.82C344.293 611.82 343.673 612.04 343.22 612.48C342.78 612.92 342.56 613.553 342.56 614.38V621C342.56 621.827 342.78 622.467 343.22 622.92C343.673 623.36 344.293 623.58 345.08 623.58C345.867 623.58 346.473 623.36 346.9 622.92C347.34 622.467 347.56 621.827 347.56 621H349.36C349.36 621.853 349.187 622.6 348.84 623.24C348.493 623.867 348 624.353 347.36 624.7C346.72 625.033 345.96 625.2 345.08 625.2ZM374.292 625L378.092 610.4H380.512L384.292 625H382.472L381.512 621.12H377.092L376.132 625H374.292ZM377.452 619.6H381.132L380.012 615.1C379.799 614.247 379.632 613.533 379.512 612.96C379.392 612.387 379.319 612.013 379.292 611.84C379.266 612.013 379.192 612.387 379.072 612.96C378.952 613.533 378.786 614.24 378.572 615.08L377.452 619.6ZM409.104 625V610.4H411.464L412.984 615.12C413.131 615.547 413.264 615.973 413.384 616.4C413.504 616.813 413.591 617.133 413.644 617.36C413.711 617.133 413.798 616.813 413.904 616.4C414.011 615.973 414.131 615.54 414.264 615.1L415.704 610.4H418.064V625H416.304V619.7C416.304 619.113 416.324 618.447 416.364 617.7C416.404 616.953 416.458 616.193 416.524 615.42C416.591 614.633 416.658 613.887 416.724 613.18C416.804 612.46 416.871 611.833 416.924 611.3L414.564 618.6H412.664L410.284 611.3C410.351 611.82 410.418 612.427 410.484 613.12C410.551 613.8 410.611 614.527 410.664 615.3C410.718 616.06 410.764 616.82 410.804 617.58C410.844 618.34 410.864 619.047 410.864 619.7V625H409.104ZM447.877 625.2C446.997 625.2 446.237 625.033 445.597 624.7C444.97 624.367 444.483 623.887 444.137 623.26C443.803 622.62 443.637 621.867 443.637 621V614.4C443.637 613.52 443.803 612.767 444.137 612.14C444.483 611.513 444.97 611.033 445.597 610.7C446.237 610.367 446.997 610.2 447.877 610.2C448.757 610.2 449.51 610.367 450.137 610.7C450.777 611.033 451.263 611.513 451.597 612.14C451.943 612.767 452.117 613.513 452.117 614.38V621C452.117 621.867 451.943 622.62 451.597 623.26C451.263 623.887 450.777 624.367 450.137 624.7C449.51 625.033 448.757 625.2 447.877 625.2ZM447.877 623.58C448.663 623.58 449.263 623.36 449.677 622.92C450.103 622.467 450.317 621.827 450.317 621V614.4C450.317 613.573 450.103 612.94 449.677 612.5C449.263 612.047 448.663 611.82 447.877 611.82C447.103 611.82 446.503 612.047 446.077 612.5C445.65 612.94 445.437 613.573 445.437 614.4V621C445.437 621.827 445.65 622.467 446.077 622.92C446.503 623.36 447.103 623.58 447.877 623.58ZM476.569 625.1V623.42H476.929C477.515 623.42 477.935 623.16 478.189 622.64C478.455 622.107 478.595 621.2 478.609 619.92L478.769 610.4H486.289V625H484.489V612.04H480.549L480.409 619.92C480.382 621.707 480.095 623.02 479.549 623.86C479.015 624.687 478.175 625.1 477.029 625.1H476.569ZM512.461 625V610.4H520.861V612.04H514.241V616.56H520.161V618.18H514.241V623.36H520.861V625H512.461ZM549.853 625V612.02H545.853V610.38H555.653V612.02H551.653V625H549.853Z" fill="black"/>
</svg>
