<svg width="600" height="850" viewBox="0 0 600 850" fill="none" xmlns="http://www.w3.org/2000/svg">
    <path d="M472.12 575V558.94H481.888V575H479.138V561.492H474.87V575H472.12ZM471.988 610V593.94H474.496V601.794C474.496 602.307 474.482 602.879 474.452 603.51C474.423 604.141 474.386 604.757 474.342 605.358C474.298 605.959 474.262 606.48 474.232 606.92L478.654 593.94H482.02V610H479.512V602.388C479.512 601.875 479.527 601.288 479.556 600.628C479.586 599.968 479.622 599.315 479.666 598.67C479.725 598.025 479.776 597.475 479.82 597.02L475.354 610H471.988ZM470.778 645.11V642.602H471.328C471.827 642.602 472.208 642.367 472.472 641.898C472.736 641.414 472.876 640.688 472.89 639.72L473.066 628.94H481.888V645H479.138V631.492H475.772L475.618 639.72C475.604 641.465 475.237 642.8 474.518 643.724C473.8 644.648 472.795 645.11 471.504 645.11H470.778ZM477.004 680.22C475.978 680.22 475.083 680.029 474.32 679.648C473.572 679.252 472.993 678.702 472.582 677.998C472.186 677.279 471.988 676.436 471.988 675.468V668.472C471.988 667.504 472.186 666.668 472.582 665.964C472.993 665.245 473.572 664.695 474.32 664.314C475.083 663.918 475.978 663.72 477.004 663.72C478.046 663.72 478.94 663.918 479.688 664.314C480.436 664.695 481.008 665.245 481.404 665.964C481.815 666.668 482.02 667.497 482.02 668.45V675.468C482.02 676.436 481.815 677.279 481.404 677.998C481.008 678.702 480.436 679.252 479.688 679.648C478.94 680.029 478.046 680.22 477.004 680.22ZM477.004 677.8C477.752 677.8 478.317 677.602 478.698 677.206C479.08 676.795 479.27 676.216 479.27 675.468V668.472C479.27 667.709 479.08 667.13 478.698 666.734C478.317 666.338 477.752 666.14 477.004 666.14C476.256 666.14 475.692 666.338 475.31 666.734C474.929 667.13 474.738 667.709 474.738 668.472V675.468C474.738 676.216 474.929 676.795 475.31 677.206C475.706 677.602 476.271 677.8 477.004 677.8ZM475.618 715V701.492H471.416V698.94H482.592V701.492H478.39V715H475.618Z" fill="black"/>
</svg>
