<svg width="600" height="850" viewBox="0 0 600 850" fill="none" xmlns="http://www.w3.org/2000/svg">
    <path d="M470.707 571V559.32H477.299V571H475.859V560.632H472.147V571H470.707ZM470.643 606V594.32H472.035V600.88C472.035 601.264 472.024 601.675 472.003 602.112C471.992 602.539 471.976 602.949 471.955 603.344C471.934 603.728 471.912 604.053 471.891 604.32L475.443 594.32H477.363V606H475.971V599.44C475.971 599.045 475.976 598.635 475.987 598.208C476.008 597.771 476.03 597.36 476.051 596.976C476.083 596.581 476.11 596.256 476.131 596L472.563 606H470.643ZM469.523 641.08V639.736H469.811C470.28 639.736 470.616 639.528 470.819 639.112C471.032 638.685 471.144 637.96 471.155 636.936L471.283 629.32H477.299V641H475.859V630.632H472.707L472.595 636.936C472.574 638.365 472.344 639.416 471.907 640.088C471.48 640.749 470.808 641.08 469.891 641.08H469.523ZM474.003 676.16C473.299 676.16 472.691 676.027 472.179 675.76C471.678 675.493 471.288 675.109 471.011 674.608C470.744 674.096 470.611 673.493 470.611 672.8V667.52C470.611 666.816 470.744 666.213 471.011 665.712C471.288 665.211 471.678 664.827 472.179 664.56C472.691 664.293 473.299 664.16 474.003 664.16C474.707 664.16 475.31 664.293 475.811 664.56C476.323 664.827 476.712 665.211 476.979 665.712C477.256 666.213 477.395 666.811 477.395 667.504V672.8C477.395 673.493 477.256 674.096 476.979 674.608C476.712 675.109 476.323 675.493 475.811 675.76C475.31 676.027 474.707 676.16 474.003 676.16ZM474.003 674.864C474.632 674.864 475.112 674.688 475.443 674.336C475.784 673.973 475.955 673.461 475.955 672.8V667.52C475.955 666.859 475.784 666.352 475.443 666C475.112 665.637 474.632 665.456 474.003 665.456C473.384 665.456 472.904 665.637 472.563 666C472.222 666.352 472.051 666.859 472.051 667.52V672.8C472.051 673.461 472.222 673.973 472.563 674.336C472.904 674.688 473.384 674.864 474.003 674.864ZM473.283 711V700.616H470.083V699.304H477.923V700.616H474.723V711H473.283Z" fill="black"/>
</svg>
