<svg width="596" height="842" viewBox="0 0 596 842" fill="none" xmlns="http://www.w3.org/2000/svg">
    <path d="M477.884 559V544.4H486.124V559H484.324V546.04H479.684V559H477.884ZM477.804 593V578.4H479.544V586.6C479.544 587.08 479.531 587.593 479.504 588.14C479.491 588.673 479.471 589.187 479.444 589.68C479.417 590.16 479.391 590.567 479.364 590.9L483.804 578.4H486.204V593H484.464V584.8C484.464 584.307 484.471 583.793 484.484 583.26C484.511 582.713 484.537 582.2 484.564 581.72C484.604 581.227 484.637 580.82 484.664 580.5L480.204 593H477.804ZM476.404 627.1V625.42H476.764C477.351 625.42 477.771 625.16 478.024 624.64C478.291 624.107 478.431 623.2 478.444 621.92L478.604 612.4H486.124V627H484.324V614.04H480.384L480.244 621.92C480.217 623.707 479.931 625.02 479.384 625.86C478.851 626.687 478.011 627.1 476.864 627.1H476.404ZM482.004 661.2C481.124 661.2 480.364 661.033 479.724 660.7C479.097 660.367 478.611 659.887 478.264 659.26C477.931 658.62 477.764 657.867 477.764 657V650.4C477.764 649.52 477.931 648.767 478.264 648.14C478.611 647.513 479.097 647.033 479.724 646.7C480.364 646.367 481.124 646.2 482.004 646.2C482.884 646.2 483.637 646.367 484.264 646.7C484.904 647.033 485.391 647.513 485.724 648.14C486.071 648.767 486.244 649.513 486.244 650.38V657C486.244 657.867 486.071 658.62 485.724 659.26C485.391 659.887 484.904 660.367 484.264 660.7C483.637 661.033 482.884 661.2 482.004 661.2ZM482.004 659.58C482.791 659.58 483.391 659.36 483.804 658.92C484.231 658.467 484.444 657.827 484.444 657V650.4C484.444 649.573 484.231 648.94 483.804 648.5C483.391 648.047 482.791 647.82 482.004 647.82C481.231 647.82 480.631 648.047 480.204 648.5C479.777 648.94 479.564 649.573 479.564 650.4V657C479.564 657.827 479.777 658.467 480.204 658.92C480.631 659.36 481.231 659.58 482.004 659.58ZM481.104 695V682.02H477.104V680.38H486.904V682.02H482.904V695H481.104Z" fill="black"/>
</svg>
