<svg width="596" height="842" viewBox="0 0 596 842" fill="none" xmlns="http://www.w3.org/2000/svg">
    <path d="M169.2 557V542.4H177.7V544.04H171V557H169.2ZM203.132 557V542.4H207.832C208.739 542.4 209.526 542.58 210.192 542.94C210.859 543.287 211.372 543.78 211.732 544.42C212.106 545.06 212.292 545.82 212.292 546.7C212.292 547.567 212.106 548.327 211.732 548.98C211.372 549.62 210.859 550.12 210.192 550.48C209.526 550.827 208.739 551 207.832 551H204.932V557H203.132ZM204.932 549.38H207.832C208.619 549.38 209.246 549.14 209.712 548.66C210.192 548.167 210.432 547.513 210.432 546.7C210.432 545.873 210.192 545.22 209.712 544.74C209.246 544.26 208.619 544.02 207.832 544.02H204.932V549.38ZM236.584 557L240.384 542.4H242.804L246.584 557H244.764L243.804 553.12H239.384L238.424 557H236.584ZM239.744 551.6H243.424L242.304 547.1C242.091 546.247 241.924 545.533 241.804 544.96C241.684 544.387 241.611 544.013 241.584 543.84C241.558 544.013 241.484 544.387 241.364 544.96C241.244 545.533 241.078 546.24 240.864 547.08L239.744 551.6ZM271.737 557V542.4H273.537V548.64H278.217V542.4H280.017V557H278.217V550.28H273.537V557H271.737ZM305.169 557L308.969 542.4H311.389L315.169 557H313.349L312.389 553.12H307.969L307.009 557H305.169ZM308.329 551.6H312.009L310.889 547.1C310.675 546.247 310.509 545.533 310.389 544.96C310.269 544.387 310.195 544.013 310.169 543.84C310.142 544.013 310.069 544.387 309.949 544.96C309.829 545.533 309.662 546.24 309.449 547.08L308.329 551.6ZM343.561 557V544.02H339.561V542.38H349.361V544.02H345.361V557H343.561ZM373.753 557L377.553 542.4H379.973L383.753 557H381.933L380.973 553.12H376.553L375.593 557H373.753ZM376.913 551.6H380.593L379.473 547.1C379.26 546.247 379.093 545.533 378.973 544.96C378.853 544.387 378.78 544.013 378.753 543.84C378.726 544.013 378.653 544.387 378.533 544.96C378.413 545.533 378.246 546.24 378.033 547.08L376.913 551.6Z" fill="black"/>
</svg>
