<svg width="600" height="850" viewBox="0 0 600 850" fill="none" xmlns="http://www.w3.org/2000/svg">
    <path d="M156.222 575V558.94H165.836V561.492H158.972V575H156.222ZM190.885 575V558.94H196.231C197.302 558.94 198.233 559.145 199.025 559.556C199.832 559.967 200.455 560.546 200.895 561.294C201.335 562.027 201.555 562.893 201.555 563.89C201.555 564.873 201.328 565.738 200.873 566.486C200.433 567.234 199.817 567.813 199.025 568.224C198.233 568.635 197.302 568.84 196.231 568.84H193.635V575H190.885ZM193.635 566.354H196.231C196.994 566.354 197.603 566.134 198.057 565.694C198.527 565.239 198.761 564.638 198.761 563.89C198.761 563.127 198.527 562.526 198.057 562.086C197.603 561.646 196.994 561.426 196.231 561.426H193.635V566.354ZM225.153 575L229.201 558.94H232.743L236.813 575H233.997L233.117 571.106H228.849L227.969 575H225.153ZM229.355 568.862H232.611L231.643 564.55C231.481 563.831 231.342 563.186 231.225 562.614C231.107 562.027 231.027 561.602 230.983 561.338C230.939 561.602 230.858 562.027 230.741 562.614C230.638 563.186 230.499 563.824 230.323 564.528L229.355 568.862ZM261.268 575V558.94H264.018V565.386H268.33V558.94H271.08V575H268.33V567.938H264.018V575H261.268ZM295.536 575L299.584 558.94H303.126L307.196 575H304.38L303.5 571.106H299.232L298.352 575H295.536ZM299.738 568.862H302.994L302.026 564.55C301.864 563.831 301.725 563.186 301.608 562.614C301.49 562.027 301.41 561.602 301.366 561.338C301.322 561.602 301.241 562.027 301.124 562.614C301.021 563.186 300.882 563.824 300.706 564.528L299.738 568.862ZM335.171 575V561.492H330.969V558.94H342.145V561.492H337.943V575H335.171ZM365.918 575L369.966 558.94H373.508L377.578 575H374.762L373.882 571.106H369.614L368.734 575H365.918ZM370.12 568.862H373.376L372.408 564.55C372.247 563.831 372.108 563.186 371.99 562.614C371.873 562.027 371.792 561.602 371.748 561.338C371.704 561.602 371.624 562.027 371.506 562.614C371.404 563.186 371.264 563.824 371.088 564.528L370.12 568.862Z" fill="black"/>
</svg>
