<svg width="600" height="850" viewBox="0 0 600 850" fill="none" xmlns="http://www.w3.org/2000/svg">
    <path d="M155.76 571V559.32H162.56V560.632H157.2V571H155.76ZM190.506 571V559.32H194.266C194.991 559.32 195.62 559.464 196.154 559.752C196.687 560.029 197.098 560.424 197.386 560.936C197.684 561.448 197.834 562.056 197.834 562.76C197.834 563.453 197.684 564.061 197.386 564.584C197.098 565.096 196.687 565.496 196.154 565.784C195.62 566.061 194.991 566.2 194.266 566.2H191.946V571H190.506ZM191.946 564.904H194.266C194.895 564.904 195.396 564.712 195.77 564.328C196.154 563.933 196.346 563.411 196.346 562.76C196.346 562.099 196.154 561.576 195.77 561.192C195.396 560.808 194.895 560.616 194.266 560.616H191.946V564.904ZM224.868 571L227.908 559.32H229.844L232.868 571H231.412L230.644 567.896H227.108L226.34 571H224.868ZM227.396 566.68H230.34L229.444 563.08C229.273 562.397 229.14 561.827 229.044 561.368C228.948 560.909 228.889 560.611 228.868 560.472C228.846 560.611 228.788 560.909 228.692 561.368C228.596 561.827 228.462 562.392 228.292 563.064L227.396 566.68ZM260.589 571V559.32H262.029V564.312H265.773V559.32H267.213V571H265.773V565.624H262.029V571H260.589ZM294.935 571L297.975 559.32H299.911L302.935 571H301.479L300.711 567.896H297.175L296.407 571H294.935ZM297.463 566.68H300.407L299.511 563.08C299.34 562.397 299.207 561.827 299.111 561.368C299.015 560.909 298.956 560.611 298.935 560.472C298.914 560.611 298.855 560.909 298.759 561.368C298.663 561.827 298.53 562.392 298.359 563.064L297.463 566.68ZM333.249 571V560.616H330.049V559.304H337.889V560.616H334.689V571H333.249ZM365.002 571L368.042 559.32H369.978L373.002 571H371.546L370.778 567.896H367.242L366.474 571H365.002ZM367.53 566.68H370.474L369.578 563.08C369.408 562.397 369.274 561.827 369.178 561.368C369.082 560.909 369.024 560.611 369.002 560.472C368.981 560.611 368.922 560.909 368.826 561.368C368.73 561.827 368.597 562.392 368.426 563.064L367.53 566.68Z" fill="black"/>
</svg>
