<svg width="600" height="850" viewBox="0 0 600 850" fill="none" xmlns="http://www.w3.org/2000/svg">
    <path d="M365.504 116V104.32H372.096V116H370.656V105.632H366.944V116H365.504ZM402.25 116L403.434 112.976L399.994 104.32H401.562L403.658 110.032C403.796 110.395 403.908 110.741 403.994 111.072C404.079 111.392 404.132 111.632 404.154 111.792C404.175 111.632 404.223 111.392 404.298 111.072C404.372 110.741 404.468 110.395 404.586 110.032L406.426 104.32H407.994L403.786 116H402.25ZM439.251 116.16C438.547 116.16 437.934 116.027 437.411 115.76C436.899 115.493 436.499 115.109 436.211 114.608C435.934 114.096 435.795 113.493 435.795 112.8V107.52C435.795 106.816 435.934 106.213 436.211 105.712C436.499 105.211 436.899 104.827 437.411 104.56C437.934 104.293 438.547 104.16 439.251 104.16C439.955 104.16 440.563 104.299 441.075 104.576C441.587 104.843 441.982 105.227 442.259 105.728C442.537 106.229 442.675 106.827 442.675 107.52H441.235C441.235 106.859 441.059 106.352 440.707 106C440.366 105.637 439.881 105.456 439.251 105.456C438.622 105.456 438.126 105.632 437.763 105.984C437.411 106.336 437.235 106.843 437.235 107.504V112.8C437.235 113.461 437.411 113.973 437.763 114.336C438.126 114.688 438.622 114.864 439.251 114.864C439.881 114.864 440.366 114.688 440.707 114.336C441.059 113.973 441.235 113.461 441.235 112.8H442.675C442.675 113.483 442.537 114.08 442.259 114.592C441.982 115.093 441.587 115.483 441.075 115.76C440.563 116.027 439.955 116.16 439.251 116.16ZM471.053 116V104.32H472.493V109.328H474.221L476.813 104.32H478.381L475.485 109.936L478.541 116H476.893L474.173 110.592H472.493V116H471.053Z" fill="black"/>
</svg>
