<svg width="600" height="850" viewBox="0 0 600 850" fill="none" xmlns="http://www.w3.org/2000/svg">
    <path d="M55.0043 400.22C53.9776 400.22 53.083 400.029 52.3203 399.648C51.5723 399.252 50.993 398.702 50.5823 397.998C50.1863 397.279 49.9883 396.436 49.9883 395.468V388.472C49.9883 387.504 50.1863 386.668 50.5823 385.964C50.993 385.245 51.5723 384.695 52.3203 384.314C53.083 383.918 53.9776 383.72 55.0043 383.72C56.0456 383.72 56.9403 383.918 57.6883 384.314C58.4363 384.695 59.0083 385.245 59.4043 385.964C59.815 386.668 60.0203 387.497 60.0203 388.45V395.468C60.0203 396.436 59.815 397.279 59.4043 397.998C59.0083 398.702 58.4363 399.252 57.6883 399.648C56.9403 400.029 56.0456 400.22 55.0043 400.22ZM55.0043 397.8C55.7523 397.8 56.317 397.602 56.6983 397.206C57.0796 396.795 57.2703 396.216 57.2703 395.468V388.472C57.2703 387.709 57.0796 387.13 56.6983 386.734C56.317 386.338 55.7523 386.14 55.0043 386.14C54.2563 386.14 53.6916 386.338 53.3103 386.734C52.929 387.13 52.7383 387.709 52.7383 388.472V395.468C52.7383 396.216 52.929 396.795 53.3103 397.206C53.7063 397.602 54.271 397.8 55.0043 397.8ZM50.6263 435V418.94H60.2403V421.492H53.3763V435H50.6263ZM55.0043 470.22C53.9776 470.22 53.083 470.029 52.3203 469.648C51.5723 469.252 50.993 468.702 50.5823 467.998C50.1863 467.279 49.9883 466.436 49.9883 465.468V458.472C49.9883 457.504 50.1863 456.668 50.5823 455.964C50.993 455.245 51.5723 454.695 52.3203 454.314C53.083 453.918 53.9776 453.72 55.0043 453.72C56.0456 453.72 56.9403 453.918 57.6883 454.314C58.4363 454.695 59.0083 455.245 59.4043 455.964C59.815 456.668 60.0203 457.497 60.0203 458.45V465.468C60.0203 466.436 59.815 467.279 59.4043 467.998C59.0083 468.702 58.4363 469.252 57.6883 469.648C56.9403 470.029 56.0456 470.22 55.0043 470.22ZM55.0043 467.8C55.7523 467.8 56.317 467.602 56.6983 467.206C57.0796 466.795 57.2703 466.216 57.2703 465.468V458.472C57.2703 457.709 57.0796 457.13 56.6983 456.734C56.317 456.338 55.7523 456.14 55.0043 456.14C54.2563 456.14 53.6916 456.338 53.3103 456.734C52.929 457.13 52.7383 457.709 52.7383 458.472V465.468C52.7383 466.216 52.929 466.795 53.3103 467.206C53.7063 467.602 54.271 467.8 55.0043 467.8ZM50.0983 505V488.94H52.8483V495.386H57.1603V488.94H59.9103V505H57.1603V497.938H52.8483V505H50.0983ZM50.1203 540V523.94H52.8703V530.342H55.4003C56.4856 530.342 57.4243 530.547 58.2163 530.958C59.023 531.354 59.6463 531.911 60.0863 532.63C60.541 533.349 60.7683 534.192 60.7683 535.16C60.7683 536.128 60.541 536.979 60.0863 537.712C59.6463 538.431 59.023 538.995 58.2163 539.406C57.4243 539.802 56.4856 540 55.4003 540H50.1203ZM52.8703 537.58H55.3563C56.1483 537.58 56.779 537.36 57.2483 536.92C57.7323 536.48 57.9743 535.901 57.9743 535.182C57.9743 534.449 57.7323 533.862 57.2483 533.422C56.779 532.982 56.1483 532.762 55.3563 532.762H52.8703V537.58Z" fill="black"/>
</svg>
