<svg width="596" height="842" viewBox="0 0 596 842" fill="none" xmlns="http://www.w3.org/2000/svg">
    <path d="M65.8839 384V369.4H74.1239V384H72.3239V371.04H67.6839V384H65.8839ZM67.8239 418L69.3039 414.22L65.0039 403.4H66.9639L69.5839 410.54C69.7572 410.993 69.8972 411.427 70.0039 411.84C70.1106 412.24 70.1772 412.54 70.2039 412.74C70.2306 412.54 70.2906 412.24 70.3839 411.84C70.4772 411.427 70.5972 410.993 70.7439 410.54L73.0439 403.4H75.0039L69.7439 418H67.8239ZM70.0839 452.2C69.2039 452.2 68.4372 452.033 67.7839 451.7C67.1439 451.367 66.6439 450.887 66.2839 450.26C65.9372 449.62 65.7639 448.867 65.7639 448V441.4C65.7639 440.52 65.9372 439.767 66.2839 439.14C66.6439 438.513 67.1439 438.033 67.7839 437.7C68.4372 437.367 69.2039 437.2 70.0839 437.2C70.9639 437.2 71.7239 437.373 72.3639 437.72C73.0039 438.053 73.4972 438.533 73.8439 439.16C74.1906 439.787 74.3639 440.533 74.3639 441.4H72.5639C72.5639 440.573 72.3439 439.94 71.9039 439.5C71.4772 439.047 70.8706 438.82 70.0839 438.82C69.2972 438.82 68.6772 439.04 68.2239 439.48C67.7839 439.92 67.5639 440.553 67.5639 441.38V448C67.5639 448.827 67.7839 449.467 68.2239 449.92C68.6772 450.36 69.2972 450.58 70.0839 450.58C70.8706 450.58 71.4772 450.36 71.9039 449.92C72.3439 449.467 72.5639 448.827 72.5639 448H74.3639C74.3639 448.853 74.1906 449.6 73.8439 450.24C73.4972 450.867 73.0039 451.353 72.3639 451.7C71.7239 452.033 70.9639 452.2 70.0839 452.2ZM65.8439 486V471.4H67.6439V477.66H69.8039L73.0439 471.4H75.0039L71.3839 478.42L75.2039 486H73.1439L69.7439 479.24H67.6439V486H65.8439Z" fill="black"/>
</svg>
