<svg width="600" height="850" viewBox="0 0 600 850" fill="none" xmlns="http://www.w3.org/2000/svg">
    <path d="M155.12 295V278.94H164.888V295H162.138V281.492H157.87V295H155.12ZM160.004 330.22C158.978 330.22 158.083 330.029 157.32 329.648C156.572 329.252 155.993 328.702 155.582 327.998C155.186 327.279 154.988 326.436 154.988 325.468V318.472C154.988 317.504 155.186 316.668 155.582 315.964C155.993 315.245 156.572 314.695 157.32 314.314C158.083 313.918 158.978 313.72 160.004 313.72C161.046 313.72 161.94 313.918 162.688 314.314C163.436 314.695 164.008 315.245 164.404 315.964C164.815 316.668 165.02 317.497 165.02 318.45V325.468C165.02 326.436 164.815 327.279 164.404 327.998C164.008 328.702 163.436 329.252 162.688 329.648C161.94 330.029 161.046 330.22 160.004 330.22ZM160.004 327.8C160.752 327.8 161.317 327.602 161.698 327.206C162.08 326.795 162.27 326.216 162.27 325.468V318.472C162.27 317.709 162.08 317.13 161.698 316.734C161.317 316.338 160.752 316.14 160.004 316.14C159.256 316.14 158.692 316.338 158.31 316.734C157.929 317.13 157.738 317.709 157.738 318.472V325.468C157.738 326.216 157.929 326.795 158.31 327.206C158.706 327.602 159.271 327.8 160.004 327.8ZM155.626 365V348.94H165.24V351.492H158.376V365H155.626ZM160.004 400.22C158.978 400.22 158.083 400.029 157.32 399.648C156.572 399.252 155.993 398.702 155.582 397.998C155.186 397.279 154.988 396.436 154.988 395.468V388.472C154.988 387.504 155.186 386.668 155.582 385.964C155.993 385.245 156.572 384.695 157.32 384.314C158.083 383.918 158.978 383.72 160.004 383.72C161.046 383.72 161.94 383.918 162.688 384.314C163.436 384.695 164.008 385.245 164.404 385.964C164.815 386.668 165.02 387.497 165.02 388.45V395.468C165.02 396.436 164.815 397.279 164.404 397.998C164.008 398.702 163.436 399.252 162.688 399.648C161.94 400.029 161.046 400.22 160.004 400.22ZM160.004 397.8C160.752 397.8 161.317 397.602 161.698 397.206C162.08 396.795 162.27 396.216 162.27 395.468V388.472C162.27 387.709 162.08 387.13 161.698 386.734C161.317 386.338 160.752 386.14 160.004 386.14C159.256 386.14 158.692 386.338 158.31 386.734C157.929 387.13 157.738 387.709 157.738 388.472V395.468C157.738 396.216 157.929 396.795 158.31 397.206C158.706 397.602 159.271 397.8 160.004 397.8ZM155.098 435V418.94H157.848V425.386H162.16V418.94H164.91V435H162.16V427.938H157.848V435H155.098ZM154.504 470V453.94H156.88V460.342H157.584C158.904 460.342 159.938 460.716 160.686 461.464C161.434 462.212 161.808 463.239 161.808 464.544V465.82C161.808 467.111 161.434 468.13 160.686 468.878C159.938 469.626 158.904 470 157.584 470H154.504ZM156.88 467.8H157.584C158.186 467.8 158.655 467.631 158.992 467.294C159.33 466.942 159.498 466.443 159.498 465.798V464.566C159.498 463.921 159.33 463.422 158.992 463.07C158.655 462.718 158.186 462.542 157.584 462.542H156.88V467.8ZM163.128 470V453.94H165.504V470H163.128Z" fill="black"/>
</svg>
