<svg width="600" height="850" viewBox="0 0 600 850" fill="none" xmlns="http://www.w3.org/2000/svg">
    <path d="M155.707 291V279.32H162.299V291H160.859V280.632H157.147V291H155.707ZM159.003 326.16C158.299 326.16 157.691 326.027 157.179 325.76C156.678 325.493 156.288 325.109 156.011 324.608C155.744 324.096 155.611 323.493 155.611 322.8V317.52C155.611 316.816 155.744 316.213 156.011 315.712C156.288 315.211 156.678 314.827 157.179 314.56C157.691 314.293 158.299 314.16 159.003 314.16C159.707 314.16 160.31 314.293 160.811 314.56C161.323 314.827 161.712 315.211 161.979 315.712C162.256 316.213 162.395 316.811 162.395 317.504V322.8C162.395 323.493 162.256 324.096 161.979 324.608C161.712 325.109 161.323 325.493 160.811 325.76C160.31 326.027 159.707 326.16 159.003 326.16ZM159.003 324.864C159.632 324.864 160.112 324.688 160.443 324.336C160.784 323.973 160.955 323.461 160.955 322.8V317.52C160.955 316.859 160.784 316.352 160.443 316C160.112 315.637 159.632 315.456 159.003 315.456C158.384 315.456 157.904 315.637 157.563 316C157.222 316.352 157.051 316.859 157.051 317.52V322.8C157.051 323.461 157.222 323.973 157.563 324.336C157.904 324.688 158.384 324.864 159.003 324.864ZM155.963 361V349.32H162.763V350.632H157.403V361H155.963ZM159.003 396.16C158.299 396.16 157.691 396.027 157.179 395.76C156.678 395.493 156.288 395.109 156.011 394.608C155.744 394.096 155.611 393.493 155.611 392.8V387.52C155.611 386.816 155.744 386.213 156.011 385.712C156.288 385.211 156.678 384.827 157.179 384.56C157.691 384.293 158.299 384.16 159.003 384.16C159.707 384.16 160.31 384.293 160.811 384.56C161.323 384.827 161.712 385.211 161.979 385.712C162.256 386.213 162.395 386.811 162.395 387.504V392.8C162.395 393.493 162.256 394.096 161.979 394.608C161.712 395.109 161.323 395.493 160.811 395.76C160.31 396.027 159.707 396.16 159.003 396.16ZM159.003 394.864C159.632 394.864 160.112 394.688 160.443 394.336C160.784 393.973 160.955 393.461 160.955 392.8V387.52C160.955 386.859 160.784 386.352 160.443 386C160.112 385.637 159.632 385.456 159.003 385.456C158.384 385.456 157.904 385.637 157.563 386C157.222 386.352 157.051 386.859 157.051 387.52V392.8C157.051 393.461 157.222 393.973 157.563 394.336C157.904 394.688 158.384 394.864 159.003 394.864ZM155.691 431V419.32H157.131V424.312H160.875V419.32H162.315V431H160.875V425.624H157.131V431H155.691ZM155.243 466V454.32H156.587V459.12H157.243C158.214 459.12 158.976 459.392 159.531 459.936C160.096 460.48 160.379 461.221 160.379 462.16V462.976C160.379 463.915 160.102 464.656 159.547 465.2C158.992 465.733 158.224 466 157.243 466H155.243ZM156.587 464.736H157.243C157.808 464.736 158.24 464.581 158.539 464.272C158.848 463.952 159.003 463.515 159.003 462.96V462.16C159.003 461.595 158.848 461.157 158.539 460.848C158.24 460.539 157.808 460.384 157.243 460.384H156.587V464.736ZM161.419 466V454.32H162.763V466H161.419Z" fill="black"/>
</svg>
