<svg width="596" height="842" viewBox="0 0 596 842" fill="none" xmlns="http://www.w3.org/2000/svg">
    <path d="M167.524 279V264.4H169.884L171.404 269.12C171.551 269.547 171.684 269.973 171.804 270.4C171.924 270.813 172.011 271.133 172.064 271.36C172.131 271.133 172.217 270.813 172.324 270.4C172.431 269.973 172.551 269.54 172.684 269.1L174.124 264.4H176.484V279H174.724V273.7C174.724 273.113 174.744 272.447 174.784 271.7C174.824 270.953 174.877 270.193 174.944 269.42C175.011 268.633 175.077 267.887 175.144 267.18C175.224 266.46 175.291 265.833 175.344 265.3L172.984 272.6H171.084L168.704 265.3C168.771 265.82 168.837 266.427 168.904 267.12C168.971 267.8 169.031 268.527 169.084 269.3C169.137 270.06 169.184 270.82 169.224 271.58C169.264 272.34 169.284 273.047 169.284 273.7V279H167.524ZM168.004 313V298.4H176.404V300.04H169.784V304.56H175.704V306.18H169.784V311.36H176.404V313H168.004ZM166.504 349.8V345.46H167.404C167.551 345.193 167.704 344.833 167.864 344.38C168.024 343.927 168.164 343.413 168.284 342.84C168.404 342.267 168.471 341.667 168.484 341.04L168.624 332.4H176.104V345.46H177.504V349.8H175.904V347H168.104V349.8H166.504ZM169.284 345.46H174.304V334H170.344L170.244 341.04C170.231 342.067 170.117 342.973 169.904 343.76C169.691 344.547 169.484 345.113 169.284 345.46ZM167.004 381L170.804 366.4H173.224L177.004 381H175.184L174.224 377.12H169.804L168.844 381H167.004ZM170.164 375.6H173.844L172.724 371.1C172.511 370.247 172.344 369.533 172.224 368.96C172.104 368.387 172.031 368.013 172.004 367.84C171.977 368.013 171.904 368.387 171.784 368.96C171.664 369.533 171.497 370.24 171.284 371.08L170.164 375.6ZM166.404 415.1V413.42H166.764C167.351 413.42 167.771 413.16 168.024 412.64C168.291 412.107 168.431 411.2 168.444 409.92L168.604 400.4H176.124V415H174.324V402.04H170.384L170.244 409.92C170.217 411.707 169.931 413.02 169.384 413.86C168.851 414.687 168.011 415.1 166.864 415.1H166.404ZM167.804 449V434.4H169.544V442.6C169.544 443.08 169.531 443.593 169.504 444.14C169.491 444.673 169.471 445.187 169.444 445.68C169.417 446.16 169.391 446.567 169.364 446.9L173.804 434.4H176.204V449H174.464V440.8C174.464 440.307 174.471 439.793 174.484 439.26C174.511 438.713 174.537 438.2 174.564 437.72C174.604 437.227 174.637 436.82 174.664 436.5L170.204 449H167.804Z" fill="black"/>
</svg>
