<svg width="600" height="850" viewBox="0 0 600 850" fill="none" xmlns="http://www.w3.org/2000/svg">
    <path d="M226.626 365V348.94H236.24V351.492H229.376V365H226.626ZM231.004 400.22C229.978 400.22 229.083 400.029 228.32 399.648C227.572 399.252 226.993 398.702 226.582 397.998C226.186 397.279 225.988 396.436 225.988 395.468V388.472C225.988 387.504 226.186 386.668 226.582 385.964C226.993 385.245 227.572 384.695 228.32 384.314C229.083 383.918 229.978 383.72 231.004 383.72C232.046 383.72 232.94 383.918 233.688 384.314C234.436 384.695 235.008 385.245 235.404 385.964C235.815 386.668 236.02 387.497 236.02 388.45V395.468C236.02 396.436 235.815 397.279 235.404 397.998C235.008 398.702 234.436 399.252 233.688 399.648C232.94 400.029 232.046 400.22 231.004 400.22ZM231.004 397.8C231.752 397.8 232.317 397.602 232.698 397.206C233.08 396.795 233.27 396.216 233.27 395.468V388.472C233.27 387.709 233.08 387.13 232.698 386.734C232.317 386.338 231.752 386.14 231.004 386.14C230.256 386.14 229.692 386.338 229.31 386.734C228.929 387.13 228.738 387.709 228.738 388.472V395.468C228.738 396.216 228.929 396.795 229.31 397.206C229.706 397.602 230.271 397.8 231.004 397.8ZM231.092 435.22C230.066 435.22 229.164 435.029 228.386 434.648C227.624 434.252 227.03 433.702 226.604 432.998C226.194 432.279 225.988 431.436 225.988 430.468V423.472C225.988 422.489 226.194 421.646 226.604 420.942C227.03 420.238 227.624 419.695 228.386 419.314C229.164 418.918 230.066 418.72 231.092 418.72C232.134 418.72 233.028 418.918 233.776 419.314C234.539 419.695 235.133 420.238 235.558 420.942C235.984 421.646 236.196 422.489 236.196 423.472H233.424C233.424 422.709 233.219 422.13 232.808 421.734C232.412 421.338 231.84 421.14 231.092 421.14C230.344 421.14 229.765 421.338 229.354 421.734C228.944 422.13 228.738 422.702 228.738 423.45V430.468C228.738 431.216 228.944 431.795 229.354 432.206C229.765 432.602 230.344 432.8 231.092 432.8C231.84 432.8 232.412 432.602 232.808 432.206C233.219 431.795 233.424 431.216 233.424 430.468H236.196C236.196 431.421 235.984 432.257 235.558 432.976C235.133 433.695 234.539 434.252 233.776 434.648C233.028 435.029 232.134 435.22 231.092 435.22ZM226.12 470V453.94H235.888V470H233.138V456.492H228.87V470H226.12ZM225.988 505V488.94H228.496V496.794C228.496 497.307 228.482 497.879 228.452 498.51C228.423 499.141 228.386 499.757 228.342 500.358C228.298 500.959 228.262 501.48 228.232 501.92L232.654 488.94H236.02V505H233.512V497.388C233.512 496.875 233.527 496.288 233.556 495.628C233.586 494.968 233.622 494.315 233.666 493.67C233.725 493.025 233.776 492.475 233.82 492.02L229.354 505H225.988ZM229.618 540V526.492H225.416V523.94H236.592V526.492H232.39V540H229.618ZM225.174 575L229.222 558.94H232.764L236.834 575H234.018L233.138 571.106H228.87L227.99 575H225.174ZM229.376 568.862H232.632L231.664 564.55C231.503 563.831 231.364 563.186 231.246 562.614C231.129 562.027 231.048 561.602 231.004 561.338C230.96 561.602 230.88 562.027 230.762 562.614C230.66 563.186 230.52 563.824 230.344 564.528L229.376 568.862ZM224.778 610.11V607.602H225.328C225.827 607.602 226.208 607.367 226.472 606.898C226.736 606.414 226.876 605.688 226.89 604.72L227.066 593.94H235.888V610H233.138V596.492H229.772L229.618 604.72C229.604 606.465 229.237 607.8 228.518 608.724C227.8 609.648 226.795 610.11 225.504 610.11H224.778ZM226.12 645V628.94H228.87V635.342H231.4C232.486 635.342 233.424 635.547 234.216 635.958C235.023 636.354 235.646 636.911 236.086 637.63C236.541 638.349 236.768 639.192 236.768 640.16C236.768 641.128 236.541 641.979 236.086 642.712C235.646 643.431 235.023 643.995 234.216 644.406C233.424 644.802 232.486 645 231.4 645H226.12ZM228.87 642.58H231.356C232.148 642.58 232.779 642.36 233.248 641.92C233.732 641.48 233.974 640.901 233.974 640.182C233.974 639.449 233.732 638.862 233.248 638.422C232.779 637.982 232.148 637.762 231.356 637.762H228.87V642.58Z" fill="black"/>
</svg>
