<svg width="596" height="842" viewBox="0 0 596 842" fill="none" xmlns="http://www.w3.org/2000/svg">
    <path d="M238.204 352V337.4H246.704V339.04H240.004V352H238.204ZM242.004 386.2C241.124 386.2 240.364 386.033 239.724 385.7C239.097 385.367 238.611 384.887 238.264 384.26C237.931 383.62 237.764 382.867 237.764 382V375.4C237.764 374.52 237.931 373.767 238.264 373.14C238.611 372.513 239.097 372.033 239.724 371.7C240.364 371.367 241.124 371.2 242.004 371.2C242.884 371.2 243.637 371.367 244.264 371.7C244.904 372.033 245.391 372.513 245.724 373.14C246.071 373.767 246.244 374.513 246.244 375.38V382C246.244 382.867 246.071 383.62 245.724 384.26C245.391 384.887 244.904 385.367 244.264 385.7C243.637 386.033 242.884 386.2 242.004 386.2ZM242.004 384.58C242.791 384.58 243.391 384.36 243.804 383.92C244.231 383.467 244.444 382.827 244.444 382V375.4C244.444 374.573 244.231 373.94 243.804 373.5C243.391 373.047 242.791 372.82 242.004 372.82C241.231 372.82 240.631 373.047 240.204 373.5C239.777 373.94 239.564 374.573 239.564 375.4V382C239.564 382.827 239.777 383.467 240.204 383.92C240.631 384.36 241.231 384.58 242.004 384.58ZM242.084 420.2C241.204 420.2 240.437 420.033 239.784 419.7C239.144 419.367 238.644 418.887 238.284 418.26C237.937 417.62 237.764 416.867 237.764 416V409.4C237.764 408.52 237.937 407.767 238.284 407.14C238.644 406.513 239.144 406.033 239.784 405.7C240.437 405.367 241.204 405.2 242.084 405.2C242.964 405.2 243.724 405.373 244.364 405.72C245.004 406.053 245.497 406.533 245.844 407.16C246.191 407.787 246.364 408.533 246.364 409.4H244.564C244.564 408.573 244.344 407.94 243.904 407.5C243.477 407.047 242.871 406.82 242.084 406.82C241.297 406.82 240.677 407.04 240.224 407.48C239.784 407.92 239.564 408.553 239.564 409.38V416C239.564 416.827 239.784 417.467 240.224 417.92C240.677 418.36 241.297 418.58 242.084 418.58C242.871 418.58 243.477 418.36 243.904 417.92C244.344 417.467 244.564 416.827 244.564 416H246.364C246.364 416.853 246.191 417.6 245.844 418.24C245.497 418.867 245.004 419.353 244.364 419.7C243.724 420.033 242.964 420.2 242.084 420.2ZM237.884 454V439.4H246.124V454H244.324V441.04H239.684V454H237.884ZM237.804 488V473.4H239.544V481.6C239.544 482.08 239.531 482.593 239.504 483.14C239.491 483.673 239.471 484.187 239.444 484.68C239.417 485.16 239.391 485.567 239.364 485.9L243.804 473.4H246.204V488H244.464V479.8C244.464 479.307 244.471 478.793 244.484 478.26C244.511 477.713 244.537 477.2 244.564 476.72C244.604 476.227 244.637 475.82 244.664 475.5L240.204 488H237.804ZM241.104 522V509.02H237.104V507.38H246.904V509.02H242.904V522H241.104ZM237.004 556L240.804 541.4H243.224L247.004 556H245.184L244.224 552.12H239.804L238.844 556H237.004ZM240.164 550.6H243.844L242.724 546.1C242.511 545.247 242.344 544.533 242.224 543.96C242.104 543.387 242.031 543.013 242.004 542.84C241.977 543.013 241.904 543.387 241.784 543.96C241.664 544.533 241.497 545.24 241.284 546.08L240.164 550.6ZM236.404 590.1V588.42H236.764C237.351 588.42 237.771 588.16 238.024 587.64C238.291 587.107 238.431 586.2 238.444 584.92L238.604 575.4H246.124V590H244.324V577.04H240.384L240.244 584.92C240.217 586.707 239.931 588.02 239.384 588.86C238.851 589.687 238.011 590.1 236.864 590.1H236.404ZM237.884 624V609.4H239.684V615.4H242.604C243.484 615.4 244.251 615.58 244.904 615.94C245.571 616.3 246.084 616.8 246.444 617.44C246.817 618.08 247.004 618.833 247.004 619.7C247.004 620.553 246.817 621.307 246.444 621.96C246.084 622.6 245.571 623.1 244.904 623.46C244.251 623.82 243.484 624 242.604 624H237.884ZM239.684 622.36H242.504C243.291 622.36 243.924 622.12 244.404 621.64C244.897 621.147 245.144 620.5 245.144 619.7C245.144 618.9 244.897 618.26 244.404 617.78C243.924 617.287 243.291 617.04 242.504 617.04H239.684V622.36Z" fill="black"/>
</svg>
