<svg width="600" height="850" viewBox="0 0 600 850" fill="none" xmlns="http://www.w3.org/2000/svg">
    <path d="M225.963 361V349.32H232.763V350.632H227.403V361H225.963ZM229.003 396.16C228.299 396.16 227.691 396.027 227.179 395.76C226.678 395.493 226.288 395.109 226.011 394.608C225.744 394.096 225.611 393.493 225.611 392.8V387.52C225.611 386.816 225.744 386.213 226.011 385.712C226.288 385.211 226.678 384.827 227.179 384.56C227.691 384.293 228.299 384.16 229.003 384.16C229.707 384.16 230.31 384.293 230.811 384.56C231.323 384.827 231.712 385.211 231.979 385.712C232.256 386.213 232.395 386.811 232.395 387.504V392.8C232.395 393.493 232.256 394.096 231.979 394.608C231.712 395.109 231.323 395.493 230.811 395.76C230.31 396.027 229.707 396.16 229.003 396.16ZM229.003 394.864C229.632 394.864 230.112 394.688 230.443 394.336C230.784 393.973 230.955 393.461 230.955 392.8V387.52C230.955 386.859 230.784 386.352 230.443 386C230.112 385.637 229.632 385.456 229.003 385.456C228.384 385.456 227.904 385.637 227.563 386C227.222 386.352 227.051 386.859 227.051 387.52V392.8C227.051 393.461 227.222 393.973 227.563 394.336C227.904 394.688 228.384 394.864 229.003 394.864ZM229.067 431.16C228.363 431.16 227.75 431.027 227.227 430.76C226.715 430.493 226.315 430.109 226.027 429.608C225.75 429.096 225.611 428.493 225.611 427.8V422.52C225.611 421.816 225.75 421.213 226.027 420.712C226.315 420.211 226.715 419.827 227.227 419.56C227.75 419.293 228.363 419.16 229.067 419.16C229.771 419.16 230.379 419.299 230.891 419.576C231.403 419.843 231.798 420.227 232.075 420.728C232.352 421.229 232.491 421.827 232.491 422.52H231.051C231.051 421.859 230.875 421.352 230.523 421C230.182 420.637 229.696 420.456 229.067 420.456C228.438 420.456 227.942 420.632 227.579 420.984C227.227 421.336 227.051 421.843 227.051 422.504V427.8C227.051 428.461 227.227 428.973 227.579 429.336C227.942 429.688 228.438 429.864 229.067 429.864C229.696 429.864 230.182 429.688 230.523 429.336C230.875 428.973 231.051 428.461 231.051 427.8H232.491C232.491 428.483 232.352 429.08 232.075 429.592C231.798 430.093 231.403 430.483 230.891 430.76C230.379 431.027 229.771 431.16 229.067 431.16ZM225.707 466V454.32H232.299V466H230.859V455.632H227.147V466H225.707ZM225.643 501V489.32H227.035V495.88C227.035 496.264 227.024 496.675 227.003 497.112C226.992 497.539 226.976 497.949 226.955 498.344C226.934 498.728 226.912 499.053 226.891 499.32L230.443 489.32H232.363V501H230.971V494.44C230.971 494.045 230.976 493.635 230.987 493.208C231.008 492.771 231.03 492.36 231.051 491.976C231.083 491.581 231.11 491.256 231.131 491L227.563 501H225.643ZM228.283 536V525.616H225.083V524.304H232.923V525.616H229.723V536H228.283ZM225.003 571L228.043 559.32H229.979L233.003 571H231.547L230.779 567.896H227.243L226.475 571H225.003ZM227.531 566.68H230.475L229.579 563.08C229.408 562.397 229.275 561.827 229.179 561.368C229.083 560.909 229.024 560.611 229.003 560.472C228.982 560.611 228.923 560.909 228.827 561.368C228.731 561.827 228.598 562.392 228.427 563.064L227.531 566.68ZM224.523 606.08V604.736H224.811C225.28 604.736 225.616 604.528 225.819 604.112C226.032 603.685 226.144 602.96 226.155 601.936L226.283 594.32H232.299V606H230.859V595.632H227.707L227.595 601.936C227.574 603.365 227.344 604.416 226.907 605.088C226.48 605.749 225.808 606.08 224.891 606.08H224.523ZM225.707 641V629.32H227.147V634.12H229.483C230.187 634.12 230.8 634.264 231.323 634.552C231.856 634.84 232.267 635.24 232.555 635.752C232.854 636.264 233.003 636.867 233.003 637.56C233.003 638.243 232.854 638.845 232.555 639.368C232.267 639.88 231.856 640.28 231.323 640.568C230.8 640.856 230.187 641 229.483 641H225.707ZM227.147 639.688H229.403C230.032 639.688 230.539 639.496 230.923 639.112C231.318 638.717 231.515 638.2 231.515 637.56C231.515 636.92 231.318 636.408 230.923 636.024C230.539 635.629 230.032 635.432 229.403 635.432H227.147V639.688Z" fill="black"/>
</svg>
