<svg width="600" height="850" viewBox="0 0 600 850" fill="none" xmlns="http://www.w3.org/2000/svg">
    <path d="M89.0031 641.16C88.2991 641.16 87.6911 641.027 87.1791 640.76C86.6778 640.493 86.2885 640.109 86.0111 639.608C85.7445 639.096 85.6111 638.493 85.6111 637.8V632.52C85.6111 631.816 85.7445 631.213 86.0111 630.712C86.2885 630.211 86.6778 629.827 87.1791 629.56C87.6911 629.293 88.2991 629.16 89.0031 629.16C89.7071 629.16 90.3098 629.293 90.8111 629.56C91.3231 629.827 91.7125 630.211 91.9791 630.712C92.2565 631.213 92.3951 631.811 92.3951 632.504V637.8C92.3951 638.493 92.2565 639.096 91.9791 639.608C91.7125 640.109 91.3231 640.493 90.8111 640.76C90.3098 641.027 89.7071 641.16 89.0031 641.16ZM89.0031 639.864C89.6325 639.864 90.1125 639.688 90.4431 639.336C90.7845 638.973 90.9551 638.461 90.9551 637.8V632.52C90.9551 631.859 90.7845 631.352 90.4431 631C90.1125 630.637 89.6325 630.456 89.0031 630.456C88.3845 630.456 87.9045 630.637 87.5631 631C87.2218 631.352 87.0511 631.859 87.0511 632.52V637.8C87.0511 638.461 87.2218 638.973 87.5631 639.336C87.9045 639.688 88.3845 639.864 89.0031 639.864ZM85.6751 676V664.32H89.4351C90.1605 664.32 90.7898 664.464 91.3231 664.752C91.8565 665.029 92.2671 665.424 92.5551 665.936C92.8538 666.448 93.0031 667.056 93.0031 667.76C93.0031 668.453 92.8538 669.061 92.5551 669.584C92.2671 670.096 91.8565 670.496 91.3231 670.784C90.7898 671.061 90.1605 671.2 89.4351 671.2H87.1151V676H85.6751ZM87.1151 669.904H89.4351C90.0645 669.904 90.5658 669.712 90.9391 669.328C91.3231 668.933 91.5151 668.411 91.5151 667.76C91.5151 667.099 91.3231 666.576 90.9391 666.192C90.5658 665.808 90.0645 665.616 89.4351 665.616H87.1151V669.904ZM84.6031 713.24V709.768H85.3231C85.4405 709.555 85.5631 709.267 85.6911 708.904C85.8191 708.541 85.9311 708.131 86.0271 707.672C86.1231 707.213 86.1765 706.733 86.1871 706.232L86.2991 699.32H92.2831V709.768H93.4031V713.24H92.1231V711H85.8831V713.24H84.6031ZM86.8271 709.768H90.8431V700.6H87.6751L87.5951 706.232C87.5845 707.053 87.4938 707.779 87.3231 708.408C87.1525 709.037 86.9871 709.491 86.8271 709.768ZM85.8031 746V734.32H92.5231V735.632H87.2271V739.248H91.9631V740.544H87.2271V744.688H92.5231V746H85.8031ZM85.6911 781V769.32H87.1311V774.312H90.8751V769.32H92.3151V781H90.8751V775.624H87.1311V781H85.6911Z" fill="black"/>
</svg>