<svg width="596" height="842" viewBox="0 0 596 842" fill="none" xmlns="http://www.w3.org/2000/svg">
    <path d="M104.004 624.2C103.124 624.2 102.364 624.033 101.724 623.7C101.097 623.367 100.611 622.887 100.264 622.26C99.9306 621.62 99.7639 620.867 99.7639 620V613.4C99.7639 612.52 99.9306 611.767 100.264 611.14C100.611 610.513 101.097 610.033 101.724 609.7C102.364 609.367 103.124 609.2 104.004 609.2C104.884 609.2 105.637 609.367 106.264 609.7C106.904 610.033 107.391 610.513 107.724 611.14C108.071 611.767 108.244 612.513 108.244 613.38V620C108.244 620.867 108.071 621.62 107.724 622.26C107.391 622.887 106.904 623.367 106.264 623.7C105.637 624.033 104.884 624.2 104.004 624.2ZM104.004 622.58C104.791 622.58 105.391 622.36 105.804 621.92C106.231 621.467 106.444 620.827 106.444 620V613.4C106.444 612.573 106.231 611.94 105.804 611.5C105.391 611.047 104.791 610.82 104.004 610.82C103.231 610.82 102.631 611.047 102.204 611.5C101.777 611.94 101.564 612.573 101.564 613.4V620C101.564 620.827 101.777 621.467 102.204 621.92C102.631 622.36 103.231 622.58 104.004 622.58ZM99.8439 658V643.4H104.544C105.451 643.4 106.237 643.58 106.904 643.94C107.571 644.287 108.084 644.78 108.444 645.42C108.817 646.06 109.004 646.82 109.004 647.7C109.004 648.567 108.817 649.327 108.444 649.98C108.084 650.62 107.571 651.12 106.904 651.48C106.237 651.827 105.451 652 104.544 652H101.644V658H99.8439ZM101.644 650.38H104.544C105.331 650.38 105.957 650.14 106.424 649.66C106.904 649.167 107.144 648.513 107.144 647.7C107.144 646.873 106.904 646.22 106.424 645.74C105.957 645.26 105.331 645.02 104.544 645.02H101.644V650.38ZM98.5039 694.8V690.46H99.4039C99.5506 690.193 99.7039 689.833 99.8639 689.38C100.024 688.927 100.164 688.413 100.284 687.84C100.404 687.267 100.471 686.667 100.484 686.04L100.624 677.4H108.104V690.46H109.504V694.8H107.904V692H100.104V694.8H98.5039ZM101.284 690.46H106.304V679H102.344L102.244 686.04C102.231 687.067 102.117 687.973 101.904 688.76C101.691 689.547 101.484 690.113 101.284 690.46ZM100.004 726V711.4H108.404V713.04H101.784V717.56H107.704V719.18H101.784V724.36H108.404V726H100.004ZM99.8639 760V745.4H101.664V751.64H106.344V745.4H108.144V760H106.344V753.28H101.664V760H99.8639Z" fill="black"/>
</svg>
