<svg width="600" height="850" viewBox="0 0 600 850" fill="none" xmlns="http://www.w3.org/2000/svg">
    <path d="M91.0043 645.22C89.9776 645.22 89.083 645.029 88.3203 644.648C87.5723 644.252 86.993 643.702 86.5823 642.998C86.1863 642.279 85.9883 641.436 85.9883 640.468V633.472C85.9883 632.504 86.1863 631.668 86.5823 630.964C86.993 630.245 87.5723 629.695 88.3203 629.314C89.083 628.918 89.9776 628.72 91.0043 628.72C92.0456 628.72 92.9403 628.918 93.6883 629.314C94.4363 629.695 95.0083 630.245 95.4043 630.964C95.815 631.668 96.0203 632.497 96.0203 633.45V640.468C96.0203 641.436 95.815 642.279 95.4043 642.998C95.0083 643.702 94.4363 644.252 93.6883 644.648C92.9403 645.029 92.0456 645.22 91.0043 645.22ZM91.0043 642.8C91.7523 642.8 92.317 642.602 92.6983 642.206C93.0796 641.795 93.2703 641.216 93.2703 640.468V633.472C93.2703 632.709 93.0796 632.13 92.6983 631.734C92.317 631.338 91.7523 631.14 91.0043 631.14C90.2563 631.14 89.6916 631.338 89.3103 631.734C88.929 632.13 88.7383 632.709 88.7383 633.472V640.468C88.7383 641.216 88.929 641.795 89.3103 642.206C89.7063 642.602 90.271 642.8 91.0043 642.8ZM86.0983 680V663.94H91.4443C92.515 663.94 93.4463 664.145 94.2383 664.556C95.045 664.967 95.6683 665.546 96.1083 666.294C96.5483 667.027 96.7683 667.893 96.7683 668.89C96.7683 669.873 96.541 670.738 96.0863 671.486C95.6463 672.234 95.0303 672.813 94.2383 673.224C93.4463 673.635 92.515 673.84 91.4443 673.84H88.8483V680H86.0983ZM88.8483 671.354H91.4443C92.207 671.354 92.8156 671.134 93.2703 670.694C93.7396 670.239 93.9743 669.638 93.9743 668.89C93.9743 668.127 93.7396 667.526 93.2703 667.086C92.8156 666.646 92.207 666.426 91.4443 666.426H88.8483V671.354ZM84.9103 718.08V712.646H85.7243C85.8856 712.367 86.0543 711.993 86.2303 711.524C86.421 711.04 86.5823 710.49 86.7143 709.874C86.8463 709.258 86.9123 708.598 86.9123 707.894L87.0443 698.94H95.6903V712.646H97.0983V718.08H94.5683V715H87.4403V718.08H84.9103ZM88.4743 712.646H93.0503V701.316H89.6183L89.5083 707.894C89.4936 708.965 89.369 709.925 89.1343 710.776C88.8996 711.627 88.6796 712.25 88.4743 712.646ZM86.3403 750V733.94H95.9763V736.338H89.0463V740.518H95.2063V742.894H89.0463V747.602H95.9763V750H86.3403ZM86.0983 785V768.94H88.8483V775.386H93.1603V768.94H95.9103V785H93.1603V777.938H88.8483V785H86.0983Z" fill="black"/>
</svg>