<svg width="600" height="850" viewBox="0 0 600 850" fill="none" xmlns="http://www.w3.org/2000/svg">
    <path d="M155.963 571V559.32H162.763V560.632H157.403V571H155.963ZM155.643 606V594.32H157.035V600.88C157.035 601.264 157.024 601.675 157.003 602.112C156.992 602.539 156.976 602.949 156.955 603.344C156.934 603.728 156.912 604.053 156.891 604.32L160.443 594.32H162.363V606H160.971V599.44C160.971 599.045 160.976 598.635 160.987 598.208C161.008 597.771 161.03 597.36 161.051 596.976C161.083 596.581 161.11 596.256 161.131 596L157.563 606H155.643ZM154.523 641.08V639.736H154.811C155.28 639.736 155.616 639.528 155.819 639.112C156.032 638.685 156.144 637.96 156.155 636.936L156.283 629.32H162.299V641H160.859V630.632H157.707L157.595 636.936C157.574 638.365 157.344 639.416 156.907 640.088C156.48 640.749 155.808 641.08 154.891 641.08H154.523ZM155.707 676V664.32H157.147V669.12H159.483C160.187 669.12 160.8 669.264 161.323 669.552C161.856 669.84 162.267 670.24 162.555 670.752C162.854 671.264 163.003 671.867 163.003 672.56C163.003 673.243 162.854 673.845 162.555 674.368C162.267 674.88 161.856 675.28 161.323 675.568C160.8 675.856 160.187 676 159.483 676H155.707ZM157.147 674.688H159.403C160.032 674.688 160.539 674.496 160.923 674.112C161.318 673.717 161.515 673.2 161.515 672.56C161.515 671.92 161.318 671.408 160.923 671.024C160.539 670.629 160.032 670.432 159.403 670.432H157.147V674.688ZM158.843 711.16C158.118 711.16 157.478 711.032 156.923 710.776C156.368 710.52 155.926 710.157 155.595 709.688C155.275 709.219 155.094 708.669 155.051 708.04H156.491C156.555 708.605 156.8 709.053 157.227 709.384C157.654 709.715 158.192 709.88 158.843 709.88C159.568 709.88 160.139 709.688 160.555 709.304C160.982 708.92 161.195 708.419 161.195 707.8C161.195 707.171 160.982 706.669 160.555 706.296C160.128 705.912 159.558 705.72 158.843 705.72H157.403V704.408H158.827C159.478 704.408 160 704.205 160.395 703.8C160.79 703.395 160.987 702.899 160.987 702.312C160.987 701.715 160.79 701.256 160.395 700.936C160.011 700.605 159.488 700.44 158.827 700.44C158.176 700.44 157.654 700.627 157.259 701C156.864 701.363 156.667 701.843 156.667 702.44H155.227C155.227 701.779 155.376 701.203 155.675 700.712C155.974 700.221 156.39 699.843 156.923 699.576C157.467 699.299 158.102 699.16 158.827 699.16C159.947 699.16 160.838 699.416 161.499 699.928C162.16 700.44 162.491 701.171 162.491 702.12C162.491 702.653 162.374 703.133 162.139 703.56C161.915 703.976 161.59 704.301 161.163 704.536C160.747 704.771 160.251 704.883 159.675 704.872V704.632C160.294 704.621 160.827 704.744 161.275 705C161.734 705.245 162.086 705.603 162.331 706.072C162.587 706.531 162.715 707.075 162.715 707.704C162.715 708.376 162.555 708.973 162.235 709.496C161.926 710.008 161.478 710.413 160.891 710.712C160.315 711.011 159.632 711.16 158.843 711.16ZM155.003 746L158.043 734.32H159.979L163.003 746H161.547L160.779 742.896H157.243L156.475 746H155.003ZM157.531 741.68H160.475L159.579 738.08C159.408 737.397 159.275 736.827 159.179 736.368C159.083 735.909 159.024 735.611 159.003 735.472C158.982 735.611 158.923 735.909 158.827 736.368C158.731 736.827 158.598 737.392 158.427 738.064L157.531 741.68Z" fill="black"/>
</svg>