<svg width="596" height="842" viewBox="0 0 596 842" fill="none" xmlns="http://www.w3.org/2000/svg">
    <path d="M169.204 557V542.4H177.704V544.04H171.004V557H169.204ZM168.804 591V576.4H170.544V584.6C170.544 585.08 170.531 585.593 170.504 586.14C170.491 586.673 170.471 587.187 170.444 587.68C170.417 588.16 170.391 588.567 170.364 588.9L174.804 576.4H177.204V591H175.464V582.8C175.464 582.307 175.471 581.793 175.484 581.26C175.511 580.713 175.537 580.2 175.564 579.72C175.604 579.227 175.637 578.82 175.664 578.5L171.204 591H168.804ZM167.404 625.1V623.42H167.764C168.351 623.42 168.771 623.16 169.024 622.64C169.291 622.107 169.431 621.2 169.444 619.92L169.604 610.4H177.124V625H175.324V612.04H171.384L171.244 619.92C171.217 621.707 170.931 623.02 170.384 623.86C169.851 624.687 169.011 625.1 167.864 625.1H167.404ZM168.884 659V644.4H170.684V650.4H173.604C174.484 650.4 175.251 650.58 175.904 650.94C176.571 651.3 177.084 651.8 177.444 652.44C177.817 653.08 178.004 653.833 178.004 654.7C178.004 655.553 177.817 656.307 177.444 656.96C177.084 657.6 176.571 658.1 175.904 658.46C175.251 658.82 174.484 659 173.604 659H168.884ZM170.684 657.36H173.504C174.291 657.36 174.924 657.12 175.404 656.64C175.897 656.147 176.144 655.5 176.144 654.7C176.144 653.9 175.897 653.26 175.404 652.78C174.924 652.287 174.291 652.04 173.504 652.04H170.684V657.36ZM172.804 693.2C171.897 693.2 171.097 693.04 170.404 692.72C169.711 692.4 169.157 691.947 168.744 691.36C168.344 690.773 168.117 690.087 168.064 689.3H169.864C169.944 690.007 170.251 690.567 170.784 690.98C171.317 691.393 171.991 691.6 172.804 691.6C173.711 691.6 174.424 691.36 174.944 690.88C175.477 690.4 175.744 689.773 175.744 689C175.744 688.213 175.477 687.587 174.944 687.12C174.411 686.64 173.697 686.4 172.804 686.4H171.004V684.76H172.784C173.597 684.76 174.251 684.507 174.744 684C175.237 683.493 175.484 682.873 175.484 682.14C175.484 681.393 175.237 680.82 174.744 680.42C174.264 680.007 173.611 679.8 172.784 679.8C171.971 679.8 171.317 680.033 170.824 680.5C170.331 680.953 170.084 681.553 170.084 682.3H168.284C168.284 681.473 168.471 680.753 168.844 680.14C169.217 679.527 169.737 679.053 170.404 678.72C171.084 678.373 171.877 678.2 172.784 678.2C174.184 678.2 175.297 678.52 176.124 679.16C176.951 679.8 177.364 680.713 177.364 681.9C177.364 682.567 177.217 683.167 176.924 683.7C176.644 684.22 176.237 684.627 175.704 684.92C175.184 685.213 174.564 685.353 173.844 685.34V685.04C174.617 685.027 175.284 685.18 175.844 685.5C176.417 685.807 176.857 686.253 177.164 686.84C177.484 687.413 177.644 688.093 177.644 688.88C177.644 689.72 177.444 690.467 177.044 691.12C176.657 691.76 176.097 692.267 175.364 692.64C174.644 693.013 173.791 693.2 172.804 693.2ZM168.304 727V712.4H169.984V718.4H170.804C172.017 718.4 172.971 718.74 173.664 719.42C174.371 720.1 174.724 721.027 174.724 722.2V723.22C174.724 724.393 174.377 725.32 173.684 726C172.991 726.667 172.031 727 170.804 727H168.304ZM169.984 725.42H170.804C171.511 725.42 172.051 725.227 172.424 724.84C172.811 724.44 173.004 723.893 173.004 723.2V722.2C173.004 721.493 172.811 720.947 172.424 720.56C172.051 720.173 171.511 719.98 170.804 719.98H169.984V725.42ZM176.024 727V712.4H177.704V727H176.024Z" fill="black"/>
</svg>
