<svg width="600" height="850" viewBox="0 0 600 850" fill="none" xmlns="http://www.w3.org/2000/svg">
    <path d="M156.626 575V558.94H166.24V561.492H159.376V575H156.626ZM155.988 610V593.94H158.496V601.794C158.496 602.307 158.482 602.879 158.452 603.51C158.423 604.141 158.386 604.757 158.342 605.358C158.298 605.959 158.262 606.48 158.232 606.92L162.654 593.94H166.02V610H163.512V602.388C163.512 601.875 163.527 601.288 163.556 600.628C163.586 599.968 163.622 599.315 163.666 598.67C163.725 598.025 163.776 597.475 163.82 597.02L159.354 610H155.988ZM154.778 645.11V642.602H155.328C155.827 642.602 156.208 642.367 156.472 641.898C156.736 641.414 156.876 640.688 156.89 639.72L157.066 628.94H165.888V645H163.138V631.492H159.772L159.618 639.72C159.604 641.465 159.237 642.8 158.518 643.724C157.8 644.648 156.795 645.11 155.504 645.11H154.778ZM156.12 680V663.94H158.87V670.342H161.4C162.486 670.342 163.424 670.547 164.216 670.958C165.023 671.354 165.646 671.911 166.086 672.63C166.541 673.349 166.768 674.192 166.768 675.16C166.768 676.128 166.541 676.979 166.086 677.712C165.646 678.431 165.023 678.995 164.216 679.406C163.424 679.802 162.486 680 161.4 680H156.12ZM158.87 677.58H161.356C162.148 677.58 162.779 677.36 163.248 676.92C163.732 676.48 163.974 675.901 163.974 675.182C163.974 674.449 163.732 673.862 163.248 673.422C162.779 672.982 162.148 672.762 161.356 672.762H158.87V677.58ZM160.916 715.22C159.846 715.22 158.907 715.044 158.1 714.692C157.294 714.325 156.656 713.812 156.186 713.152C155.717 712.477 155.453 711.693 155.394 710.798H158.144C158.218 711.429 158.504 711.927 159.002 712.294C159.501 712.646 160.139 712.822 160.916 712.822C161.752 712.822 162.42 712.602 162.918 712.162C163.417 711.707 163.666 711.128 163.666 710.424C163.666 709.705 163.417 709.133 162.918 708.708C162.434 708.283 161.767 708.07 160.916 708.07H158.738V705.584H160.894C161.701 705.584 162.332 705.357 162.786 704.902C163.256 704.433 163.49 703.875 163.49 703.23C163.49 702.555 163.256 702.035 162.786 701.668C162.332 701.301 161.701 701.118 160.894 701.118C160.176 701.118 159.582 701.309 159.112 701.69C158.658 702.071 158.401 702.585 158.342 703.23H155.57C155.629 702.306 155.886 701.507 156.34 700.832C156.81 700.157 157.44 699.637 158.232 699.27C159.024 698.903 159.941 698.72 160.982 698.72C162.566 698.72 163.828 699.072 164.766 699.776C165.705 700.465 166.174 701.433 166.174 702.68C166.174 703.428 166.006 704.103 165.668 704.704C165.346 705.291 164.869 705.745 164.238 706.068C163.622 706.391 162.889 706.552 162.038 706.552V706.222C162.933 706.207 163.71 706.369 164.37 706.706C165.03 707.043 165.544 707.527 165.91 708.158C166.277 708.789 166.46 709.522 166.46 710.358C166.46 711.326 166.233 712.177 165.778 712.91C165.324 713.629 164.678 714.193 163.842 714.604C163.021 715.015 162.046 715.22 160.916 715.22ZM155.174 750L159.222 733.94H162.764L166.834 750H164.018L163.138 746.106H158.87L157.99 750H155.174ZM159.376 743.862H162.632L161.664 739.55C161.503 738.831 161.364 738.186 161.246 737.614C161.129 737.027 161.048 736.602 161.004 736.338C160.96 736.602 160.88 737.027 160.762 737.614C160.66 738.186 160.52 738.824 160.344 739.528L159.376 743.862Z"
          fill="black"/>
</svg>