<svg width="600" height="850" viewBox="0 0 600 850" fill="none" xmlns="http://www.w3.org/2000/svg">
    <path d="M190.216 501V489.32H192.104L193.32 493.096C193.437 493.437 193.544 493.779 193.64 494.12C193.736 494.451 193.805 494.707 193.848 494.888C193.901 494.707 193.971 494.451 194.056 494.12C194.141 493.779 194.237 493.432 194.344 493.08L195.496 489.32H197.384V501H195.976V496.76C195.976 496.291 195.992 495.757 196.024 495.16C196.056 494.563 196.099 493.955 196.152 493.336C196.205 492.707 196.259 492.109 196.312 491.544C196.376 490.968 196.429 490.467 196.472 490.04L194.584 495.88H193.064L191.16 490.04C191.213 490.456 191.267 490.941 191.32 491.496C191.373 492.04 191.421 492.621 191.464 493.24C191.507 493.848 191.544 494.456 191.576 495.064C191.608 495.672 191.624 496.237 191.624 496.76V501H190.216ZM225.634 501V489.32H227.026V495.88C227.026 496.264 227.015 496.675 226.994 497.112C226.983 497.539 226.967 497.949 226.946 498.344C226.924 498.728 226.903 499.053 226.882 499.32L230.434 489.32H232.354V501H230.962V494.44C230.962 494.045 230.967 493.635 230.978 493.208C230.999 492.771 231.02 492.36 231.042 491.976C231.074 491.581 231.1 491.256 231.122 491L227.554 501H225.634ZM260.875 501V489.32H262.315V494.312H266.059V489.32H267.499V501H266.059V495.624H262.315V501H260.875ZM295.381 501L298.421 489.32H300.357L303.381 501H301.925L301.157 497.896H297.621L296.853 501H295.381ZM297.909 496.68H300.853L299.957 493.08C299.787 492.397 299.653 491.827 299.557 491.368C299.461 490.909 299.403 490.611 299.381 490.472C299.36 490.611 299.301 490.909 299.205 491.368C299.109 491.827 298.976 492.392 298.805 493.064L297.909 496.68Z" fill="black"/>
</svg>
