<svg width="600" height="850" viewBox="0 0 600 850" fill="none" xmlns="http://www.w3.org/2000/svg">
    <path d="M190.232 505V488.94H193.488L195.05 494.044C195.211 494.557 195.343 495.027 195.446 495.452C195.549 495.877 195.615 496.185 195.644 496.376C195.673 496.185 195.739 495.877 195.842 495.452C195.945 495.027 196.069 494.557 196.216 494.044L197.712 488.94H200.968V505H198.394V500.006C198.394 499.273 198.416 498.473 198.46 497.608C198.504 496.743 198.555 495.877 198.614 495.012C198.673 494.147 198.739 493.325 198.812 492.548C198.9 491.771 198.973 491.089 199.032 490.502L196.876 498.092H194.368L192.146 490.502C192.219 491.059 192.293 491.719 192.366 492.482C192.439 493.23 192.505 494.037 192.564 494.902C192.637 495.753 192.696 496.618 192.74 497.498C192.784 498.378 192.806 499.214 192.806 500.006V505H190.232ZM225.775 505V488.94H228.283V496.794C228.283 497.307 228.269 497.879 228.239 498.51C228.21 499.141 228.173 499.757 228.129 500.358C228.085 500.959 228.049 501.48 228.019 501.92L232.441 488.94H235.807V505H233.299V497.388C233.299 496.875 233.314 496.288 233.343 495.628C233.373 494.968 233.409 494.315 233.453 493.67C233.512 493.025 233.563 492.475 233.607 492.02L229.141 505H225.775ZM261.077 505V488.94H263.827V495.386H268.139V488.94H270.889V505H268.139V497.938H263.827V505H261.077ZM295.344 505L299.392 488.94H302.934L307.004 505H304.188L303.308 501.106H299.04L298.16 505H295.344ZM299.546 498.862H302.802L301.834 494.55C301.673 493.831 301.534 493.186 301.416 492.614C301.299 492.027 301.218 491.602 301.174 491.338C301.13 491.602 301.05 492.027 300.932 492.614C300.83 493.186 300.69 493.824 300.514 494.528L299.546 498.862Z"
          fill="black"/>
</svg>
