<svg width="596" height="842" viewBox="0 0 596 842" fill="none" xmlns="http://www.w3.org/2000/svg">
    <path d="M201.52 485V470.4H203.88L205.4 475.12C205.547 475.547 205.68 475.973 205.8 476.4C205.92 476.813 206.007 477.133 206.06 477.36C206.127 477.133 206.213 476.813 206.32 476.4C206.427 475.973 206.547 475.54 206.68 475.1L208.12 470.4H210.48V485H208.72V479.7C208.72 479.113 208.74 478.447 208.78 477.7C208.82 476.953 208.873 476.193 208.94 475.42C209.007 474.633 209.073 473.887 209.14 473.18C209.22 472.46 209.287 471.833 209.34 471.3L206.98 478.6H205.08L202.7 471.3C202.767 471.82 202.833 472.427 202.9 473.12C202.967 473.8 203.027 474.527 203.08 475.3C203.133 476.06 203.18 476.82 203.22 477.58C203.26 478.34 203.28 479.047 203.28 479.7V485H201.52ZM236.092 485V470.4H237.832V478.6C237.832 479.08 237.819 479.593 237.792 480.14C237.779 480.673 237.759 481.187 237.732 481.68C237.706 482.16 237.679 482.567 237.652 482.9L242.092 470.4H244.492V485H242.752V476.8C242.752 476.307 242.759 475.793 242.772 475.26C242.799 474.713 242.826 474.2 242.852 473.72C242.892 473.227 242.926 472.82 242.952 472.5L238.492 485H236.092ZM270.444 485V470.4H272.244V476.64H276.924V470.4H278.724V485H276.924V478.28H272.244V485H270.444ZM303.877 485L307.677 470.4H310.097L313.877 485H312.057L311.097 481.12H306.677L305.717 485H303.877ZM307.037 479.6H310.717L309.597 475.1C309.383 474.247 309.217 473.533 309.097 472.96C308.977 472.387 308.903 472.013 308.877 471.84C308.85 472.013 308.777 472.387 308.657 472.96C308.537 473.533 308.37 474.24 308.157 475.08L307.037 479.6Z" fill="black"/>
</svg>
