<svg width="600" height="850" viewBox="0 0 600 850" fill="none" xmlns="http://www.w3.org/2000/svg">
    <path d="M365.003 327L368.043 315.32H369.979L373.003 327H371.547L370.779 323.896H367.243L366.475 327H365.003ZM367.531 322.68H370.475L369.579 319.08C369.408 318.397 369.275 317.827 369.179 317.368C369.083 316.909 369.024 316.611 369.003 316.472C368.982 316.611 368.923 316.909 368.827 317.368C368.731 317.827 368.598 318.392 368.427 319.064L367.531 322.68ZM368.283 362V351.616H365.083V350.304H372.923V351.616H369.723V362H368.283ZM365.003 397L368.043 385.32H369.979L373.003 397H371.547L370.779 393.896H367.243L366.475 397H365.003ZM367.531 392.68H370.475L369.579 389.08C369.408 388.397 369.275 387.827 369.179 387.368C369.083 386.909 369.024 386.611 369.003 386.472C368.982 386.611 368.923 386.909 368.827 387.368C368.731 387.827 368.598 388.392 368.427 389.064L367.531 392.68ZM365.675 432V420.32H367.115V425.328H368.843L371.435 420.32H373.003L370.107 425.936L373.163 432H371.515L368.795 426.592H367.115V432H365.675ZM365.003 467L368.043 455.32H369.979L373.003 467H371.547L370.779 463.896H367.243L366.475 467H365.003ZM367.531 462.68H370.475L369.579 459.08C369.408 458.397 369.275 457.827 369.179 457.368C369.083 456.909 369.024 456.611 369.003 456.472C368.982 456.611 368.923 456.909 368.827 457.368C368.731 457.827 368.598 458.392 368.427 459.064L367.531 462.68Z" fill="black"/>
</svg>
