<svg width="596" height="842" viewBox="0 0 596 842" fill="none" xmlns="http://www.w3.org/2000/svg">
    <path d="M374.004 315L377.804 300.4H380.224L384.004 315H382.184L381.224 311.12H376.804L375.844 315H374.004ZM377.164 309.6H380.844L379.724 305.1C379.511 304.247 379.344 303.533 379.224 302.96C379.104 302.387 379.031 302.013 379.004 301.84C378.977 302.013 378.904 302.387 378.784 302.96C378.664 303.533 378.497 304.24 378.284 305.08L377.164 309.6ZM378.104 349V336.02H374.104V334.38H383.904V336.02H379.904V349H378.104ZM374.004 383L377.804 368.4H380.224L384.004 383H382.184L381.224 379.12H376.804L375.844 383H374.004ZM377.164 377.6H380.844L379.724 373.1C379.511 372.247 379.344 371.533 379.224 370.96C379.104 370.387 379.031 370.013 379.004 369.84C378.977 370.013 378.904 370.387 378.784 370.96C378.664 371.533 378.497 372.24 378.284 373.08L377.164 377.6ZM374.844 417V402.4H376.644V408.66H378.804L382.044 402.4H384.004L380.384 409.42L384.204 417H382.144L378.744 410.24H376.644V417H374.844ZM374.004 451L377.804 436.4H380.224L384.004 451H382.184L381.224 447.12H376.804L375.844 451H374.004ZM377.164 445.6H380.844L379.724 441.1C379.511 440.247 379.344 439.533 379.224 438.96C379.104 438.387 379.031 438.013 379.004 437.84C378.977 438.013 378.904 438.387 378.784 438.96C378.664 439.533 378.497 440.24 378.284 441.08L377.164 445.6Z" fill="black"/>
</svg>
