<svg width="600" height="850" viewBox="0 0 600 850" fill="none" xmlns="http://www.w3.org/2000/svg">
    <path d="M365.174 331L369.222 314.94H372.764L376.834 331H374.018L373.138 327.106H368.87L367.99 331H365.174ZM369.376 324.862H372.632L371.664 320.55C371.503 319.831 371.364 319.186 371.246 318.614C371.129 318.027 371.048 317.602 371.004 317.338C370.96 317.602 370.88 318.027 370.762 318.614C370.66 319.186 370.52 319.824 370.344 320.528L369.376 324.862ZM369.618 366V352.492H365.416V349.94H376.592V352.492H372.39V366H369.618ZM365.174 401L369.222 384.94H372.764L376.834 401H374.018L373.138 397.106H368.87L367.99 401H365.174ZM369.376 394.862H372.632L371.664 390.55C371.503 389.831 371.364 389.186 371.246 388.614C371.129 388.027 371.048 387.602 371.004 387.338C370.96 387.602 370.88 388.027 370.762 388.614C370.66 389.186 370.52 389.824 370.344 390.528L369.376 394.862ZM366.076 436V419.94H368.826V426.43H370.74L373.754 419.94H376.746L373.16 427.64L376.922 436H373.864L370.696 428.938H368.826V436H366.076ZM365.174 471L369.222 454.94H372.764L376.834 471H374.018L373.138 467.106H368.87L367.99 471H365.174ZM369.376 464.862H372.632L371.664 460.55C371.503 459.831 371.364 459.186 371.246 458.614C371.129 458.027 371.048 457.602 371.004 457.338C370.96 457.602 370.88 458.027 370.762 458.614C370.66 459.186 370.52 459.824 370.344 460.528L369.376 464.862Z"
          fill="black"/>
</svg>
