<svg width="600" height="850" viewBox="0 0 600 850" fill="none" xmlns="http://www.w3.org/2000/svg">
    <path d="M368.08 361V350.616H364.88V349.304H372.72V350.616H369.52V361H368.08ZM399.834 361L402.874 349.32H404.81L407.834 361H406.378L405.61 357.896H402.074L401.306 361H399.834ZM402.362 356.68H405.306L404.41 353.08C404.239 352.397 404.106 351.827 404.01 351.368C403.914 350.909 403.855 350.611 403.834 350.472C403.812 350.611 403.754 350.909 403.658 351.368C403.562 351.827 403.428 352.392 403.258 353.064L402.362 356.68ZM435.556 361V349.32H436.996V354.312H440.74V349.32H442.18V361H440.74V355.624H436.996V361H435.556ZM470.573 361V349.32H472.013V354.328H473.741L476.333 349.32H477.901L475.005 354.936L478.061 361H476.413L473.693 355.592H472.013V361H470.573Z" fill="black"/>
</svg>
