<svg width="596" height="842" viewBox="0 0 596 842" fill="none" xmlns="http://www.w3.org/2000/svg">
    <path d="M377.1 349V336.02H373.1V334.38H382.9V336.02H378.9V349H377.1ZM407.292 349L411.092 334.4H413.512L417.292 349H415.472L414.512 345.12H410.092L409.132 349H407.292ZM410.452 343.6H414.132L413.012 339.1C412.799 338.247 412.632 337.533 412.512 336.96C412.392 336.387 412.319 336.013 412.292 335.84C412.266 336.013 412.192 336.387 412.072 336.96C411.952 337.533 411.786 338.24 411.572 339.08L410.452 343.6ZM442.444 349V334.4H444.244V340.64H448.924V334.4H450.724V349H448.924V342.28H444.244V349H442.444ZM476.717 349V334.4H478.517V340.66H480.677L483.917 334.4H485.877L482.257 341.42L486.077 349H484.017L480.617 342.24H478.517V349H476.717Z" fill="black"/>
</svg>
