<svg width="600" height="850" viewBox="0 0 600 850" fill="none" xmlns="http://www.w3.org/2000/svg">
    <path d="M369.214 365V351.492H365.012V348.94H376.188V351.492H371.986V365H369.214ZM399.961 365L404.009 348.94H407.551L411.621 365H408.805L407.925 361.106H403.657L402.777 365H399.961ZM404.163 358.862H407.419L406.451 354.55C406.29 353.831 406.151 353.186 406.033 352.614C405.916 352.027 405.835 351.602 405.791 351.338C405.747 351.602 405.667 352.027 405.549 352.614C405.447 353.186 405.307 353.824 405.131 354.528L404.163 358.862ZM436.077 365V348.94H438.827V355.386H443.139V348.94H445.889V365H443.139V357.938H438.827V365H436.077ZM471.246 365V348.94H473.996V355.43H475.91L478.924 348.94H481.916L478.33 356.64L482.092 365H479.034L475.866 357.938H473.996V365H471.246Z"
          fill="black"/>
</svg>
