<svg width="32" height="32" viewBox="0 0 32 32" fill="none" xmlns="http://www.w3.org/2000/svg">
    <rect width="32" height="32" rx="8" fill="white"/>
    <path d="M15.5 8.00008C15.5 8.00008 16 6.00008 17 4C18 1.99993 19.5 2 19.5 2C19.5 2 20 7.19424 20 10C20 12.4896 18.3743 15 15.5 15C12.5 15 11 12.4896 11 10C11 7 11.5 2 11.5 2C11.5 2 13 1.99993 14 4C15 6.00008 15.5 8.00008 15.5 8.00008Z" fill="#E64046"/>
    <path d="M15.5 23.9999C15.5 23.9999 15 25.9999 14 28C13 30.0001 11.5 30 11.5 30C11.5 30 11 24.8058 11 22C11 19.5104 12.6257 17 15.5 17C18.5 17 20 19.5104 20 22C20 25 19.5 30 19.5 30C19.5 30 18 30.0001 17 28C16 25.9999 15.5 23.9999 15.5 23.9999Z" fill="#E64046"/>
    <path d="M13.7391 13.4956C13.7391 13.4956 8.65217 13.4956 6.3913 13.4956C4.13043 13.4956 3 14.0729 3 14.0729C3 14.0729 9.78261 16.6705 9.78261 16.9592C9.78261 17.2478 3 20.4227 3 20.4227C3 20.4227 4.13043 21 6.3913 21C8.65217 21 17.9783 21 17.9783 21M13.7391 13.4956V10.0321C13.7391 10.0321 16.8478 9.74346 17.6957 10.898C18.5435 12.0525 17.9783 13.4956 17.9783 13.4956C17.9783 13.4956 21.9348 13.4956 25.0435 13.4956C28.1522 13.4956 29 13.7842 29 13.7842C29 13.7842 22.2174 16.6705 22.2174 16.9592C22.2174 17.2478 29 20.4227 29 20.4227C29 20.4227 27.3043 21 25.0435 21C22.7826 21 17.9783 21 17.9783 21M13.7391 13.4956C13.7391 13.4956 13.7391 12.6297 13.7391 16.3819C13.7391 20.1341 17.9783 21 17.9783 21" stroke="black"/>
    <circle cx="16" cy="12" r="1" fill="black"/>
</svg>
